# File produced by Open Asset Import Library (http://www.assimp.sf.net)
# (assimp v3.1.77322876)

mtllib cube.mtl

# 48 vertex positions
v  -0.935742 -0.217303 -0.935742
v  -0.935742 -0.217303 0.935742
v  -1 -0.153045 0.935742
v  -1 -0.153045 -0.935742
v  0.935742 -0.153045 1
v  -0.935742 -0.153045 1
v  0.935742 -0.217303 0.935742
v  -1 0.03976 0.935742
v  -0.935742 0.03976 1
v  1 -0.153045 -0.935742
v  1 -0.153045 0.935742
v  0.935742 -0.217303 -0.935742
v  0.935742 0.03976 1
v  1 0.03976 0.935742
v  -1 0.03976 -0.935742
v  -0.935742 0.104018 0.935742
v  -0.935742 0.104018 -0.935742
v  0.935742 0.104018 0.935742
v  0.935742 0.104018 -0.935742
v  1 0.03976 -0.935742
v  -0.935742 0.03976 -1
v  -0.935742 -0.153045 -1
v  0.935742 0.03976 -1
v  0.935742 -0.153045 -1
v  -0.40001 0.635557 -0.40001
v  -0.40001 0.635557 0.40001
v  -0.5 0.735547 0.40001
v  -0.5 0.735547 -0.40001
v  0.40001 0.735547 0.5
v  -0.40001 0.735547 0.5
v  0.40001 0.635557 0.40001
v  -0.5 1.53557 0.40001
v  -0.40001 1.53557 0.5
v  0.5 0.735547 -0.40001
v  0.5 0.735547 0.40001
v  0.40001 0.635557 -0.40001
v  0.40001 1.53557 0.5
v  0.5 1.53557 0.40001
v  -0.5 1.53557 -0.40001
v  -0.40001 1.63556 0.40001
v  -0.40001 1.63556 -0.40001
v  0.40001 1.63556 0.40001
v  0.40001 1.63556 -0.40001
v  0.5 1.53557 -0.40001
v  -0.40001 1.53557 -0.5
v  -0.40001 0.735547 -0.5
v  0.40001 1.53557 -0.5
v  0.40001 0.735547 -0.5

# 76 UV coordinates
vt 0.455848 0.309172 0
vt 0.454126 0.100436 0
vt 0.461293 0.100377 0
vt 0.463015 0.309113 0
vt 0.252325 0.942661 0
vt 0.46106 0.940939 0
vt 0.461428 0.985548 0
vt 0.252693 0.98727 0
vt 0.47429 0.80697 0
vt 0.475394 0.94082 0
vt 0.459956 0.807088 0
vt 0.239945 0.310953 0
vt 0.238223 0.102218 0
vt 0.24539 0.102158 0
vt 0.247112 0.310894 0
vt 0.25122 0.80881 0
vt 0.237991 0.942779 0
vt 0.236886 0.808928 0
vt 0.464974 0.546517 0
vt 0.466696 0.755252 0
vt 0.459529 0.755311 0
vt 0.457807 0.546576 0
vt 0.250793 0.757034 0
vt 0.249071 0.548298 0
vt 0.243626 0.757093 0
vt 0.241904 0.548357 0
vt 0.463442 0.360889 0
vt 0.464546 0.49474 0
vt 0.457379 0.494799 0
vt 0.456275 0.360949 0
vt 0.248644 0.496521 0
vt 0.24754 0.362671 0
vt 0.241477 0.496581 0
vt 0.240372 0.36273 0
vt 0.029255 0.944501 0
vt 0.028151 0.81065 0
vt 0.683026 0.805247 0
vt 0.68413 0.939098 0
vt 0.654199 0.558958 0
vt 0.654199 0.699575 0
vt 0.636624 0.699575 0
vt 0.636624 0.558958 0
vt 0.794816 0.031656 0
vt 0.654199 0.031656 0
vt 0.654199 0.014081 0
vt 0.794816 0.014081 0
vt 0.619049 0.172273 0
vt 0.619049 0.031656 0
vt 0.654199 0.172273 0
vt 0.812391 0.558958 0
vt 0.812391 0.699575 0
vt 0.794816 0.699575 0
vt 0.794816 0.558958 0
vt 0.794816 0.172273 0
vt 0.829966 0.031656 0
vt 0.829966 0.172273 0
vt 0.636624 0.34804 0
vt 0.636624 0.207423 0
vt 0.654199 0.207423 0
vt 0.654199 0.34804 0
vt 0.794816 0.207423 0
vt 0.794816 0.34804 0
vt 0.812391 0.207423 0
vt 0.812391 0.34804 0
vt 0.636624 0.523808 0
vt 0.636624 0.38319 0
vt 0.654199 0.38319 0
vt 0.654199 0.523808 0
vt 0.794816 0.38319 0
vt 0.794816 0.523808 0
vt 0.812391 0.38319 0
vt 0.812391 0.523808 0
vt 0.970583 0.031656 0
vt 0.970583 0.172273 0
vt 0.478432 0.172273 0
vt 0.478432 0.031656 0

# 34 vertex normals
vn -0.707107 -0.707107 0
vn 0 -0.707107 0.707107
vn -0.707107 0 0.707107
vn 0.707107 -0.707107 0
vn 0.707107 0 0.707107
vn -0.707107 0.707107 0
vn 0 0.707107 0.707107
vn 0.707107 0.707107 0
vn -0.707107 0 -0.707107
vn 0 0.707107 -0.707107
vn 0.707107 0 -0.707107
vn 0 -0.707107 -0.707107
vn 0 0 1
vn 0 1 0
vn 0 0 -1
vn 0 -1 0
vn 1 0 0
vn -1 0 0
vn -0.57735 -0.57735 0.577351
vn 0.57735 -0.57735 0.577351
vn -0.57735 0.57735 0.577351
vn 0.57735 0.57735 0.577351
vn -0.57735 0.57735 -0.577351
vn 0.57735 0.57735 -0.577351
vn -0.57735 -0.57735 -0.577351
vn 0.57735 -0.57735 -0.577351
vn -0.57735 -0.57735 0.57735
vn 0.57735 -0.57735 0.57735
vn -0.57735 0.57735 0.57735
vn 0.57735 0.57735 0.57735
vn -0.57735 0.57735 -0.57735
vn 0.57735 0.57735 -0.57735
vn -0.57735 -0.57735 -0.57735
vn 0.57735 -0.57735 -0.57735

# Mesh 'g pCube2_pCube2' with 44 faces
g g pCube2_pCube2
usemtl initialShadingGroup
f  1/1/1 2/2/1 3/3/1
f  3/3/1 4/4/1 1/1/1
f  5/5/2 6/6/2 2/7/2
f  2/7/2 7/8/2 5/5/2
f  8/9/3 3/10/3 6/6/3
f  6/6/3 9/11/3 8/9/3
f  10/12/4 11/13/4 7/14/4
f  7/14/4 12/15/4 10/12/4
f  13/16/5 5/5/5 11/17/5
f  11/17/5 14/18/5 13/16/5
f  15/19/6 8/20/6 16/21/6
f  16/21/6 17/22/6 15/19/6
f  18/23/7 16/21/7 9/11/7
f  9/11/7 13/16/7 18/23/7
f  19/24/8 18/23/8 14/25/8
f  14/25/8 20/26/8 19/24/8
f  4/27/9 15/28/9 21/29/9
f  21/29/9 22/30/9 4/27/9
f  23/31/10 21/29/10 17/22/10
f  17/22/10 19/24/10 23/31/10
f  24/32/11 23/31/11 20/33/11
f  20/33/11 10/34/11 24/32/11
f  12/15/12 1/1/12 22/30/12
f  22/30/12 24/32/12 12/15/12
f  9/11/13 6/6/13 5/5/13
f  5/5/13 13/16/13 9/11/13
f  17/22/14 16/21/14 18/23/14
f  18/23/14 19/24/14 17/22/14
f  22/30/15 21/29/15 23/31/15
f  23/31/15 24/32/15 22/30/15
f  2/2/16 1/1/16 12/15/16
f  12/15/16 7/14/16 2/2/16
f  14/18/17 11/17/17 10/35/17
f  10/35/17 20/36/17 14/18/17
f  15/37/18 4/38/18 3/10/18
f  3/10/18 8/9/18 15/37/18
f  2/7/19 6/6/19 3/10/19
f  11/17/20 5/5/20 7/8/20
f  8/9/21 9/11/21 16/21/21
f  18/23/22 13/16/22 14/18/22
f  15/19/23 17/22/23 21/29/23
f  23/31/24 19/24/24 20/26/24
f  4/27/25 22/30/25 1/1/25
f  12/15/26 24/32/26 10/34/26

# Mesh 'g pCube1_pCube1' with 44 faces
g g pCube1_pCube1
usemtl initialShadingGroup
f  25/39/1 26/40/1 27/41/1
f  27/41/1 28/42/1 25/39/1
f  29/43/2 30/44/2 26/45/2
f  26/45/2 31/46/2 29/43/2
f  32/47/3 27/48/3 30/44/3
f  30/44/3 33/49/3 32/47/3
f  34/50/4 35/51/4 31/52/4
f  31/52/4 36/53/4 34/50/4
f  37/54/5 29/43/5 35/55/5
f  35/55/5 38/56/5 37/54/5
f  39/57/6 32/58/6 40/59/6
f  40/59/6 41/60/6 39/57/6
f  42/61/7 40/59/7 33/49/7
f  33/49/7 37/54/7 42/61/7
f  43/62/8 42/61/8 38/63/8
f  38/63/8 44/64/8 43/62/8
f  28/65/9 39/66/9 45/67/9
f  45/67/9 46/68/9 28/65/9
f  47/69/10 45/67/10 41/60/10
f  41/60/10 43/62/10 47/69/10
f  48/70/11 47/69/11 44/71/11
f  44/71/11 34/72/11 48/70/11
f  36/53/12 25/39/12 46/68/12
f  46/68/12 48/70/12 36/53/12
f  33/49/13 30/44/13 29/43/13
f  29/43/13 37/54/13 33/49/13
f  41/60/14 40/59/14 42/61/14
f  42/61/14 43/62/14 41/60/14
f  46/68/15 45/67/15 47/69/15
f  47/69/15 48/70/15 46/68/15
f  26/40/16 25/39/16 36/53/16
f  36/53/16 31/52/16 26/40/16
f  38/56/17 35/55/17 34/73/17
f  34/73/17 44/74/17 38/56/17
f  39/75/18 28/76/18 27/48/18
f  27/48/18 32/47/18 39/75/18
f  26/45/27 30/44/27 27/48/27
f  35/55/28 29/43/28 31/46/28
f  32/47/29 33/49/29 40/59/29
f  42/61/30 37/54/30 38/56/30
f  39/57/31 41/60/31 45/67/31
f  47/69/32 43/62/32 44/64/32
f  28/65/33 46/68/33 25/39/33
f  36/53/34 48/70/34 34/72/34

