# This file uses centimeters as units for non-parametric coordinates.

mtllib glassdome.mtl
g default
v 2.944486 22.851976 -1.700000
v 1.700000 22.851976 -2.944486
v 0.000000 22.851976 -3.400000
v -1.700000 22.851976 -2.944486
v -2.944486 22.851976 -1.700000
v -3.400000 22.851976 0.000000
v -2.944486 22.851976 1.700000
v -1.700000 22.851976 2.944486
v 0.000000 22.851976 3.400000
v 1.700000 22.851976 2.944486
v 2.944486 22.851976 1.700000
v 3.400000 22.851976 0.000000
v 5.888972 21.462375 -3.400000
v 3.400000 21.462375 -5.888972
v 0.000000 21.462375 -6.800000
v -3.400000 21.462375 -5.888972
v -5.888972 21.462375 -3.400000
v -6.800000 21.462375 0.000000
v -5.888972 21.462375 3.400000
v -3.400000 21.462375 5.888972
v 0.000000 21.462375 6.800000
v 3.400000 21.462375 5.888972
v 5.888972 21.462375 3.400000
v 6.800000 21.462375 0.000000
v 8.833459 19.491739 -5.100000
v 5.100000 19.491739 -8.833459
v 0.000000 19.491739 -10.200000
v -5.100000 19.491739 -8.833459
v -8.833459 19.491739 -5.100000
v -10.200000 19.491739 0.000000
v -8.833459 19.491739 5.100000
v -5.100000 19.491739 8.833459
v 0.000000 19.491739 10.200000
v 5.100000 19.491739 8.833459
v 8.833459 19.491739 5.100000
v 10.200000 19.491739 0.000000
v 8.833459 19.591741 -5.100000
v 5.100000 19.591741 -8.833459
v 0.000000 19.591741 -10.200000
v -5.100000 19.591741 -8.833459
v -8.833459 19.591741 -5.100000
v -10.200000 19.591741 0.000000
v -8.833459 19.591741 5.100000
v -5.100000 19.591741 8.833459
v 0.000000 19.591741 10.200000
v 5.100000 19.591741 8.833459
v 8.833459 19.591741 5.100000
v 10.200000 19.591741 0.000000
v 5.888972 21.562376 -3.400000
v 3.400000 21.562376 -5.888972
v 0.000000 21.562376 -6.800000
v -3.400000 21.562376 -5.888972
v -5.888972 21.562376 -3.400000
v -6.800000 21.562376 0.000000
v -5.888972 21.562376 3.400000
v -3.400000 21.562376 5.888972
v 0.000000 21.562376 6.800000
v 3.400000 21.562376 5.888972
v 5.888972 21.562376 3.400000
v 6.800000 21.562376 0.000000
v 2.944486 22.951975 -1.700000
v 1.700000 22.951975 -2.944486
v 0.000000 22.951975 -3.400000
v -1.700000 22.951975 -2.944486
v -2.944486 22.951975 -1.700000
v -3.400000 22.951975 0.000000
v -2.944486 22.951975 1.700000
v -1.700000 22.951975 2.944486
v 0.000000 22.951975 3.400000
v 1.700000 22.951975 2.944486
v 2.944486 22.951975 1.700000
v 3.400000 22.951975 0.000000
v 0.000000 23.612047 0.000000
v 0.000000 23.712046 0.000000
vt 0.402957 0.840726
vt 0.402957 0.716681
vt 0.405389 0.716681
vt 0.405389 0.840726
vt 0.402957 0.592637
vt 0.405389 0.592637
vt 0.402957 0.931533
vt 0.405389 0.931533
vt 0.402957 0.501830
vt 0.405389 0.501830
vt 0.411015 0.840726
vt 0.411015 0.716681
vt 0.413448 0.716681
vt 0.413448 0.840726
vt 0.411015 0.592637
vt 0.413448 0.592637
vt 0.411015 0.931533
vt 0.413448 0.931533
vt 0.411015 0.501830
vt 0.413448 0.501830
vt 0.321533 0.208733
vt 0.291264 0.178464
vt 0.332612 0.106847
vt 0.393150 0.167385
vt 0.249916 0.250081
vt 0.249916 0.167385
vt 0.249916 0.084688
vt 0.373960 0.035230
vt 0.464767 0.126036
vt 0.332612 0.250081
vt 0.415308 0.250081
vt 0.208568 0.178464
vt 0.167219 0.106847
vt 0.249916 0.001992
vt 0.498005 0.250081
vt 0.321533 0.291429
vt 0.393150 0.332777
vt 0.178299 0.208733
vt 0.106682 0.167385
vt 0.125871 0.035230
vt 0.464767 0.374125
vt 0.291264 0.321698
vt 0.332612 0.393315
vt 0.167219 0.250081
vt 0.084523 0.250081
vt 0.035064 0.126036
vt 0.373960 0.464932
vt 0.249916 0.332777
vt 0.249916 0.415473
vt 0.178299 0.291429
vt 0.106682 0.332777
vt 0.001827 0.250081
vt 0.249916 0.498170
vt 0.208568 0.321698
vt 0.167219 0.393315
vt 0.035064 0.374125
vt 0.125871 0.464932
vt 0.882014 0.873963
vt 0.791207 0.964770
vt 0.749859 0.893153
vt 0.810397 0.832615
vt 0.667163 0.998008
vt 0.667163 0.915312
vt 0.708511 0.821536
vt 0.738780 0.791267
vt 0.915252 0.749919
vt 0.832556 0.749919
vt 0.543119 0.964770
vt 0.584467 0.893153
vt 0.667163 0.832615
vt 0.667163 0.749919
vt 0.749859 0.749919
vt 0.882014 0.625875
vt 0.810397 0.667223
vt 0.452312 0.873963
vt 0.523929 0.832615
vt 0.625815 0.821536
vt 0.738780 0.708571
vt 0.791207 0.535068
vt 0.749859 0.606685
vt 0.419074 0.749919
vt 0.501770 0.749919
vt 0.595546 0.791267
vt 0.708511 0.678302
vt 0.667163 0.501830
vt 0.667163 0.584527
vt 0.452312 0.625875
vt 0.523929 0.667223
vt 0.584467 0.749919
vt 0.667163 0.667223
vt 0.543119 0.535068
vt 0.584467 0.606685
vt 0.595546 0.708571
vt 0.625815 0.678302
vt 0.397330 0.501830
vt 0.397330 0.625875
vt 0.394898 0.625875
vt 0.394898 0.501830
vt 0.397330 0.749919
vt 0.394898 0.749919
vt 0.386839 0.749919
vt 0.386839 0.625875
vt 0.389271 0.625875
vt 0.389271 0.749919
vt 0.386839 0.501830
vt 0.389271 0.501830
vn -0.302404 -0.937054 0.174593
vn -0.174593 -0.937054 0.302404
vn -0.233135 -0.884643 0.403801
vn -0.403801 -0.884643 0.233135
vn -0.000000 -0.937054 0.349186
vn -0.000000 -0.884643 0.466269
vn 0.174593 -0.937054 0.302404
vn 0.233135 -0.884643 0.403801
vn 0.302404 -0.937054 0.174593
vn 0.403801 -0.884643 0.233135
vn 0.349186 -0.937054 0.000000
vn 0.466269 -0.884643 0.000000
vn 0.302404 -0.937054 -0.174593
vn 0.403801 -0.884643 -0.233135
vn 0.174593 -0.937054 -0.302404
vn 0.233135 -0.884643 -0.403801
vn 0.000000 -0.937054 -0.349186
vn 0.000000 -0.884643 -0.466269
vn -0.174593 -0.937054 -0.302404
vn -0.233135 -0.884643 -0.403801
vn -0.302404 -0.937054 -0.174593
vn -0.403801 -0.884643 -0.233135
vn -0.349186 -0.937054 -0.000000
vn -0.466269 -0.884643 -0.000000
vn -0.250729 -0.865182 0.434276
vn -0.434276 -0.865182 0.250729
vn -0.000000 -0.865182 0.501458
vn 0.250729 -0.865182 0.434276
vn 0.434276 -0.865182 0.250729
vn 0.501458 -0.865182 0.000000
vn 0.434276 -0.865182 -0.250729
vn 0.250729 -0.865182 -0.434276
vn 0.000000 -0.865182 -0.501458
vn -0.250729 -0.865182 -0.434276
vn -0.434276 -0.865182 -0.250729
vn -0.501458 -0.865182 -0.000000
vn 0.707107 0.000000 -0.707106
vn 0.707107 0.000000 -0.707106
vn 0.707107 0.000000 -0.707106
vn 0.707107 0.000000 -0.707106
vn 0.258819 0.000000 -0.965926
vn 0.258819 0.000000 -0.965926
vn 0.258819 0.000000 -0.965926
vn 0.258819 0.000000 -0.965926
vn -0.258819 0.000000 -0.965926
vn -0.258819 0.000000 -0.965926
vn -0.258819 0.000000 -0.965926
vn -0.258819 0.000000 -0.965926
vn -0.707107 0.000000 -0.707106
vn -0.707107 0.000000 -0.707106
vn -0.707107 0.000000 -0.707106
vn -0.707107 0.000000 -0.707106
vn -0.965926 0.000000 -0.258820
vn -0.965926 0.000000 -0.258820
vn -0.965926 0.000000 -0.258820
vn -0.965926 0.000000 -0.258820
vn -0.965926 0.000000 0.258820
vn -0.965926 0.000000 0.258820
vn -0.965926 0.000000 0.258820
vn -0.965926 0.000000 0.258820
vn -0.707107 0.000000 0.707106
vn -0.707107 0.000000 0.707106
vn -0.707107 0.000000 0.707106
vn -0.707107 0.000000 0.707106
vn -0.258819 0.000000 0.965926
vn -0.258819 0.000000 0.965926
vn -0.258819 0.000000 0.965926
vn -0.258819 0.000000 0.965926
vn 0.258819 0.000000 0.965926
vn 0.258819 0.000000 0.965926
vn 0.258819 0.000000 0.965926
vn 0.258819 0.000000 0.965926
vn 0.707107 0.000000 0.707106
vn 0.707107 0.000000 0.707106
vn 0.707107 0.000000 0.707106
vn 0.707107 0.000000 0.707106
vn 0.965926 0.000000 0.258820
vn 0.965926 0.000000 0.258820
vn 0.965926 0.000000 0.258820
vn 0.965926 0.000000 0.258820
vn 0.965926 0.000000 -0.258820
vn 0.965926 0.000000 -0.258820
vn 0.965926 0.000000 -0.258820
vn 0.965926 0.000000 -0.258820
vn 0.434275 0.865182 -0.250729
vn 0.250729 0.865182 -0.434275
vn 0.233134 0.884643 -0.403801
vn 0.403801 0.884643 -0.233135
vn 0.000000 0.865182 -0.501458
vn 0.000000 0.884643 -0.466269
vn -0.250729 0.865182 -0.434275
vn -0.233135 0.884643 -0.403801
vn -0.434275 0.865182 -0.250729
vn -0.403801 0.884643 -0.233134
vn -0.501458 0.865182 -0.000000
vn -0.466269 0.884643 -0.000000
vn -0.434275 0.865182 0.250729
vn -0.403801 0.884643 0.233135
vn -0.250729 0.865182 0.434275
vn -0.233134 0.884643 0.403801
vn 0.000000 0.865182 0.501458
vn 0.000000 0.884643 0.466269
vn 0.250729 0.865182 0.434275
vn 0.233135 0.884643 0.403801
vn 0.434275 0.865182 0.250729
vn 0.403801 0.884643 0.233134
vn 0.501458 0.865182 0.000000
vn 0.466269 0.884643 0.000000
vn 0.174593 0.937054 -0.302404
vn 0.302403 0.937054 -0.174593
vn 0.000000 0.937054 -0.349185
vn -0.174593 0.937054 -0.302403
vn -0.302403 0.937054 -0.174593
vn -0.349185 0.937054 0.000000
vn -0.302403 0.937054 0.174593
vn -0.174593 0.937054 0.302404
vn 0.000000 0.937054 0.349185
vn 0.174593 0.937054 0.302403
vn 0.302403 0.937054 0.174593
vn 0.349185 0.937054 -0.000000
vn -0.000000 -1.000000 -0.000000
vn 0.000000 1.000000 0.000000
s 1
g polySurface613 polySurface455
usemtl phong1SG
f 1/21/1 2/22/2 14/23/3 13/24/4
f 2/22/2 3/26/5 15/27/6 14/23/3
f 3/26/5 4/32/7 16/33/8 15/27/6
f 4/32/7 5/38/9 17/39/10 16/33/8
f 5/38/9 6/44/11 18/45/12 17/39/10
f 6/44/11 7/50/13 19/51/14 18/45/12
f 7/50/13 8/54/15 20/55/16 19/51/14
f 8/54/15 9/48/17 21/49/18 20/55/16
f 9/48/17 10/42/19 22/43/20 21/49/18
f 10/42/19 11/36/21 23/37/22 22/43/20
f 11/36/21 12/30/23 24/31/24 23/37/22
f 12/30/23 1/21/1 13/24/4 24/31/24
f 13/24/4 14/23/3 26/28/25 25/29/26
f 14/23/3 15/27/6 27/34/27 26/28/25
f 15/27/6 16/33/8 28/40/28 27/34/27
f 16/33/8 17/39/10 29/46/29 28/40/28
f 17/39/10 18/45/12 30/52/30 29/46/29
f 18/45/12 19/51/14 31/56/31 30/52/30
f 19/51/14 20/55/16 32/57/32 31/56/31
f 20/55/16 21/49/18 33/53/33 32/57/32
f 21/49/18 22/43/20 34/47/34 33/53/33
f 22/43/20 23/37/22 35/41/35 34/47/34
f 23/37/22 24/31/24 36/35/36 35/41/35
f 24/31/24 13/24/4 25/29/26 36/35/36
s off
f 25/15/37 26/19/38 38/20/39 37/16/40
f 26/95/41 27/96/42 39/97/43 38/98/44
f 27/96/45 28/99/46 40/100/47 39/97/48
f 28/7/49 29/1/50 41/4/51 40/8/52
f 29/1/53 30/2/54 42/3/55 41/4/56
f 30/2/57 31/5/58 43/6/59 42/3/60
f 31/5/61 32/9/62 44/10/63 43/6/64
f 32/101/65 33/102/66 45/103/67 44/104/68
f 33/102/69 34/105/70 46/106/71 45/103/72
f 34/17/73 35/11/74 47/14/75 46/18/76
f 35/11/77 36/12/78 48/13/79 47/14/80
f 36/12/81 25/15/82 37/16/83 48/13/84
s 2
f 37/58/85 38/59/86 50/60/87 49/61/88
f 38/59/86 39/62/89 51/63/90 50/60/87
f 39/62/89 40/68/91 52/69/92 51/63/90
f 40/68/91 41/75/93 53/76/94 52/69/92
f 41/75/93 42/81/95 54/82/96 53/76/94
f 42/81/95 43/87/97 55/88/98 54/82/96
f 43/87/97 44/91/99 56/92/100 55/88/98
f 44/91/99 45/85/101 57/86/102 56/92/100
f 45/85/101 46/79/103 58/80/104 57/86/102
f 46/79/103 47/73/105 59/74/106 58/80/104
f 47/73/105 48/66/107 60/67/108 59/74/106
f 48/66/107 37/58/85 49/61/88 60/67/108
f 49/61/88 50/60/87 62/64/109 61/65/110
f 50/60/87 51/63/90 63/70/111 62/64/109
f 51/63/90 52/69/92 64/77/112 63/70/111
f 52/69/92 53/76/94 65/83/113 64/77/112
f 53/76/94 54/82/96 66/89/114 65/83/113
f 54/82/96 55/88/98 67/93/115 66/89/114
f 55/88/98 56/92/100 68/94/116 67/93/115
f 56/92/100 57/86/102 69/90/117 68/94/116
f 57/86/102 58/80/104 70/84/118 69/90/117
f 58/80/104 59/74/106 71/78/119 70/84/118
f 59/74/106 60/67/108 72/72/120 71/78/119
f 60/67/108 49/61/88 61/65/110 72/72/120
s 1
f 2/22/2 1/21/1 73/25/121
f 3/26/5 2/22/2 73/25/121
f 4/32/7 3/26/5 73/25/121
f 5/38/9 4/32/7 73/25/121
f 6/44/11 5/38/9 73/25/121
f 7/50/13 6/44/11 73/25/121
f 8/54/15 7/50/13 73/25/121
f 9/48/17 8/54/15 73/25/121
f 10/42/19 9/48/17 73/25/121
f 11/36/21 10/42/19 73/25/121
f 12/30/23 11/36/21 73/25/121
f 1/21/1 12/30/23 73/25/121
s 2
f 61/65/110 62/64/109 74/71/122
f 62/64/109 63/70/111 74/71/122
f 63/70/111 64/77/112 74/71/122
f 64/77/112 65/83/113 74/71/122
f 65/83/113 66/89/114 74/71/122
f 66/89/114 67/93/115 74/71/122
f 67/93/115 68/94/116 74/71/122
f 68/94/116 69/90/117 74/71/122
f 69/90/117 70/84/118 74/71/122
f 70/84/118 71/78/119 74/71/122
f 71/78/119 72/72/120 74/71/122
f 72/72/120 61/65/110 74/71/122
