# This file uses centimeters as units for non-parametric coordinates.

mtllib rockyroad1.mtl
g default
v -0.000758 -0.064223 -0.029707
v -0.002072 0.084810 -0.022617
v -0.602161 -0.064223 0.440877
v -0.554567 -0.064223 0.482569
v -0.481177 0.084810 0.425540
v -0.522804 0.084810 0.389391
v 0.676161 -0.064223 0.536598
v 0.710265 -0.064223 0.483311
v 0.617823 0.084810 0.423368
v 0.588012 0.084810 0.469737
v -0.411601 0.084810 -0.447242
v -0.367203 0.084810 -0.479926
v -0.424056 -0.064223 -0.553797
v -0.474943 -0.064223 -0.516195
v 0.422092 0.084810 -0.409115
v 0.460687 0.084810 -0.369755
v 0.526113 -0.064223 -0.427468
v 0.481709 -0.064223 -0.472533
v 0.049328 0.084810 -0.510137
v 0.072867 0.084810 -0.484955
v 0.104127 0.084810 -0.504141
v 0.117588 -0.064223 -0.580767
v 0.081887 -0.064223 -0.558674
v 0.054697 -0.064223 -0.587659
v 0.292845 -0.064223 0.645560
v 0.311292 -0.064223 0.623191
v 0.355986 -0.064223 0.641553
v 0.311831 0.084810 0.560814
v 0.272783 0.084810 0.544923
v 0.256824 0.084810 0.564464
v -0.614001 0.084810 0.120253
v -0.596318 0.084810 0.087437
v -0.612698 0.084810 0.065139
v -0.702432 -0.064223 0.072706
v -0.683455 -0.064223 0.098239
v -0.703905 -0.064223 0.135959
v 0.663492 -0.064223 0.079624
v 0.628424 -0.064223 0.044399
v 0.651249 -0.064223 0.017548
v 0.569101 0.084810 0.020829
v 0.549133 0.084810 0.044162
v 0.579519 0.084810 0.074966
v -0.569407 0.014885 0.420025
v -0.667196 0.014884 0.129271
v -0.665790 0.014884 0.069353
v -0.448701 0.014885 -0.488080
v -0.400464 0.014885 -0.523655
v 0.052699 0.014884 -0.556123
v 0.112274 0.014884 -0.549599
v 0.457580 0.014884 -0.446675
v 0.499590 0.014884 -0.403934
v 0.617782 0.014885 0.019183
v 0.629242 0.014885 0.078013
v 0.672189 0.014884 0.458560
v 0.639831 0.014884 0.509003
v 0.338090 0.014885 0.608217
v 0.278284 0.014885 0.612100
v -0.524235 0.014885 0.459419
vt 0.024284 0.861369
vt 0.017177 0.706788
vt 0.133089 0.706789
vt 0.133552 0.861369
vt 0.001877 0.706788
vt 0.009800 0.861369
vt 0.150914 0.706789
vt 0.150444 0.861369
vt 0.034389 0.998008
vt 0.134427 0.998008
vt 0.021075 0.998008
vt 0.278693 0.706788
vt 0.271935 0.861369
vt 0.149971 0.998008
vt 0.284208 0.861369
vt 0.291633 0.706788
vt 0.262121 0.998008
vt 0.273423 0.998007
vt 0.506513 0.513252
vt 0.351933 0.511332
vt 0.351933 0.423779
vt 0.506514 0.429767
vt 0.506513 0.530457
vt 0.351933 0.529494
vt 0.351933 0.411808
vt 0.506514 0.418455
vt 0.643152 0.515842
vt 0.643153 0.438563
vt 0.643152 0.531667
vt 0.506514 0.690515
vt 0.351933 0.698587
vt 0.643153 0.428183
vt 0.643153 0.678789
vt 0.506514 0.700730
vt 0.351933 0.709384
vt 0.643153 0.688173
vt 0.530481 0.179985
vt 0.367521 0.101065
vt 0.362958 0.089853
vt 0.389109 0.010552
vt 0.402423 0.001992
vt 0.502461 0.012990
vt 0.511306 0.021715
vt 0.412179 0.329505
vt 0.401800 0.317552
vt 0.361910 0.105647
vt 0.498881 0.350613
vt 0.489458 0.355691
vt 0.518006 0.015982
vt 0.668743 0.149492
vt 0.663234 0.158467
vt 0.630156 0.047111
vt 0.641458 0.058193
vt 0.505283 0.355317
vt 0.670465 0.165226
vt 0.661790 0.284826
vt 0.652405 0.297575
vt 0.022396 0.342305
vt 0.011600 0.327694
vt 0.001877 0.190228
vt 0.010199 0.182421
vt 0.162084 0.206151
vt 0.198821 0.402176
vt 0.191490 0.407625
vt 0.003856 0.172170
vt 0.175652 0.018938
vt 0.183362 0.025491
vt 0.034933 0.067618
vt 0.047873 0.054868
vt 0.209652 0.408048
vt 0.349553 0.116551
vt 0.355976 0.121847
vt 0.309175 0.365168
vt 0.297204 0.378834
vt 0.193476 0.015422
vt 0.354825 0.103717
vt 0.309389 0.001992
vt 0.324689 0.011784
vt 0.803513 0.704125
vt 0.648933 0.712834
vt 0.648933 0.469514
vt 0.803513 0.473695
vt 0.648933 0.451384
vt 0.803513 0.456522
vt 0.940152 0.691762
vt 0.940152 0.479857
vt 0.648932 0.359451
vt 0.803513 0.369882
vt 0.940152 0.464062
vt 0.940152 0.384761
vt 0.086077 0.703028
vt 0.092851 0.548447
vt 0.222970 0.548448
vt 0.223543 0.703028
vt 0.102402 0.411808
vt 0.222002 0.411809
vt 0.240076 0.548448
vt 0.241602 0.703028
vt 0.237736 0.411809
vt 0.339225 0.548448
vt 0.346153 0.703028
vt 0.329035 0.411809
vn -0.169299 0.425525 0.888969
vn -0.176230 0.347142 0.921105
vn -0.159541 0.351540 0.922478
vn -0.153463 0.431213 0.889103
vn -0.065952 0.370220 -0.926600
vn -0.063580 0.454609 -0.888419
vn -0.044855 0.457743 -0.887952
vn -0.046492 0.370797 -0.927549
vn 0.869620 0.483819 -0.098391
vn 0.910976 0.399074 -0.104220
vn 0.910440 0.397636 -0.113948
vn 0.866772 0.486986 -0.107473
vn -0.824084 0.519288 0.226331
vn -0.871603 0.428246 0.238564
vn -0.857630 0.426545 0.287281
vn -0.811578 0.516652 0.272786
vn 0.241991 0.370912 -0.896585
vn 0.231822 0.458834 -0.857747
vn 0.311118 0.468559 -0.826836
vn 0.326054 0.380919 -0.865211
vn 0.235318 0.514094 0.824823
vn 0.248693 0.424492 0.870608
vn 0.281983 0.427439 0.858942
vn 0.268003 0.513264 0.815313
vn 0.000000 1.000000 -0.000000
vn 0.000000 1.000000 -0.000000
vn 0.000000 1.000000 0.000000
vn 0.000000 1.000000 0.000000
vn 0.000000 1.000000 0.000000
vn 0.000000 1.000000 0.000000
vn -0.000000 1.000000 -0.000000
vn -0.818194 0.478714 -0.318420
vn -0.857392 0.392824 -0.332519
vn -0.865825 0.397029 -0.304492
vn -0.825117 0.483815 -0.291726
vn 0.853840 0.467067 -0.229794
vn 0.893412 0.379064 -0.241094
vn 0.871821 0.385991 -0.301563
vn 0.832644 0.473870 -0.286620
vn 0.000000 1.000000 -0.000000
vn 0.000000 1.000000 -0.000000
vn 0.000000 1.000000 -0.000000
vn 0.000000 1.000000 -0.000000
vn 0.000000 1.000000 -0.000000
vn -0.000000 -1.000000 0.000000
vn -0.000000 -1.000000 0.000000
vn -0.000000 -1.000000 0.000000
vn -0.000000 -1.000000 0.000000
vn -0.000000 -1.000000 0.000000
vn 0.000000 -1.000000 0.000000
vn -0.000000 -1.000000 0.000000
vn -0.000000 1.000000 -0.000000
vn 0.000000 1.000000 0.000000
vn -0.000000 1.000000 -0.000000
vn -0.000000 1.000000 -0.000000
vn -0.000000 1.000000 -0.000000
vn -0.000000 -1.000000 -0.000000
vn -0.000000 -1.000000 0.000000
vn -0.000000 -1.000000 0.000000
vn -0.000000 -1.000000 -0.000000
vn -0.000000 -1.000000 -0.000000
vn -0.000000 -1.000000 -0.000000
vn 0.000000 1.000000 0.000000
vn 0.000000 1.000000 0.000000
vn 0.000000 1.000000 0.000000
vn 0.000000 1.000000 0.000000
vn 0.000000 -1.000000 0.000000
vn 0.000000 -1.000000 0.000000
vn 0.000000 -1.000000 0.000000
vn 0.000000 -1.000000 0.000000
vn -0.000000 -1.000000 0.000000
vn -0.000000 -1.000000 0.000000
vn -0.000000 -1.000000 0.000000
vn -0.000000 -1.000000 0.000000
vn -0.595195 0.426703 0.680931
vn -0.595195 0.426703 0.680931
vn -0.561757 0.519388 0.643945
vn -0.562792 0.516834 0.645094
vn 0.730099 0.498121 0.467793
vn 0.730099 0.498121 0.467793
vn 0.678654 0.591581 0.435270
vn 0.678985 0.591047 0.435480
vn -0.504755 0.526265 -0.684301
vn -0.504498 0.526958 -0.683957
vn -0.534747 0.435148 -0.724356
vn -0.534747 0.435148 -0.724356
vn -0.763179 0.610923 0.210547
vn -0.751881 0.608495 0.253790
vn -0.769929 0.576106 -0.274428
vn -0.764447 0.571251 -0.298820
vn -0.466557 0.617599 -0.633163
vn -0.466557 0.617599 -0.633163
vn -0.060127 0.548045 -0.834285
vn -0.042652 0.548941 -0.834772
vn 0.218142 0.550548 -0.805798
vn 0.290117 0.562044 -0.774557
vn 0.779359 0.567260 -0.266113
vn 0.800807 0.559033 -0.214917
vn 0.810518 0.577201 -0.099499
vn 0.810591 0.578602 -0.090351
vn 0.617224 0.679660 0.396354
vn 0.617224 0.679660 0.396354
vn 0.217875 0.603152 0.767293
vn 0.248612 0.606709 0.755047
vn -0.145292 0.520119 0.841645
vn -0.159382 0.515394 0.842001
vn -0.520456 0.609526 0.597999
vn -0.520456 0.609526 0.597999
s 1
g pCube1
usemtl initialShadingGroup
f 58/79/1 4/80/2 25/81/3 57/82/4
s 2
f 13/91/5 47/92/6 48/93/7 24/94/8
f 54/1/9 8/2/10 37/3/11 53/4/12
s 4
f 44/19/13 36/20/14 3/21/15 43/22/16
s 2
f 22/98/17 49/97/18 50/100/19 18/101/20
s 1
f 56/84/21 27/83/22 7/87/23 55/88/24
s 5
f 2/37/25 29/38/26 28/39/27 10/40/28 9/41/29 42/42/30 41/43/31
s 4
f 46/30/32 14/31/33 34/24/34 45/23/35
s 2
f 52/8/36 39/7/37 17/12/38 51/13/39
s 5
f 6/44/40 5/45/41 30/46/42 29/38/26 2/37/25 32/47/43 31/48/44
s 6
f 14/58/45 13/59/46 24/60/47 23/61/48 1/62/49 35/63/50 34/64/51
s 5
f 21/50/52 20/51/53 2/37/25 41/43/31 40/49/54 16/52/55 15/53/56
s 6
f 27/76/57 26/71/58 1/62/49 38/67/59 37/75/60 8/77/61 7/78/62
s 5
f 33/54/63 32/47/43 2/37/25 20/51/53 19/55/64 12/56/65 11/57/66
s 6
f 36/70/67 35/63/50 1/62/49 26/71/58 25/72/68 4/73/69 3/74/70
f 39/66/71 38/67/59 1/62/49 23/61/48 22/65/72 18/68/73 17/69/74
s 8
f 3/21/75 4/25/76 58/26/77 43/22/78
s 9
f 7/5/79 8/2/80 54/1/81 55/6/82
s 10
f 46/30/83 47/34/84 13/35/85 14/31/86
s 2
f 50/15/19 51/13/39 17/12/38 18/16/20
f 48/93/7 49/97/18 22/98/17 24/94/8
s 1
f 25/81/3 27/83/22 56/84/21 57/82/4
s 4
f 44/19/13 45/23/35 34/24/34 36/20/14
s 2
f 37/3/11 39/7/37 52/8/36 53/4/12
s 5
f 19/55/64 20/51/53 21/50/52
s 6
f 22/65/72 23/61/48 24/60/47
f 25/72/68 26/71/58 27/76/57
s 5
f 28/39/27 29/38/26 30/46/42
f 31/48/44 32/47/43 33/54/63
s 6
f 34/64/51 35/63/50 36/70/67
f 37/75/60 38/67/59 39/66/71
s 5
f 40/49/54 41/43/31 42/42/30
s 4
f 31/27/87 44/19/13 43/22/16 6/28/88
f 31/27/87 33/29/89 45/23/35 44/19/13
f 11/33/90 46/30/32 45/23/35 33/29/89
s 10
f 11/33/91 12/36/92 47/34/84 46/30/83
s 2
f 48/93/7 47/92/6 12/95/93 19/96/94
f 19/96/94 21/99/95 49/97/18 48/93/7
f 50/100/19 49/97/18 21/99/95 15/102/96
f 15/18/96 16/17/97 51/13/39 50/15/19
f 40/14/98 52/8/36 51/13/39 16/17/97
f 53/4/12 52/8/36 40/14/98 42/10/99
f 9/9/100 54/1/9 53/4/12 42/10/99
s 9
f 55/6/82 54/1/81 9/9/101 10/11/102
s 1
f 28/89/103 56/84/21 55/88/24 10/90/104
f 57/82/4 56/84/21 28/89/103 30/86/105
f 5/85/106 58/79/1 57/82/4 30/86/105
s 8
f 43/22/78 58/26/77 5/32/107 6/28/108
