# This file uses centimeters as units for non-parametric coordinates.

mtllib rockyroad3.mtl
g default
v 0.011592 -0.073500 0.048936
v 0.021522 0.073500 0.039021
v -0.443528 -0.073500 0.490443
v -0.412854 -0.073500 0.513562
v -0.377659 0.073500 0.426262
v -0.350755 0.073500 0.446540
v 0.686117 -0.073500 0.489529
v 0.662128 -0.073500 0.519528
v 0.592101 0.073500 0.451772
v 0.613141 0.073500 0.425461
v -0.410684 0.073500 -0.385120
v -0.385636 0.073500 -0.407649
v -0.481182 -0.073500 -0.447911
v -0.452623 -0.073500 -0.473597
v 0.612098 0.073500 -0.499430
v 0.586202 0.073500 -0.520979
v 0.655402 -0.073500 -0.589539
v 0.684928 -0.073500 -0.564971
v 0.276660 0.073500 -0.597759
v 0.299974 0.073500 -0.610101
v 0.266307 0.073500 -0.611345
v 0.302482 -0.073500 -0.672177
v 0.290679 -0.073500 -0.687667
v 0.329064 -0.073500 -0.686249
v 0.462157 -0.073500 0.576334
v 0.493045 -0.073500 0.583923
v 0.455002 -0.073500 0.589225
v 0.416709 0.073500 0.501596
v 0.410433 0.073500 0.512903
v 0.443800 0.073500 0.508253
v -0.509251 0.073500 0.039021
v -0.522276 0.073500 0.021849
v -0.519800 0.073500 0.055447
v -0.593562 -0.073500 0.048936
v -0.605588 -0.073500 0.067664
v -0.608412 -0.073500 0.029358
v 0.793189 -0.073500 -0.258696
v 0.778277 -0.073500 -0.270953
v 0.788828 -0.073500 -0.296858
v 0.693974 0.073500 -0.241550
v 0.707053 0.073500 -0.230800
v 0.703228 0.073500 -0.264271
v 0.653160 0.010117 0.460595
v 0.754289 0.010117 -0.246098
v 0.750170 0.010117 -0.282142
v 0.652037 0.010117 -0.535372
v 0.624151 0.010117 -0.558577
v 0.315926 0.010117 -0.651859
v 0.279673 0.010117 -0.653199
v -0.422371 0.010117 -0.443814
v -0.449344 0.010117 -0.419554
v -0.569512 0.010117 0.025967
v -0.566845 0.010117 0.062147
v -0.413781 0.010117 0.461458
v -0.384809 0.010117 0.483294
v 0.434875 0.010117 0.554757
v 0.470806 0.010117 0.549750
v 0.630503 0.010117 0.488928
vt 0.944957 0.643876
vt 0.822364 0.653865
vt 0.822364 0.452939
vt 0.944957 0.457289
vt 0.822364 0.661921
vt 0.944957 0.651357
vt 0.660638 0.662092
vt 0.660638 0.449357
vt 0.822364 0.442691
vt 0.944957 0.447772
vt 0.660638 0.670621
vt 0.660638 0.438507
vt 0.822364 0.370693
vt 0.944957 0.380912
vt 0.660638 0.362278
vt 0.944957 0.374786
vt 0.822364 0.364096
vt 0.660638 0.355293
vt 0.152303 0.998008
vt 0.154208 0.875416
vt 0.267740 0.875416
vt 0.257733 0.998008
vt 0.142751 0.998008
vt 0.143921 0.875416
vt 0.155777 0.713689
vt 0.275981 0.713689
vt 0.273948 0.875416
vt 0.263498 0.998008
vt 0.027042 0.998008
vt 0.017252 0.875416
vt 0.144885 0.713689
vt 0.282554 0.713689
vt 0.020636 0.998008
vt 0.010354 0.875416
vt 0.009189 0.713689
vt 0.001886 0.713689
vt 0.505874 0.196901
vt 0.374356 0.084542
vt 0.372463 0.076840
vt 0.388521 0.034675
vt 0.396002 0.028693
vt 0.582589 0.001992
vt 0.585646 0.005711
vt 0.395774 0.310396
vt 0.390009 0.302747
vt 0.371141 0.086327
vt 0.505874 0.347810
vt 0.501204 0.350809
vt 0.592106 0.003080
vt 0.690432 0.117732
vt 0.686923 0.124361
vt 0.658966 0.028990
vt 0.665093 0.036352
vt 0.510757 0.351513
vt 0.690786 0.127304
vt 0.632871 0.312664
vt 0.626466 0.319786
vt 0.070053 0.364319
vt 0.062750 0.356200
vt 0.001886 0.144865
vt 0.006290 0.141509
vt 0.211316 0.224215
vt 0.211316 0.396271
vt 0.205750 0.400493
vt 0.002289 0.133952
vt 0.113000 0.003232
vt 0.120366 0.006232
vt 0.029786 0.041167
vt 0.036771 0.032773
vt 0.216641 0.399690
vt 0.361265 0.096111
vt 0.364930 0.098145
vt 0.343418 0.344893
vt 0.336845 0.353614
vt 0.123851 0.001992
vt 0.363423 0.087329
vt 0.336585 0.032435
vt 0.345114 0.039255
vt 0.364701 0.692254
vt 0.242109 0.701936
vt 0.242109 0.468885
vt 0.364701 0.475834
vt 0.080383 0.709910
vt 0.080383 0.463162
vt 0.242109 0.458669
vt 0.364701 0.466347
vt 0.080383 0.452346
vt 0.242109 0.413264
vt 0.364701 0.424182
vt 0.080383 0.404273
vt 0.493103 0.661723
vt 0.370510 0.651279
vt 0.370510 0.465919
vt 0.493103 0.462119
vt 0.370510 0.456347
vt 0.493103 0.451812
vt 0.654829 0.670325
vt 0.654829 0.458990
vt 0.370510 0.374968
vt 0.493103 0.364178
vt 0.654829 0.448077
vt 0.654829 0.355293
vn -0.073674 0.529599 0.845043
vn -0.078210 0.434907 0.897073
vn -0.069596 0.437745 0.896401
vn -0.066073 0.531964 0.844186
vn -0.255508 0.445791 -0.857896
vn -0.245506 0.540522 -0.804713
vn -0.233401 0.542094 -0.807253
vn -0.242205 0.447487 -0.860867
vn 0.809624 0.575400 0.115859
vn 0.869396 0.478196 0.124412
vn 0.869169 0.481313 0.113500
vn 0.809404 0.577579 0.106152
vn -0.758851 0.591949 0.271554
vn -0.817520 0.496188 0.292334
vn -0.812223 0.493315 0.311342
vn -0.753856 0.590083 0.288969
vn 0.230890 0.489564 -0.840843
vn 0.217247 0.584148 -0.782032
vn 0.264744 0.594580 -0.759200
vn 0.283931 0.497626 -0.819604
vn 0.253249 0.603105 0.756393
vn 0.274610 0.508836 0.815889
vn 0.306276 0.509390 0.804187
vn 0.282892 0.606827 0.742787
vn 0.000000 1.000000 0.000000
vn 0.000000 1.000000 0.000000
vn 0.000000 1.000000 0.000000
vn 0.000000 1.000000 0.000000
vn 0.000000 1.000000 0.000000
vn 0.000000 1.000000 0.000000
vn 0.000000 1.000000 0.000000
vn -0.784375 0.582480 -0.213242
vn -0.844360 0.485013 -0.227637
vn -0.847724 0.488516 -0.206680
vn -0.787391 0.585152 -0.193942
vn 0.739149 0.620966 -0.260883
vn 0.802074 0.525627 -0.283537
vn 0.770616 0.531703 -0.351344
vn 0.707902 0.628645 -0.321995
vn 0.000000 1.000000 -0.000000
vn 0.000000 1.000000 -0.000000
vn 0.000000 1.000000 -0.000000
vn 0.000000 1.000000 0.000000
vn 0.000000 1.000000 -0.000000
vn 0.000000 -1.000000 0.000000
vn 0.000000 -1.000000 0.000000
vn 0.000000 -1.000000 0.000000
vn 0.000000 -1.000000 0.000000
vn 0.000000 -1.000000 0.000000
vn 0.000000 -1.000000 0.000000
vn 0.000000 -1.000000 0.000000
vn 0.000000 1.000000 -0.000000
vn 0.000000 1.000000 0.000000
vn 0.000000 1.000000 -0.000000
vn 0.000000 1.000000 -0.000000
vn 0.000000 1.000000 -0.000000
vn 0.000000 -1.000000 0.000000
vn 0.000000 -1.000000 0.000000
vn 0.000000 -1.000000 0.000000
vn 0.000000 -1.000000 0.000000
vn 0.000000 -1.000000 0.000000
vn 0.000000 -1.000000 0.000000
vn 0.000000 1.000000 0.000000
vn 0.000000 1.000000 0.000000
vn 0.000000 1.000000 0.000000
vn 0.000000 1.000000 0.000000
vn 0.000000 -1.000000 0.000000
vn 0.000000 -1.000000 0.000000
vn 0.000000 -1.000000 0.000000
vn 0.000000 -1.000000 0.000000
vn 0.000000 -1.000000 0.000000
vn 0.000000 -1.000000 0.000000
vn 0.000000 -1.000000 0.000000
vn 0.000000 -1.000000 0.000000
vn -0.513297 0.522215 0.681042
vn -0.512798 0.523566 0.680380
vn -0.473103 0.618182 0.627713
vn -0.473103 0.618182 0.627713
vn 0.653642 0.547317 0.522681
vn 0.653233 0.548118 0.522354
vn 0.598228 0.642873 0.478370
vn 0.598228 0.642873 0.478370
vn -0.519184 0.630265 -0.577247
vn -0.519184 0.630265 -0.577247
vn -0.564784 0.535444 -0.627948
vn -0.565183 0.534501 -0.628392
vn 0.906357 0.402112 0.129701
vn 0.907024 0.404163 0.118148
vn 0.845039 0.443303 -0.298984
vn 0.812067 0.450664 -0.370741
vn 0.295945 0.419080 -0.858364
vn 0.239644 0.409171 -0.880426
vn -0.246996 0.373618 -0.894093
vn -0.260955 0.372237 -0.890697
vn -0.596500 0.452038 -0.663211
vn -0.596500 0.452038 -0.663211
vn -0.881731 0.408253 -0.236390
vn -0.886169 0.410657 -0.214628
vn -0.855965 0.416793 0.305954
vn -0.849504 0.415098 0.325632
vn -0.540286 0.440702 0.716850
vn -0.540285 0.440702 0.716850
vn -0.080925 0.363144 0.928212
vn -0.071717 0.365320 0.928115
vn 0.289182 0.427058 0.856735
vn 0.321289 0.430232 0.843607
vn 0.691804 0.464092 0.553197
vn 0.691804 0.464092 0.553197
s 1
g pCube3
usemtl initialShadingGroup
f 6/79/1 55/80/2 56/81/3 29/82/4
s 2
f 50/91/5 12/92/6 21/93/7 49/94/8
f 10/1/9 43/2/10 44/3/11 41/4/12
s 4
f 33/19/13 53/20/14 54/21/15 5/22/16
s 2
f 48/96/17 20/95/18 16/99/19 47/100/20
s 1
f 30/86/21 57/85/22 58/88/23 9/89/24
s 5
f 2/37/25 28/38/26 30/39/27 9/40/28 10/41/29 41/42/30 40/43/31
s 4
f 11/29/32 51/30/33 52/24/34 32/23/35
s 2
f 42/10/36 45/9/37 46/13/38 15/14/39
s 5
f 5/44/40 6/45/41 29/46/42 28/38/26 2/37/25 31/47/43 33/48/44
s 7
f 13/58/45 14/59/46 23/60/47 22/61/48 1/62/49 34/63/50 36/64/51
s 5
f 20/50/52 19/51/53 2/37/25 40/43/31 42/49/54 15/52/55 16/53/56
s 7
f 26/76/57 25/71/58 1/62/49 38/67/59 37/75/60 7/77/61 8/78/62
s 5
f 32/54/63 31/47/43 2/37/25 19/51/53 21/55/64 12/56/65 11/57/66
s 7
f 35/70/67 34/63/50 1/62/49 25/71/58 27/72/68 4/73/69 3/74/70
f 39/66/71 38/67/59 1/62/49 22/61/48 24/65/72 17/68/73 18/69/74
s 9
f 54/21/75 55/27/76 6/28/77 5/22/78
s 10
f 58/5/79 43/2/80 10/1/81 9/6/82
s 11
f 11/29/83 12/33/84 50/34/85 51/30/86
s 2
f 16/16/19 15/14/39 46/13/38 47/17/20
f 21/93/7 20/95/18 48/96/17 49/94/8
s 1
f 56/81/3 57/85/22 30/86/21 29/82/4
s 4
f 33/19/13 32/23/35 52/24/34 53/20/14
s 2
f 44/3/11 45/9/37 42/10/36 41/4/12
s 5
f 19/51/53 20/50/52 21/55/64
s 7
f 22/61/48 23/60/47 24/65/72
f 25/71/58 26/76/57 27/72/68
s 5
f 28/38/26 29/46/42 30/39/27
f 31/47/43 32/54/63 33/48/44
s 7
f 34/63/50 35/70/67 36/64/51
f 37/75/60 38/67/59 39/66/71
s 5
f 40/43/31 41/42/30 42/49/54
s 2
f 43/2/10 7/7/87 37/8/88 44/3/11
f 37/8/88 39/12/89 45/9/37 44/3/11
f 46/13/38 45/9/37 39/12/89 18/15/90
f 47/17/20 46/13/38 18/15/90 17/18/91
f 24/101/92 48/96/17 47/100/20 17/102/91
f 49/94/8 48/96/17 24/101/92 23/98/93
f 14/97/94 50/91/5 49/94/8 23/98/93
s 11
f 51/30/86 50/34/85 14/36/95 13/35/96
s 4
f 52/24/34 51/30/33 13/35/97 36/31/98
f 53/20/14 52/24/34 36/31/98 35/25/99
f 54/21/15 53/20/14 35/25/99 3/26/100
s 9
f 3/26/101 4/32/102 55/27/76 54/21/75
s 1
f 56/81/3 55/80/2 4/83/103 27/84/104
f 27/84/104 26/87/105 57/85/22 56/81/3
f 58/88/23 57/85/22 26/87/105 8/90/106
s 10
f 8/11/107 7/7/108 43/2/80 58/5/79
