# This file uses centimeters as units for non-parametric coordinates.

mtllib roofgh4.mtl
g default
v -5.619257 -3.869159 -0.252660
v -5.619257 -3.869159 -0.643630
v -5.619257 4.696062 -0.252660
v -5.619257 4.696062 -0.643630
v 5.211221 4.696062 -0.252660
v 5.211221 4.696062 -0.643630
v 5.211221 -3.869159 -0.252660
v 5.211221 -3.869159 -0.643630
v 5.211221 4.526730 -0.252660
v -5.619257 4.526730 -0.252660
v -5.619257 4.526730 -0.643630
v 5.211221 4.526730 -0.643630
v -5.619257 -3.730234 -0.252660
v 5.211221 -3.730234 -0.252660
v 5.211221 -3.730234 -0.643630
v -5.619257 -3.730234 -0.643630
v -5.451250 4.696062 -0.643630
v -5.451250 4.696062 -0.252660
v -5.451250 4.526730 -0.252660
v -5.451250 -3.730234 -0.252660
v -5.451250 -3.869159 -0.252660
v -5.451250 -3.869159 -0.643630
v -5.451250 -3.730234 -0.643630
v -5.451250 4.526730 -0.643630
v 5.060009 4.696062 -0.643630
v 5.060009 4.696062 -0.252660
v 5.060009 4.526730 -0.252660
v 5.060009 -3.730234 -0.252660
v 5.060009 -3.869159 -0.252660
v 5.060009 -3.869159 -0.643630
v 5.060009 -3.730234 -0.643630
v 5.060009 4.526730 -0.643630
v -5.451250 -3.730234 -0.307905
v 5.060009 4.526730 -0.307904
v -5.619257 2.512606 -0.643630
v -5.619257 2.512606 -0.252660
v -5.451250 2.512606 -0.252660
v 5.060009 2.512606 -0.252660
v 5.211221 2.512606 -0.252660
v 5.211221 2.512606 -0.643630
v 5.060009 2.512606 -0.643630
v 5.060009 2.512606 -0.307904
v -5.451250 2.512606 -0.307904
v -5.451250 2.512606 -0.643630
v -5.619257 2.327331 -0.643630
v -5.619257 2.327331 -0.252660
v -5.451250 2.327331 -0.252660
v 5.060009 2.327331 -0.252660
v 5.211221 2.327331 -0.252660
v 5.211221 2.327331 -0.643630
v 5.060009 2.327331 -0.643630
v 5.060009 2.327331 -0.307905
v -5.451250 2.327331 -0.307905
v -5.451250 2.327331 -0.643630
v -5.451250 4.394645 -0.643630
v -5.451250 4.461516 -0.307904
v -2.972310 2.512606 -0.307904
v -2.736645 2.327331 -0.307905
v 4.968362 -3.730233 -0.307905
v 4.883303 -3.730233 -0.643630
v -5.236980 4.526730 -0.643630
v -5.150961 4.526729 -0.307904
v -2.602324 2.512606 -0.307904
v -2.367879 2.327331 -0.307905
v 5.060009 -3.542754 -0.307905
v 5.060009 -3.610735 -0.643630
v -2.700380 2.522115 -0.643630
v -3.056375 2.511827 -0.643630
v -2.840320 2.332771 -0.642458
v -2.490873 2.344225 -0.642671
vt 0.454158 0.001964
vt 0.457849 0.001964
vt 0.457849 0.009772
vt 0.454158 0.009772
vt 0.454158 0.019730
vt 0.451279 0.009772
vt 0.457849 0.498285
vt 0.454158 0.498285
vt 0.410254 0.001964
vt 0.410254 0.009772
vt 0.457849 0.505313
vt 0.454158 0.505313
vt 0.410461 0.137620
vt 0.410237 0.121074
vt 0.406215 0.001964
vt 0.406215 0.009772
vt 0.410254 0.505313
vt 0.410254 0.498285
vt 0.406583 0.147356
vt 0.406334 0.131115
vt 0.274171 0.001964
vt 0.274171 0.009772
vt 0.406215 0.505313
vt 0.406215 0.498285
vt 0.276776 0.498285
vt 0.274171 0.490073
vt 0.271143 0.001964
vt 0.271143 0.009772
vt 0.274171 0.505313
vt 0.274171 0.498285
vt 0.271143 0.498285
vt 0.271143 0.505313
vt 0.647104 0.497505
vt 0.650795 0.497505
vt 0.650795 0.505313
vt 0.647104 0.505313
vt 0.647104 0.008992
vt 0.650795 0.008992
vt 0.603200 0.497505
vt 0.603200 0.505313
vt 0.647104 0.001964
vt 0.650795 0.001964
vt 0.603200 0.008992
vt 0.599161 0.497505
vt 0.599161 0.505313
vt 0.603200 0.001964
vt 0.599161 0.008992
vt 0.467117 0.497505
vt 0.467117 0.505313
vt 0.599161 0.001964
vt 0.467117 0.008992
vt 0.464088 0.497505
vt 0.464088 0.505313
vt 0.467117 0.001964
vt 0.464088 0.008992
vt 0.464088 0.001964
vt 0.604138 0.638650
vt 0.604138 0.983862
vt 0.476181 0.983862
vt 0.608177 0.983862
vt 0.608177 0.627753
vt 0.652081 0.509305
vt 0.652081 0.983862
vt 0.119124 0.805889
vt 0.119124 0.690680
vt 0.161607 0.690680
vt 0.789079 0.001964
vt 0.789079 0.128126
vt 0.657035 0.486218
vt 0.657035 0.001964
vt 0.001992 0.505313
vt 0.001992 0.497505
vt 0.129130 0.497505
vt 0.129130 0.505313
vt 0.001992 0.008992
vt 0.129130 0.008992
vt 0.001992 0.001964
vt 0.129130 0.001964
vt 0.136665 0.009772
vt 0.136665 0.001964
vt 0.263803 0.001964
vt 0.263803 0.009772
vt 0.136665 0.498285
vt 0.263803 0.498285
vt 0.136665 0.505313
vt 0.263803 0.505313
vt 0.882699 0.968765
vt 0.773526 0.968765
vt 0.773526 0.494208
vt 0.882699 0.490210
vt 0.904584 0.486218
vt 0.795410 0.486218
vt 0.795410 0.001964
vt 0.904584 0.005917
vt 0.167848 0.700003
vt 0.277021 0.700003
vt 0.277021 0.811305
vt 0.167848 0.815212
vt 0.998008 0.970511
vt 0.888834 0.974464
vt 0.888834 0.616372
vt 0.997627 0.611554
vt 0.888834 0.490210
vt 0.998008 0.490210
vt 0.767390 0.968765
vt 0.658217 0.964767
vt 0.658217 0.846319
vt 0.767390 0.850876
vt 0.658217 0.835423
vt 0.767079 0.841139
vt 0.658217 0.490210
vt 0.767390 0.490210
vt 0.284785 0.700003
vt 0.393959 0.703910
vt 0.393959 0.815213
vt 0.284785 0.815213
vt 0.342907 0.512996
vt 0.342907 0.509305
vt 0.470045 0.509305
vt 0.470045 0.512996
vt 0.342907 0.556900
vt 0.470045 0.556900
vt 0.342907 0.560939
vt 0.470045 0.560939
vt 0.342907 0.692983
vt 0.470045 0.692983
vt 0.342907 0.696012
vt 0.470045 0.696012
vt 0.209633 0.696012
vt 0.209633 0.692320
vt 0.336772 0.692320
vt 0.336772 0.696012
vt 0.209633 0.648416
vt 0.336772 0.648416
vt 0.209633 0.644377
vt 0.336772 0.644377
vt 0.209633 0.512333
vt 0.336772 0.512333
vt 0.209633 0.509305
vt 0.336772 0.509305
vt 0.111166 0.822724
vt 0.001992 0.822724
vt 0.001992 0.690680
vt 0.111166 0.690680
vt 0.094325 0.685206
vt 0.094325 0.557249
vt 0.203498 0.557249
vt 0.203498 0.686688
vt 0.203498 0.553210
vt 0.094325 0.553210
vt 0.094325 0.509305
vt 0.203498 0.509305
vt 0.444205 0.809177
vt 0.401722 0.809177
vt 0.401722 0.700003
vt 0.442747 0.700003
vn -1.000000 0.000000 -0.000000
vn -1.000000 0.000000 -0.000000
vn -1.000000 0.000000 -0.000000
vn -1.000000 0.000000 -0.000000
vn 0.000000 1.000000 0.000000
vn 0.000000 1.000000 0.000000
vn 0.000000 1.000000 0.000000
vn 0.000000 1.000000 0.000000
vn 1.000000 0.000000 0.000000
vn 1.000000 0.000000 0.000000
vn 1.000000 0.000000 0.000000
vn 1.000000 0.000000 0.000000
vn 0.000000 -1.000000 0.000000
vn 0.000000 -1.000000 0.000000
vn 0.000000 -1.000000 0.000000
vn 0.000000 -1.000000 0.000000
vn 0.000000 0.000000 -1.000000
vn 0.000000 0.000000 -1.000000
vn 0.000000 -0.000000 -1.000000
vn 0.000000 0.000000 -1.000000
vn -0.000000 0.000000 1.000000
vn -0.000000 0.000000 1.000000
vn -0.000000 0.000000 1.000000
vn -0.000000 0.000000 1.000000
vn -0.000000 0.000000 1.000000
vn -0.000000 0.000000 1.000000
vn -0.000000 0.000000 1.000000
vn -0.000000 0.000000 1.000000
vn -1.000000 0.000000 -0.000000
vn -1.000000 0.000000 -0.000000
vn -1.000000 0.000000 -0.000000
vn -1.000000 0.000000 -0.000000
vn 0.000000 0.000000 -1.000000
vn 0.000000 0.000000 -1.000000
vn 0.000000 0.000000 -1.000000
vn 0.000000 0.000000 -1.000000
vn 1.000000 0.000000 0.000000
vn 1.000000 0.000000 0.000000
vn 1.000000 0.000000 0.000000
vn 1.000000 0.000000 0.000000
vn -0.000000 0.000000 1.000000
vn -0.000000 0.000000 1.000000
vn 1.000000 0.000000 0.000000
vn 1.000000 0.000000 0.000000
vn 0.000000 0.000000 -1.000000
vn 0.000000 0.000000 -1.000000
vn -1.000000 0.000000 -0.000000
vn -1.000000 0.000000 -0.000000
vn 0.000000 1.000000 0.000000
vn 0.000000 1.000000 0.000000
vn -0.000000 0.000000 1.000000
vn -0.000000 0.000000 1.000000
vn -0.000000 0.000000 1.000000
vn -0.000000 0.000000 1.000000
vn -0.000000 0.000000 1.000000
vn 0.000000 -1.000000 0.000000
vn 0.000000 -1.000000 0.000000
vn 0.000000 0.000000 -1.000000
vn 0.000000 0.000000 -1.000000
vn 0.000000 0.000000 -1.000000
vn 0.000000 0.000000 -1.000000
vn 0.000000 0.000000 -1.000000
vn 0.000000 0.000000 -1.000000
vn 0.000000 -0.000000 -1.000000
vn 0.000000 -0.000000 -1.000000
vn 0.000000 -0.000000 -1.000000
vn 0.000000 1.000000 0.000000
vn 0.000000 1.000000 0.000000
vn -0.000000 0.000000 1.000000
vn -0.000000 0.000000 1.000000
vn -0.000000 0.000000 1.000000
vn -0.000000 0.000000 1.000000
vn -0.000000 0.000000 1.000000
vn 0.000000 -1.000000 0.000000
vn 0.000000 -1.000000 0.000000
vn 0.000000 0.000000 -1.000000
vn 0.000000 0.000000 -1.000000
vn 0.000000 0.000000 -1.000000
vn 0.000000 0.000000 -1.000000
vn 0.000000 0.000000 -1.000000
vn 0.000000 0.000000 -1.000000
vn 0.000000 0.000000 -1.000000
vn 1.000000 0.000000 0.000000
vn 1.000000 0.000000 0.000000
vn 1.000000 0.000000 0.000000
vn 1.000000 0.000000 0.000000
vn -1.000000 0.000000 -0.000000
vn -1.000000 0.000000 -0.000000
vn -1.000000 0.000000 -0.000000
vn -1.000000 0.000000 -0.000000
vn 0.000000 -1.000000 -0.000001
vn 0.000000 -1.000000 -0.000001
vn 0.000000 -1.000000 -0.000001
vn 0.000000 -1.000000 -0.000001
vn -1.000000 0.000000 -0.000000
vn -1.000000 0.000000 -0.000000
vn -0.000000 0.000000 1.000000
vn -0.000000 0.000000 1.000000
vn -0.000000 0.000000 1.000000
vn -0.000000 0.000000 1.000000
vn 1.000000 0.000000 0.000000
vn 1.000000 0.000000 0.000000
vn 0.000000 0.000000 -1.000000
vn 0.000000 0.000000 -1.000000
vn -1.000000 0.000000 -0.000000
vn -1.000000 0.000000 -0.000000
vn -1.000000 0.000000 -0.000000
vn -1.000000 0.000000 -0.000000
vn 0.000000 -0.000000 -1.000000
vn 0.000000 -0.000000 -1.000000
vn 0.000000 -0.000000 -1.000000
vn 0.000000 -0.000000 -1.000000
vn 0.000000 0.000000 -1.000000
vn 0.000000 0.000000 -1.000000
vn 0.000000 0.000000 -1.000000
vn 0.000000 0.000001 -1.000000
vn 0.000000 0.000001 -1.000000
vn 0.000000 0.000001 -1.000000
vn 0.000000 0.000001 -1.000000
vn -1.000000 0.000000 -0.000000
vn -1.000000 0.000000 -0.000000
vn -1.000000 0.000000 -0.000000
vn -1.000000 0.000000 -0.000000
vn 1.000000 0.000000 -0.000000
vn 1.000000 0.000000 -0.000000
vn 1.000000 0.000000 -0.000000
vn 1.000000 0.000000 -0.000000
vn 0.000000 0.000000 -1.000000
vn 0.000000 0.000000 -1.000000
vn 0.000000 0.000000 -1.000000
vn 0.000000 0.000000 -1.000000
vn 0.000000 0.000000 -1.000000
vn 0.000000 0.000000 -1.000000
vn 0.000000 0.000000 -1.000000
vn -0.000000 1.000000 0.000000
vn -0.000000 1.000000 0.000000
vn -0.000000 1.000000 0.000000
vn -0.000000 1.000000 0.000000
vn 0.000000 0.000000 -1.000000
vn 0.000000 0.000000 -1.000000
vn 0.000000 0.000000 -1.000000
vn 0.000000 0.000000 -1.000000
vn 0.000000 0.000000 -1.000000
vn 0.000000 0.000000 -1.000000
vn -0.000046 -0.002442 -0.999997
vn -0.000340 -0.000283 -1.000000
vn -0.000298 -0.001368 -0.999999
vn -0.000001 -0.000075 -1.000000
vn 0.000000 0.000000 -1.000000
vn 0.000000 0.000000 -1.000000
vn -0.000341 -0.000257 -1.000000
vn -0.000341 -0.000257 -1.000000
vn -0.610611 -0.776674 0.154700
vn -0.610611 -0.776674 0.154700
vn -0.610611 -0.776674 0.154700
vn -0.610611 -0.776674 0.154700
vn -0.609259 -0.775560 0.165257
vn -0.609259 -0.775560 0.165257
vn -0.609259 -0.775560 0.165257
vn -0.609259 -0.775560 0.165257
vn 0.612352 0.774860 -0.156899
vn 0.612352 0.774860 -0.156899
vn 0.612352 0.774860 -0.156899
vn 0.612352 0.774860 -0.156899
vn 0.623557 0.761806 -0.175581
vn 0.623557 0.761806 -0.175581
vn 0.623557 0.761806 -0.175581
vn 0.623557 0.761806 -0.175581
vn 0.610510 0.773347 -0.170915
vn 0.610510 0.773347 -0.170915
vn 0.610510 0.773347 -0.170915
vn 0.610510 0.773347 -0.170915
vn 0.000237 -0.003075 -0.999995
vn 0.000237 -0.003075 -0.999995
vn 0.000237 -0.003075 -0.999995
vn 0.000237 -0.003075 -0.999995
vn 0.001023 -0.999965 -0.008275
vn 0.001023 -0.999965 -0.008275
vn 0.001023 -0.999965 -0.008275
vn 0.001023 -0.999965 -0.008275
vn 0.000160 0.999999 -0.001180
vn 0.000160 0.999999 -0.001180
vn 0.000160 0.999999 -0.001180
vn 0.000160 0.999999 -0.001180
s 1
g pCube15
usemtl initialShadingGroup
f 10/117/1 3/118/2 4/119/3 11/120/4
s 2
f 3/71/5 18/72/6 17/73/7 4/74/8
s 3
f 5/129/9 9/130/10 12/131/11 6/132/12
s 4
f 21/79/13 1/80/14 2/81/15 22/82/16
s 5
f 11/1/17 4/2/18 17/3/19 24/4/20
s 6
f 19/33/21 18/34/22 3/35/23 10/36/24
f 21/52/25 20/48/26 13/49/27 1/53/28
s 1
f 1/127/29 13/125/30 16/126/31 2/128/32
s 5
f 2/27/33 16/21/34 23/22/35 22/28/36
s 3
f 14/137/37 7/139/38 8/140/39 15/138/40
s 6
f 20/48/26 47/44/41 46/45/42 13/49/27
s 3
f 49/135/43 14/137/37 15/138/40 50/136/44
s 5
f 16/21/34 45/15/45 54/16/46 23/22/35
s 1
f 13/125/30 46/123/47 45/124/48 16/126/31
s 2
f 18/72/6 26/75/49 25/76/50 17/73/7
s 6
f 27/37/51 26/38/52 18/34/22 19/33/21
f 28/51/53 48/47/54 47/44/41 20/48/26
f 29/55/55 28/51/53 20/48/26 21/52/25
s 4
f 29/83/56 21/79/13 22/82/16 30/84/57
s 5
f 60/26/58 31/30/59 30/31/60
s off
f 64/57/61 52/58/62 65/59/63
s 5
f 17/3/19 25/7/64 32/8/65 61/5/66
s 2
f 26/75/49 5/77/67 6/78/68 25/76/50
s 6
f 9/41/69 5/42/70 26/38/52 27/37/51
f 14/54/71 49/50/72 48/47/54 28/51/53
f 7/56/73 14/54/71 28/51/53 29/55/55
s 4
f 7/85/74 29/83/56 30/84/57 8/86/75
s 5
f 31/30/59 15/29/76 8/32/77 30/31/60
f 51/24/78 50/23/79 15/29/76 66/25/80
f 25/7/64 6/11/81 12/12/82 32/8/65
s off
f 54/141/83 53/142/84 33/143/85 23/144/86
f 65/145/87 52/146/88 51/147/89 66/148/90
f 32/87/91 34/88/92 62/89/93 61/90/94
s 1
f 36/121/95 10/117/1 11/120/4 35/122/96
s 6
f 37/39/97 19/33/21 10/36/24 36/40/98
f 38/43/99 27/37/51 19/33/21 37/39/97
f 39/46/100 9/41/69 27/37/51 38/43/99
s 3
f 9/130/10 39/133/101 40/134/102 12/131/11
s 5
f 32/8/65 12/12/82 40/17/103 41/18/104
s off
f 42/150/105 34/151/106 32/152/107 41/149/108
f 62/62/109 34/63/110 42/60/111 63/61/112
s 5
f 11/1/17 24/4/20 55/6/113
s 1
f 46/123/47 36/121/95 35/122/96 45/124/48
s 6
f 47/44/41 37/39/97 36/40/98 46/45/42
f 48/47/54 38/43/99 37/39/97 47/44/41
f 49/50/72 39/46/100 38/43/99 48/47/54
s 3
f 39/133/101 49/135/43 50/136/44 40/134/102
s 5
f 41/18/104 40/17/103 50/23/79 51/24/78
f 45/15/45 35/9/114 44/10/115 54/16/46
s off
f 42/60/116 52/58/117 64/57/118 63/61/119
f 41/149/120 51/147/121 52/146/122 42/150/123
s 5
f 35/9/114 11/1/17 55/6/113 44/10/115
s off
f 56/153/124 43/154/125 44/155/126 55/156/127
f 57/64/128 43/65/129 56/66/130
f 53/67/131 58/68/132 59/69/133 33/70/134
f 23/91/135 33/92/136 59/93/137 60/94/138
s 5
f 23/22/35 60/26/58 30/31/60 22/28/36
f 17/3/19 61/5/66 24/4/20
f 15/29/76 31/30/59 66/25/80
s off
f 61/5/139 55/6/140 24/4/141
f 60/26/142 66/25/143 31/30/144
s 14
f 67/13/145 70/19/146 69/20/147 68/14/148
f 61/5/149 67/13/145 68/14/148 55/6/150
f 70/19/146 66/25/151 60/26/152 69/20/147
s off
f 56/95/153 55/96/154 68/97/155 57/98/156
f 60/99/157 59/100/158 58/101/159 69/102/160
f 61/105/161 62/106/162 63/107/163 67/108/164
f 67/108/165 63/107/166 64/109/167 70/110/168
f 70/110/169 64/109/170 65/111/171 66/112/172
f 44/10/173 68/14/174 69/20/175 54/16/176
f 69/102/177 58/101/178 53/103/179 54/104/180
f 57/113/181 68/114/182 44/115/183 43/116/184
g default
v -5.451250 -3.730234 -0.346908
v -5.451250 2.512606 -0.346908
v -5.451250 2.327331 -0.346908
v -5.451250 4.461516 -0.346908
v -2.972310 2.512606 -0.346908
v -2.736645 2.327331 -0.346908
v 4.968362 -3.730234 -0.346908
v -5.451250 4.461516 -0.614172
v -2.972310 2.512606 -0.614172
v -5.451250 2.512606 -0.614172
v -5.451250 -3.730234 -0.614172
v -5.451250 2.327331 -0.614172
v 4.968362 -3.730234 -0.614172
v -2.736645 2.327331 -0.614172
vt 0.858144 0.414990
vt 0.858144 0.224281
vt 0.928467 0.224281
vt 0.220429 0.001992
vt 0.220429 0.210831
vt 0.001853 0.803587
vt 0.001853 0.001992
vt 0.782114 0.224281
vt 0.852437 0.414990
vt 0.782114 0.414990
vt 0.445440 0.803587
vt 0.226865 0.803587
vt 0.226865 0.001992
vt 0.445440 0.594749
vt 0.632541 0.807300
vt 0.776406 0.807300
vt 0.776406 0.998008
vt 0.632541 0.998008
vt 0.482969 0.807300
vt 0.626834 0.807300
vt 0.626834 0.998008
vt 0.482969 0.998008
vt 0.451695 0.001992
vt 0.595560 0.001992
vt 0.595560 0.803587
vt 0.451695 0.803587
vt 0.602187 0.001992
vt 0.746052 0.001992
vt 0.746052 0.594748
vt 0.602187 0.594748
vt 0.746052 0.803587
vt 0.602187 0.803587
vt 0.406938 0.951165
vt 0.406938 0.807300
vt 0.477261 0.807300
vt 0.477261 0.951165
vt 0.752678 0.001992
vt 0.896543 0.001992
vt 0.896543 0.220568
vt 0.752678 0.220568
vn 0.000000 0.000000 -1.000000
vn 0.000000 0.000000 -1.000000
vn 0.000000 0.000000 -1.000000
vn 0.000000 -0.000000 -1.000000
vn 0.000000 -0.000000 -1.000000
vn 0.000000 -0.000000 -1.000000
vn 0.000000 -0.000000 -1.000000
vn -0.000000 0.000000 1.000000
vn -0.000000 0.000000 1.000000
vn -0.000000 0.000000 1.000000
vn -0.000000 -0.000000 1.000000
vn -0.000000 -0.000000 1.000000
vn -0.000000 -0.000000 1.000000
vn -0.000000 -0.000000 1.000000
vn 0.618051 0.786138 0.000000
vn 0.618051 0.786138 0.000000
vn 0.618051 0.786138 0.000000
vn 0.618051 0.786138 0.000000
vn -1.000000 0.000000 -0.000000
vn -1.000000 0.000000 -0.000000
vn -1.000000 0.000000 -0.000000
vn -1.000000 0.000000 -0.000000
vn 0.000000 -1.000000 0.000000
vn 0.000000 -1.000000 0.000000
vn 0.000000 -1.000000 0.000000
vn 0.000000 -1.000000 0.000000
vn -1.000000 0.000000 -0.000000
vn -1.000000 0.000000 -0.000000
vn -1.000000 0.000000 -0.000000
vn -1.000000 0.000000 -0.000000
vn 0.000000 -1.000000 0.000000
vn 0.000000 -1.000000 0.000000
vn 0.000000 -1.000000 0.000000
vn 0.000000 -1.000000 0.000000
vn 0.618050 0.786139 0.000000
vn 0.618050 0.786139 0.000000
vn 0.618050 0.786139 0.000000
vn 0.618050 0.786139 0.000000
vn 0.000000 1.000000 0.000000
vn 0.000000 1.000000 0.000000
vn 0.000000 1.000000 0.000000
vn 0.000000 1.000000 0.000000
s off
g pCube17
usemtl lambert2SG
f 79/157/185 80/158/186 78/159/187
f 82/160/188 84/161/189 83/162/190 81/163/191
f 75/164/192 74/165/193 72/166/194
f 73/167/195 71/168/196 77/169/197 76/170/198
f 75/171/199 79/172/200 78/173/201 74/174/202
f 74/189/203 78/190/204 80/191/205 72/192/206
f 72/175/207 80/176/208 79/177/209 75/178/210
f 73/193/211 82/194/212 81/195/213 71/196/214
f 71/179/215 81/180/216 83/181/217 77/182/218
f 77/183/219 83/184/220 84/185/221 76/186/222
f 76/186/223 84/185/224 82/187/225 73/188/226
