# This file uses centimeters as units for non-parametric coordinates.

mtllib roofgh3.mtl
g default
v 3.461258 -3.730234 -0.346908
v 3.461258 2.327331 -0.346908
v 0.746653 2.327331 -0.346908
v -6.958355 -3.730234 -0.346908
v 3.461258 -3.730234 -0.614172
v 3.461258 2.327331 -0.614172
v -6.958355 -3.730234 -0.614172
v 0.746653 2.327331 -0.614172
v 3.461258 2.512606 -0.346908
v 3.461258 4.461516 -0.346908
v 0.982317 2.512606 -0.346908
v 3.461258 4.461516 -0.614172
v 0.982317 2.512606 -0.614172
v 3.461258 2.512606 -0.614172
vt 0.925990 0.431055
vt 0.925990 0.001836
vt 0.944928 0.001836
vt 0.944928 0.431055
vt 0.640467 0.882221
vt 0.640467 0.744127
vt 0.659405 0.744127
vt 0.659405 0.882221
vt 0.894255 0.001836
vt 0.894255 0.740136
vt 0.875318 0.740136
vt 0.875318 0.001836
vt 0.900654 0.194184
vt 0.900654 0.001836
vt 0.919591 0.001836
vt 0.919591 0.194184
vt 0.900654 0.740136
vt 0.919591 0.740136
vt 0.709550 0.744127
vt 0.709550 0.919777
vt 0.690613 0.919777
vt 0.690613 0.744127
vt 0.001992 0.001836
vt 0.431211 0.001836
vt 0.431211 0.740136
vt 0.001992 0.194184
vt 0.867972 0.001836
vt 0.867972 0.194184
vt 0.438752 0.740136
vt 0.438752 0.001836
vt 0.998008 0.919777
vt 0.859915 0.744127
vt 0.998008 0.744127
vt 0.715686 0.919777
vt 0.715686 0.744127
vt 0.853779 0.744127
vt 0.684478 0.744127
vt 0.684478 0.882221
vt 0.665540 0.882221
vt 0.665540 0.744127
vn 0.000000 0.000000 -1.000000
vn 0.000000 0.000000 -1.000000
vn 0.000000 0.000000 -1.000000
vn 0.000000 0.000000 -1.000000
vn 0.000000 0.000000 1.000000
vn 0.000000 0.000000 1.000000
vn 0.000000 0.000000 1.000000
vn 0.000000 0.000000 1.000000
vn 1.000000 0.000000 0.000000
vn 1.000000 0.000000 0.000000
vn 1.000000 0.000000 0.000000
vn 1.000000 0.000000 0.000000
vn 0.000000 -1.000000 0.000000
vn 0.000000 -1.000000 0.000000
vn 0.000000 -1.000000 0.000000
vn 0.000000 -1.000000 0.000000
vn -0.618051 0.786138 0.000000
vn -0.618051 0.786138 0.000000
vn -0.618051 0.786138 0.000000
vn -0.618051 0.786138 0.000000
vn 0.000000 1.000000 0.000000
vn 0.000000 1.000000 0.000000
vn 0.000000 1.000000 0.000000
vn 0.000000 1.000000 0.000000
vn 0.000000 0.000000 -1.000000
vn 0.000000 0.000000 -1.000000
vn 0.000000 0.000000 -1.000000
vn 0.000000 0.000000 1.000000
vn 0.000000 0.000000 1.000000
vn 0.000000 0.000000 1.000000
vn -0.618051 0.786138 0.000000
vn -0.618051 0.786138 0.000000
vn -0.618051 0.786138 0.000000
vn -0.618051 0.786138 0.000000
vn 1.000000 0.000000 0.000000
vn 1.000000 0.000000 0.000000
vn 1.000000 0.000000 0.000000
vn 1.000000 0.000000 0.000000
vn 0.000000 -1.000000 0.000000
vn 0.000000 -1.000000 0.000000
vn 0.000000 -1.000000 0.000000
vn 0.000000 -1.000000 0.000000
s off
g polySurface20
usemtl lambert2SG
f 6/23/1 5/24/2 7/25/3 8/26/4
f 2/27/5 3/28/6 4/29/7 1/30/8
f 2/1/9 1/2/10 5/3/11 6/4/12
f 1/9/13 4/10/14 7/11/15 5/12/16
f 4/17/17 3/13/18 8/16/19 7/18/20
f 3/13/21 2/14/22 6/15/23 8/16/24
f 13/31/25 12/32/26 14/33/27
f 11/34/28 9/35/29 10/36/30
f 11/37/31 10/38/32 12/39/33 13/40/34
f 10/5/35 9/6/36 14/7/37 12/8/38
f 9/19/39 11/20/40 13/21/41 14/22/42
g default
v 3.629265 -3.869159 -0.252660
v 3.629265 -3.869159 -0.643630
v 3.629265 4.696062 -0.252660
v 3.629265 4.696062 -0.643630
v -7.201214 -3.869159 -0.252660
v -7.201214 -3.869159 -0.643630
v 3.629265 4.526730 -0.252660
v 3.629265 4.526730 -0.643630
v 3.629265 -3.730234 -0.252660
v -7.201214 -3.730234 -0.252660
v -7.201214 -3.730234 -0.643630
v 3.629265 -3.730234 -0.643630
v 3.461258 4.696062 -0.643630
v 3.461258 4.696062 -0.252660
v 3.461258 4.526730 -0.252660
v 3.461258 -3.730234 -0.252660
v 3.461258 -3.869159 -0.252660
v 3.461258 -3.869159 -0.643630
v 3.461258 -3.730234 -0.643630
v 3.461258 4.526730 -0.643630
v -7.050003 -3.730234 -0.252660
v -7.050003 -3.869159 -0.252660
v -7.050003 -3.869159 -0.643630
v -7.050003 -3.730234 -0.643630
v 3.461258 -3.730234 -0.307905
v 3.629265 2.512606 -0.643630
v 3.629265 2.512606 -0.252660
v 3.461258 2.512606 -0.252660
v 3.461258 2.512606 -0.307904
v 3.461258 2.512606 -0.643630
v 3.629265 2.327331 -0.643630
v 3.629265 2.327331 -0.252660
v 3.461258 2.327331 -0.252660
v 3.461258 2.327331 -0.307905
v 3.461258 2.327331 -0.643630
v 3.461258 4.394645 -0.643630
v 3.461258 4.461516 -0.307904
v 0.982317 2.512606 -0.307904
v 0.746653 2.327331 -0.307905
v -6.688805 -3.626185 -0.307905
v -6.873297 -3.730233 -0.643630
v 3.246987 4.526730 -0.643630
v 3.254173 4.526730 -0.307904
v 0.675140 2.512606 -0.307904
v 0.440695 2.327331 -0.307905
v -7.050003 -3.599265 -0.307905
v -7.050003 -3.610734 -0.643630
v 0.710388 2.522115 -0.643630
v 1.066382 2.511827 -0.643630
v 0.850327 2.332771 -0.642458
v 0.500879 2.344224 -0.642671
vt 0.693817 0.894597
vt 0.711887 0.894597
vt 0.711887 0.902423
vt 0.693817 0.902423
vt 0.693817 0.801502
vt 0.711887 0.801502
vt 0.693817 0.792939
vt 0.711887 0.792939
vt 0.693817 0.512953
vt 0.711887 0.512953
vt 0.693817 0.506532
vt 0.711887 0.506532
vt 0.687681 0.512953
vt 0.669610 0.512953
vt 0.669610 0.506532
vt 0.687681 0.506532
vt 0.669610 0.518477
vt 0.685128 0.519007
vt 0.669655 0.793720
vt 0.685128 0.792939
vt 0.669610 0.801942
vt 0.685128 0.801502
vt 0.669610 0.894597
vt 0.685128 0.894597
vt 0.669610 0.902423
vt 0.687681 0.902423
vt 0.647958 0.786518
vt 0.647958 0.506532
vt 0.663475 0.506532
vt 0.663475 0.786518
vt 0.502301 0.596612
vt 0.486784 0.593521
vt 0.486784 0.506532
vt 0.502301 0.506532
vt 0.480648 0.506532
vt 0.480648 0.524603
vt 0.472883 0.524603
vt 0.472883 0.506532
vt 0.020063 0.009713
vt 0.001992 0.009713
vt 0.001992 0.001947
vt 0.020063 0.001947
vt 0.020063 0.495552
vt 0.001992 0.495552
vt 0.020063 0.502541
vt 0.001992 0.502541
vt 0.849907 0.001947
vt 0.849907 0.479619
vt 0.834390 0.471091
vt 0.834390 0.001947
vt 0.857831 0.122627
vt 0.857777 0.001947
vt 0.873294 0.001947
vt 0.873294 0.127419
vt 0.857777 0.479619
vt 0.873294 0.471091
vt 0.530089 0.621111
vt 0.530089 0.506532
vt 0.545607 0.506532
vt 0.545607 0.617225
vt 0.035350 0.001947
vt 0.035350 0.009713
vt 0.027523 0.009713
vt 0.027523 0.001947
vt 0.041455 0.009713
vt 0.035350 0.019617
vt 0.128444 0.001947
vt 0.128444 0.009713
vt 0.137008 0.001947
vt 0.137008 0.009713
vt 0.128480 0.120406
vt 0.128005 0.136860
vt 0.416993 0.001947
vt 0.416993 0.009713
vt 0.136756 0.130392
vt 0.136227 0.146544
vt 0.423415 0.001947
vt 0.423415 0.009713
vt 0.416993 0.487384
vt 0.411470 0.495552
vt 0.423415 0.495552
vt 0.416993 0.495552
vt 0.416993 0.502541
vt 0.423415 0.502541
vt 0.819021 0.009713
vt 0.819021 0.001947
vt 0.826848 0.001947
vt 0.826848 0.009713
vt 0.725927 0.009713
vt 0.725927 0.001947
vt 0.819021 0.019285
vt 0.717363 0.009713
vt 0.717363 0.001947
vt 0.725927 0.138489
vt 0.437378 0.009713
vt 0.437378 0.001947
vt 0.717363 0.149326
vt 0.430956 0.009713
vt 0.430956 0.001947
vt 0.443431 0.495552
vt 0.430956 0.495552
vt 0.437378 0.495552
vt 0.437378 0.502541
vt 0.430956 0.502541
vt 0.641822 0.621111
vt 0.551742 0.506532
vt 0.641822 0.506532
vt 0.718023 0.506532
vt 0.998008 0.506532
vt 0.993199 0.975676
vt 0.718023 0.632003
vt 0.508436 0.596648
vt 0.508436 0.506568
vt 0.523954 0.506532
vt 0.523954 0.593557
vn 1.000000 0.000000 0.000000
vn 1.000000 0.000000 0.000000
vn 1.000000 0.000000 0.000000
vn 1.000000 0.000000 0.000000
vn 0.000000 1.000000 0.000000
vn 0.000000 1.000000 0.000000
vn -0.397246 0.917704 0.003929
vn -0.375371 0.926867 0.003712
vn 0.000000 -1.000000 0.000000
vn 0.000000 -1.000000 0.000000
vn 0.000000 -1.000000 0.000000
vn 0.000000 -1.000000 0.000000
vn -0.000000 0.000000 -1.000000
vn 0.000000 0.000000 -1.000000
vn 0.000000 0.000000 -1.000000
vn 0.000000 0.000000 -1.000000
vn -0.034088 0.020944 0.999199
vn 0.000000 0.000000 1.000000
vn 0.000000 0.000000 1.000000
vn -0.069571 0.000000 0.997577
vn 0.000000 0.000000 1.000000
vn 0.000000 0.000000 1.000000
vn 0.000000 0.000000 1.000000
vn -0.007642 0.004836 0.999959
vn 1.000000 0.000000 0.000000
vn 1.000000 0.000000 0.000000
vn 1.000000 0.000000 0.000000
vn 1.000000 0.000000 0.000000
vn 0.000000 0.000000 -1.000000
vn 0.000000 0.000000 -1.000000
vn 0.000000 0.000000 -1.000000
vn 0.000000 0.000000 -1.000000
vn -0.896554 0.442879 -0.006990
vn -0.876359 0.481598 -0.007601
vn -1.000000 0.000000 0.000000
vn -1.000000 0.000000 0.000000
vn 0.000000 0.000000 1.000000
vn -0.008053 0.005036 0.999955
vn 0.000000 0.000000 -1.000000
vn 0.000000 0.000000 -1.000000
vn 1.000000 0.000000 0.000000
vn 1.000000 0.000000 0.000000
vn 0.000000 0.000000 1.000000
vn 0.000000 0.200531 0.979687
vn 0.000000 -1.000000 0.000000
vn 0.000000 -1.000000 0.000000
vn 0.000000 0.000000 -1.000000
vn -0.000000 0.000000 -1.000000
vn -0.000000 0.000000 -1.000000
vn 0.000000 0.000000 1.000000
vn 0.000000 0.368944 0.929452
vn 0.000000 -1.000000 0.000000
vn 0.000000 -1.000000 0.000000
vn 0.000000 0.000000 -1.000000
vn 0.000000 0.000000 -1.000000
vn -1.000000 0.000000 0.000000
vn -1.000000 0.000000 0.000000
vn -1.000000 0.000000 0.000000
vn -1.000000 0.000000 0.000000
vn 1.000000 0.000000 0.000000
vn 1.000000 0.000000 0.000000
vn -0.030961 0.019803 0.999324
vn 0.000000 0.000000 1.000000
vn -0.000000 0.000000 -1.000000
vn -0.000000 0.000000 -1.000000
vn -0.000000 0.000000 -1.000000
vn -1.000000 0.000000 0.000000
vn -1.000000 0.000000 0.000000
vn -1.000000 0.000000 0.000000
vn -1.000000 0.000000 0.000000
vn 0.000000 0.000000 -1.000000
vn 0.000000 0.000000 -1.000000
vn 0.000000 0.000000 -1.000000
vn 0.000000 0.000000 -1.000000
vn 0.000000 0.000000 -1.000000
vn 0.000000 0.000000 -1.000000
vn 0.000000 0.000000 -1.000000
vn 0.005018 0.987984 -0.154477
vn 0.005018 0.987984 -0.154477
vn 0.005018 0.987984 -0.154477
vn 0.005018 0.987984 -0.154477
vn 0.000000 0.000000 -1.000000
vn 0.000000 0.000000 -1.000000
vn 0.000000 0.000000 -1.000000
vn 0.000000 0.000000 -1.000000
vn 0.000000 0.000000 -1.000000
vn 0.000000 0.000000 -1.000000
vn 0.000000 0.000000 -1.000000
vn 0.000000 0.000000 -1.000000
vn 0.000027 -0.001440 -0.999999
vn 0.000003 -0.000157 -1.000000
vn 0.000319 -0.000829 -1.000000
vn 0.000339 -0.000312 -1.000000
vn 0.000000 0.000000 -1.000000
vn 0.000000 0.000000 -1.000000
vn 0.000341 -0.000257 -1.000000
vn 0.000341 -0.000257 -1.000000
vn 0.610611 -0.776675 0.154699
vn 0.610611 -0.776674 0.154699
vn 0.610611 -0.776674 0.154699
vn 0.610611 -0.776674 0.154699
vn 0.620690 -0.783017 0.040354
vn 0.620690 -0.783017 0.040354
vn 0.620690 -0.783017 0.040354
vn 0.620690 -0.783017 0.040354
vn -0.617690 0.786285 -0.014677
vn -0.617690 0.786285 -0.014677
vn -0.617690 0.786285 -0.014677
vn -0.617690 0.786285 -0.014677
vn -0.632118 0.772581 -0.059548
vn -0.632117 0.772581 -0.059548
vn -0.632118 0.772581 -0.059548
vn -0.632118 0.772581 -0.059548
vn -0.619104 0.783765 -0.049232
vn -0.619104 0.783765 -0.049232
vn -0.619104 0.783765 -0.049232
vn -0.619104 0.783765 -0.049232
vn -0.000237 -0.003075 -0.999995
vn -0.000237 -0.003075 -0.999995
vn -0.000237 -0.003075 -0.999995
vn -0.000237 -0.003075 -0.999995
vn -0.001023 -0.999965 -0.008275
vn -0.001023 -0.999965 -0.008275
vn -0.001023 -0.999965 -0.008275
vn -0.001023 -0.999965 -0.008275
vn -0.000160 0.999999 -0.001180
vn -0.000160 0.999999 -0.001180
vn -0.000160 0.999999 -0.001180
vn -0.000160 0.999999 -0.001180
vn -0.626956 0.779030 0.006201
vn -0.626956 0.779030 0.006201
vn -0.639120 0.769011 -0.012138
vn -0.639120 0.769011 -0.012138
vn -0.257758 0.000000 0.966210
vn -0.036878 0.023611 0.999041
vn -0.036878 0.023611 0.999041
vn -0.019023 0.012036 0.999747
vn -0.019023 0.012036 0.999747
vn -0.008116 0.005073 0.999954
vn -0.008116 0.005073 0.999954
vn 0.000000 0.388651 0.921385
s 1
g polySurface18 pCube22
usemtl initialShadingGroup
f 21/41/43 22/42/44 18/43/45 17/44/46
s 2
f 17/75/47 18/76/48 27/77/49 28/78/50
s 3
f 31/79/51 32/80/52 16/81/53 15/82/54
s 4
f 22/101/55 34/102/56 27/103/57 18/104/58
s 5
f 29/125/59 21/126/60 17/127/61 28/128/62
f 31/138/63 15/139/64 23/136/65 30/135/66
s 1
f 15/51/67 16/52/68 26/50/69 23/49/70
s 4
f 16/117/71 32/118/72 33/114/73 26/113/74
s 9
f 24/53/75 25/54/76 20/55/77 19/56/78
s 5
f 30/135/66 23/136/65 46/133/79 47/132/80
s 4
f 26/113/74 33/114/73 49/110/81 45/109/82
s 1
f 23/49/70 26/50/69 45/48/83 46/47/84
s 5
f 36/141/85 31/138/63 30/135/66 35/142/86
s 3
f 36/83/87 37/84/88 32/80/52 31/79/51
s 4
f 55/119/89 37/121/90 38/122/91
s 5
f 19/144/92 36/141/85 35/142/86 24/143/93
s 3
f 19/85/94 20/86/95 37/84/88 36/83/87
s 4
f 38/122/91 37/121/90 20/124/96 25/123/97
s off
f 49/67/98 33/68/99 39/69/100 48/70/101
s 1
f 41/45/102 40/46/103 22/42/44 21/41/43
s 5
f 42/129/104 41/130/105 21/126/60 29/125/59
s 4
f 22/101/55 50/105/106 34/102/56
s 1
f 46/47/84 45/48/83 40/46/103 41/45/102
s 5
f 47/132/80 46/133/79 41/130/105 42/129/104
s 4
f 45/109/82 49/110/81 44/108/107 40/107/108
f 40/107/108 44/108/107 50/105/106 22/101/55
s off
f 51/71/109 50/72/110 44/73/111 43/74/112
f 52/145/113 51/146/114 43/147/115
f 48/148/116 39/149/117 54/150/118 53/151/119
f 33/87/120 55/88/121 54/89/122 39/90/123
s 4
f 33/114/73 32/118/72 37/121/90 55/119/89
f 27/103/57 34/102/56 56/106/124
f 25/123/97 61/120/125 38/122/91
s off
f 56/106/126 34/102/127 50/105/128
f 55/119/129 38/122/130 61/120/131
s 10
f 62/112/132 63/111/133 64/115/134 65/116/135
f 56/106/136 50/105/137 63/111/133 62/112/132
f 65/116/135 64/115/134 55/119/138 61/120/139
s off
f 51/152/140 52/153/141 63/154/142 50/155/143
f 55/95/144 64/91/145 53/94/146 54/96/147
f 56/63/148 62/61/149 58/62/150 57/64/151
f 62/61/152 65/59/153 59/60/154 58/62/155
f 65/59/156 61/57/157 60/58/158 59/60/159
f 44/108/160 49/110/161 64/115/162 63/111/163
f 64/91/164 49/92/165 48/93/166 53/94/167
f 52/97/168 43/98/169 44/99/170 63/100/171
s 2
f 27/65/49 56/63/172 57/64/173 28/66/50
s 9
f 61/57/174 25/54/76 24/53/75 60/58/175
s 5
f 28/128/62 57/131/176 29/125/59
f 29/125/59 57/131/177 58/134/178 42/129/104
f 42/129/104 58/134/179 59/137/180 47/132/80
f 47/132/80 59/137/181 60/140/182 30/135/66
f 60/140/183 24/143/93 35/142/86 30/135/66
