# This file uses centimeters as units for non-parametric coordinates.

mtllib roof5.mtl
g default
v 4.365097 -3.429643 -0.322348
v -1.273538 -3.430119 0.268266
v -1.273538 -3.430119 -0.322355
v -1.265250 -3.558119 0.368596
v -1.265296 -3.558119 -0.322355
v 4.376271 -3.558518 -0.322349
v 4.361849 -3.558518 0.347357
v 4.365097 -3.429649 0.246791
v -4.301902 -3.558119 0.368540
v -4.301903 -3.558119 -0.322352
v 4.365000 3.585881 0.347136
v 4.365000 3.586203 0.246794
v -4.301903 -3.430119 0.268271
v -4.301903 -3.430119 -0.322352
vt 0.458763 0.903484
vt 0.489008 0.903484
vt 0.494353 0.910862
vt 0.458763 0.910862
vt 0.494341 0.501839
vt 0.489008 0.501821
vt 0.421788 0.903511
vt 0.453175 0.903511
vt 0.453175 0.910839
vt 0.416459 0.910839
vt 0.422929 0.501821
vt 0.417596 0.501839
vt 0.001814 0.175843
vt 0.001817 0.001992
vt 0.038533 0.001992
vt 0.038533 0.175840
vt 0.038533 0.498825
vt 0.002943 0.497999
vt 0.090181 0.175368
vt 0.058794 0.175368
vt 0.058794 0.001992
vt 0.090181 0.001992
vt 0.058794 0.498185
vt 0.089040 0.498185
vt 0.908963 0.997828
vt 0.499941 0.998008
vt 0.908941 0.501821
vt 0.908941 0.675671
vt 0.096097 0.498185
vt 0.096070 0.175368
vt 0.096070 0.001992
vt 0.497760 0.498180
vt 0.051944 0.001992
vt 0.051944 0.175368
vt 0.044616 0.175840
vt 0.044616 0.001992
vt 0.051971 0.498185
vt 0.044593 0.498825
vn -0.000000 -1.000000 -0.000000
vn -0.000000 -1.000000 -0.000000
vn -0.000000 -1.000000 -0.000000
vn -0.000000 -1.000000 -0.000000
vn 0.002445 0.001077 0.999996
vn 0.002445 0.001077 0.999996
vn 0.002445 0.001077 0.999996
vn 0.002445 0.001077 0.999996
vn -0.000071 -1.000000 -0.000001
vn -0.000071 -1.000000 -0.000001
vn -0.000071 -1.000000 -0.000001
vn -0.000071 -1.000000 -0.000001
vn 0.000000 1.000000 0.000000
vn 0.000000 1.000000 0.000000
vn 0.000000 1.000000 0.000000
vn 0.000000 1.000000 0.000000
vn -0.002478 -0.001069 -0.999996
vn -0.002478 -0.001069 -0.999996
vn -0.002478 -0.001069 -0.999996
vn -0.002478 -0.001069 -0.999996
vn -0.000084 1.000000 0.000005
vn -0.000084 1.000000 0.000005
vn -0.000084 1.000000 0.000005
vn -0.000084 1.000000 0.000005
vn -0.000001 -0.000000 -1.000000
vn 0.000000 0.000003 -1.000000
vn 0.000000 0.000003 -1.000000
vn -0.000001 -0.000000 -1.000000
vn 0.999310 0.035266 0.011633
vn 0.999310 0.035266 0.011633
vn 0.999310 0.035266 0.011633
vn 0.999310 0.035266 0.011633
vn 0.000001 0.000004 -1.000000
vn 0.000001 0.000004 -1.000000
vn 0.999872 -0.000215 0.016027
vn 0.999872 -0.000215 0.016027
vn 0.999872 -0.000215 0.016027
vn 0.999872 -0.000215 0.016027
vn -0.566163 0.694389 0.444167
vn -0.566163 0.694389 0.444167
vn -0.566163 0.694389 0.444167
vn -0.566163 0.694389 0.444167
vn -1.000000 -0.000002 0.000000
vn -1.000000 -0.000002 0.000000
vn -1.000000 -0.000002 0.000000
vn -1.000000 -0.000002 0.000000
s off
g polySurface17 polySurface9 pPlane3
usemtl initialShadingGroup
f 4/13/1 9/14/2 10/15/3 5/16/4
f 7/25/5 11/26/6 9/27/7 4/28/8
f 6/17/9 7/18/10 4/13/11 5/16/12
f 2/19/13 3/20/14 14/21/15 13/22/16
f 8/29/17 2/30/18 13/31/19 12/32/20
f 1/23/21 3/20/22 2/19/23 8/24/24
s 1
f 14/33/25 3/34/26 5/35/27 10/36/28
s off
f 1/1/29 8/2/30 7/3/31 6/4/32
s 1
f 3/34/26 1/37/33 6/38/34 5/35/27
s off
f 11/5/35 7/3/36 8/2/37 12/6/38
f 12/11/39 13/7/40 9/10/41 11/12/42
f 13/7/43 14/8/44 10/9/45 9/10/46
g default
v 4.365097 -3.429643 -0.322348
v -1.273538 -3.430119 0.268266
v -1.273538 -3.430119 -0.322355
v -1.265250 -3.558119 0.368596
v -1.265296 -3.558119 -0.322355
v 4.376271 -3.558518 -0.322349
v 4.361849 -3.558518 0.347357
v 4.365097 -3.429649 0.246791
v -4.301902 -3.558119 0.368540
v -4.301903 -3.558119 -0.322352
v 4.365000 3.585881 0.347136
v 4.365000 3.586203 0.246794
v -4.301903 -3.430119 0.268271
v -4.301903 -3.430119 -0.322352
vt 0.458763 0.903484
vt 0.489008 0.903484
vt 0.494353 0.910862
vt 0.458763 0.910862
vt 0.494341 0.501839
vt 0.489008 0.501821
vt 0.421788 0.903511
vt 0.453175 0.903511
vt 0.453175 0.910839
vt 0.416459 0.910839
vt 0.422929 0.501821
vt 0.417596 0.501839
vt 0.001814 0.175843
vt 0.001817 0.001992
vt 0.038533 0.001992
vt 0.038533 0.175840
vt 0.038533 0.498825
vt 0.002943 0.497999
vt 0.090181 0.175368
vt 0.058794 0.175368
vt 0.058794 0.001992
vt 0.090181 0.001992
vt 0.058794 0.498185
vt 0.089040 0.498185
vt 0.908963 0.997828
vt 0.499941 0.998008
vt 0.908941 0.501821
vt 0.908941 0.675671
vt 0.096097 0.498185
vt 0.096070 0.175368
vt 0.096070 0.001992
vt 0.497760 0.498180
vt 0.051944 0.001992
vt 0.051944 0.175368
vt 0.044616 0.175840
vt 0.044616 0.001992
vt 0.051971 0.498185
vt 0.044593 0.498825
vn -0.000000 -1.000000 -0.000000
vn -0.000000 -1.000000 -0.000000
vn -0.000000 -1.000000 -0.000000
vn -0.000000 -1.000000 -0.000000
vn 0.002445 0.001077 0.999996
vn 0.002445 0.001077 0.999996
vn 0.002445 0.001077 0.999996
vn 0.002445 0.001077 0.999996
vn -0.000071 -1.000000 -0.000001
vn -0.000071 -1.000000 -0.000001
vn -0.000071 -1.000000 -0.000001
vn -0.000071 -1.000000 -0.000001
vn 0.000000 1.000000 0.000000
vn 0.000000 1.000000 0.000000
vn 0.000000 1.000000 0.000000
vn 0.000000 1.000000 0.000000
vn -0.002478 -0.001069 -0.999996
vn -0.002478 -0.001069 -0.999996
vn -0.002478 -0.001069 -0.999996
vn -0.002478 -0.001069 -0.999996
vn -0.000084 1.000000 0.000005
vn -0.000084 1.000000 0.000005
vn -0.000084 1.000000 0.000005
vn -0.000084 1.000000 0.000005
vn -0.000001 -0.000000 -1.000000
vn 0.000000 0.000003 -1.000000
vn 0.000000 0.000003 -1.000000
vn -0.000001 -0.000000 -1.000000
vn 0.999310 0.035266 0.011633
vn 0.999310 0.035266 0.011633
vn 0.999310 0.035266 0.011633
vn 0.999310 0.035266 0.011633
vn 0.000001 0.000004 -1.000000
vn 0.000001 0.000004 -1.000000
vn 0.999872 -0.000215 0.016027
vn 0.999872 -0.000215 0.016027
vn 0.999872 -0.000215 0.016027
vn 0.999872 -0.000215 0.016027
vn -0.566163 0.694389 0.444167
vn -0.566163 0.694389 0.444167
vn -0.566163 0.694389 0.444167
vn -0.566163 0.694389 0.444167
vn -1.000000 -0.000002 0.000000
vn -1.000000 -0.000002 0.000000
vn -1.000000 -0.000002 0.000000
vn -1.000000 -0.000002 0.000000
s off
g polySurface17 polySurface9 pPlane3
f 18/51/47 23/52/48 24/53/49 19/54/50
f 21/63/51 25/64/52 23/65/53 18/66/54
f 20/55/55 21/56/56 18/51/57 19/54/58
f 16/57/59 17/58/60 28/59/61 27/60/62
f 22/67/63 16/68/64 27/69/65 26/70/66
f 15/61/67 17/58/68 16/57/69 22/62/70
s 1
f 28/71/71 17/72/72 19/73/73 24/74/74
s off
f 15/39/75 22/40/76 21/41/77 20/42/78
s 1
f 17/72/72 15/75/79 20/76/80 19/73/73
s off
f 25/43/81 21/41/82 22/40/83 26/44/84
f 26/49/85 27/45/86 23/48/87 25/50/88
f 27/45/89 28/46/90 24/47/91 23/48/92
