# This file uses centimeters as units for non-parametric coordinates.

mtllib roofgh1.mtl
g default
v -4.097523 -3.515310 5.547962
v -3.706553 -3.515310 5.547962
v -4.097523 -3.515310 -5.300889
v -3.706553 -3.515310 -5.300889
v -4.097523 -3.376385 5.547962
v -4.097523 -3.376385 -5.300889
v -3.706553 -3.376385 -5.300889
v -3.706553 -3.376385 5.547962
v -4.097523 -3.376385 5.390531
v -4.097523 -3.515310 5.390531
v -3.706553 -3.515310 5.390531
v -3.706553 -3.376385 5.390531
v -4.097523 -3.376385 -5.159198
v -4.097523 -3.515310 -5.159198
v -3.706553 -3.515310 -5.159198
v -3.706553 -3.376385 -5.159198
v -4.042278 -3.376385 5.390531
v -4.042278 -3.376385 -5.159198
v 6.096447 6.743837 5.547962
v 6.075688 7.134249 5.547962
v 6.075688 7.134249 5.390531
v 6.075688 7.134249 -5.159198
v 6.075688 7.134249 -5.300889
v 6.096447 6.743837 -5.300889
v 6.096447 6.743837 -5.159198
v 6.096447 6.743837 5.390531
v 5.911435 6.734003 5.547962
v 5.890676 7.124416 5.547962
v 5.890676 7.124416 5.390531
v 5.890676 7.124416 -5.159198
v 5.890676 7.124416 -5.300889
v 5.911435 6.734003 -5.300889
v 5.911435 6.734003 -5.159198
v 5.893606 7.069252 -5.159198
v 5.893606 7.069252 5.390531
v 5.911435 6.734003 5.390531
vt 0.019727 0.006386
vt 0.019727 0.001847
vt 0.023734 0.001847
vt 0.023734 0.006386
vt 0.326535 0.001847
vt 0.326535 0.006386
vt 0.019727 0.310598
vt 0.023734 0.310598
vt 0.326535 0.310598
vt 0.019727 0.314684
vt 0.023734 0.314684
vt 0.326535 0.314684
vt 0.333509 0.314684
vt 0.333509 0.310144
vt 0.337515 0.310144
vt 0.337515 0.314684
vt 0.333509 0.005932
vt 0.337515 0.005932
vt 0.629058 0.310144
vt 0.629058 0.314684
vt 0.333509 0.001847
vt 0.337515 0.001847
vt 0.629058 0.005932
vt 0.629058 0.001847
vt 0.365090 0.622888
vt 0.365090 0.318676
vt 0.374757 0.318676
vt 0.374757 0.622888
vt 0.670242 0.001847
vt 0.670242 0.005932
vt 0.658984 0.005932
vt 0.658984 0.001847
vt 0.658984 0.310144
vt 0.670242 0.310144
vt 0.658984 0.314684
vt 0.670242 0.314684
vt 0.001992 0.310144
vt 0.013266 0.310144
vt 0.013266 0.314684
vt 0.001992 0.314684
vt 0.001992 0.005932
vt 0.013266 0.005932
vt 0.001992 0.001846
vt 0.013266 0.001846
vt 0.390573 0.318676
vt 0.390573 0.622888
vt 0.380892 0.622888
vt 0.380892 0.318676
vt 0.635596 0.006386
vt 0.635596 0.001846
vt 0.640931 0.001846
vt 0.640931 0.006386
vt 0.635596 0.310598
vt 0.640931 0.310598
vt 0.635596 0.314684
vt 0.640931 0.314684
vt 0.652625 0.005932
vt 0.647290 0.005932
vt 0.647290 0.001846
vt 0.652625 0.001846
vt 0.652625 0.310144
vt 0.647290 0.310144
vt 0.647290 0.314684
vt 0.652625 0.314684
vt 0.676524 0.001847
vt 0.687799 0.001847
vt 0.687799 0.005853
vt 0.676524 0.005853
vt 0.965143 0.297396
vt 0.964544 0.308654
vt 0.970478 0.297679
vt 0.969879 0.308937
vt 0.704054 0.616014
vt 0.715328 0.616014
vt 0.715328 0.620020
vt 0.704054 0.620020
vt 0.992074 0.313212
vt 0.992673 0.324470
vt 0.997409 0.312929
vt 0.998008 0.324187
vt 0.358954 0.328343
vt 0.081610 0.619886
vt 0.071929 0.619886
vt 0.358440 0.318676
vt 0.011673 0.623878
vt 0.289017 0.915421
vt 0.288503 0.925088
vt 0.001992 0.623878
vt 0.697919 0.622888
vt 0.396709 0.622888
vt 0.396709 0.318676
vt 0.697919 0.318676
vn 0.000000 -1.000000 0.000000
vn 0.000000 -1.000000 0.000000
vn 0.000000 -1.000000 0.000000
vn 0.000000 -1.000000 0.000000
vn -1.000000 0.000000 0.000000
vn -1.000000 0.000000 0.000000
vn -0.729077 0.684432 0.000000
vn -0.729077 0.684432 0.000000
vn 0.000000 0.000000 1.000000
vn 0.000000 0.000000 1.000000
vn 0.000000 0.000000 1.000000
vn 0.000000 0.000000 1.000000
vn 1.000000 0.000000 0.000000
vn 1.000000 0.000000 0.000000
vn 0.897371 -0.441276 0.000000
vn 0.729209 -0.684292 0.000000
vn 0.000000 0.000000 -1.000000
vn 0.000000 0.000000 -1.000000
vn 0.000000 0.000000 -1.000000
vn 0.000000 0.000000 -1.000000
vn -0.718546 0.695479 0.000000
vn -0.718546 0.695479 0.000000
vn -0.000000 0.000000 -1.000000
vn -0.000000 0.000000 -1.000000
vn 0.718275 -0.695760 0.000000
vn 0.718275 -0.695760 0.000000
vn 0.000000 0.000000 1.000000
vn 0.000000 0.000000 1.000000
vn -0.729077 0.684432 0.000000
vn -0.718546 0.695479 0.000000
vn -1.000000 0.000000 0.000000
vn 0.000000 -1.000000 0.000000
vn 0.000000 -1.000000 0.000000
vn 1.000000 0.000000 0.000000
vn 0.906051 -0.423170 0.000000
vn 0.724565 -0.689206 0.000000
vn 0.724565 -0.689206 0.000000
vn 0.724565 -0.689206 0.000000
vn 0.724565 -0.689206 0.000000
vn -0.729077 0.684431 0.000000
vn -0.718547 0.695478 0.000000
vn -1.000000 0.000000 0.000000
vn 0.000000 -1.000000 0.000000
vn 0.000000 -1.000000 0.000000
vn 1.000000 0.000000 0.000000
vn 0.729208 -0.684292 0.000000
vn 0.718274 -0.695760 0.000000
vn 0.718274 -0.695760 0.000000
vn -0.000000 0.000000 -1.000000
vn -0.000000 0.000000 -1.000000
vn -0.000000 0.000000 -1.000000
vn -0.000000 0.000000 -1.000000
vn 0.000000 1.000000 0.000000
vn 0.000000 1.000000 0.000000
vn 0.000000 1.000000 0.000000
vn 0.000000 1.000000 0.000000
vn 0.000000 0.000000 1.000000
vn 0.000000 0.000000 1.000000
vn 0.000000 0.000000 1.000000
vn 0.000000 0.000000 1.000000
vn 0.000003 0.000000 1.000000
vn 0.000003 0.000000 1.000000
vn -0.053070 0.998591 0.000000
vn -0.053070 0.998591 0.000000
vn -0.053070 0.998591 0.000000
vn -0.053070 0.998591 0.000000
vn -0.000001 0.000000 -1.000000
vn -0.000001 0.000000 -1.000000
vn 0.053080 -0.998590 0.000000
vn 0.053080 -0.998590 0.000000
vn 0.053080 -0.998590 0.000000
vn 0.053080 -0.998590 0.000000
vn 0.053080 -0.998590 0.000000
vn 0.053080 -0.998590 0.000000
vn 0.053080 -0.998590 0.000000
vn 0.053080 -0.998590 0.000000
vn -0.998589 -0.053107 0.000000
vn -0.998589 -0.053107 0.000000
vn -0.998589 -0.053107 0.000000
vn -0.998589 -0.053107 0.000000
vn 0.998589 0.053099 0.000000
vn 0.998589 0.053099 0.000000
vn 0.998589 0.053099 0.000000
vn 0.998589 0.053099 0.000000
vn 0.998589 0.053097 0.000000
vn 0.998589 0.053097 0.000000
vn 0.998589 0.053097 0.000000
vn 0.998589 0.053097 0.000000
vn 0.998589 0.053097 0.000000
vn 0.998589 0.053097 0.000000
vn 0.998589 0.053097 0.000000
vn 0.998589 0.053097 0.000000
s 1
g polySurface11 pCube6
usemtl initialShadingGroup
f 10/37/1 11/38/2 2/39/3 1/40/4
s 2
f 10/1/5 1/2/6 5/3/7 9/4/8
s 3
f 1/65/9 2/66/10 8/67/11 5/68/12
s 4
f 2/13/13 11/14/14 12/15/15 8/16/16
s 5
f 6/73/17 7/74/18 4/75/19 3/76/20
s 2
f 9/4/8 5/3/7 28/5/21 29/6/22
s 5
f 31/77/23 32/78/24 7/74/18 6/73/17
s 4
f 8/16/16 12/15/15 36/19/25 27/20/26
s 3
f 5/68/12 8/67/11 27/69/27 28/70/28
s 2
f 13/8/29 9/4/8 29/6/22 30/9/30
f 14/7/31 10/1/5 9/4/8 13/8/29
s 1
f 14/41/32 15/42/33 11/38/2 10/37/1
s 4
f 12/15/15 11/14/14 15/17/34 16/18/35
s off
f 35/89/36 17/90/37 18/91/38 34/92/39
s 2
f 6/11/40 13/8/29 30/9/30 31/12/41
f 3/10/42 14/7/31 13/8/29 6/11/40
s 1
f 3/43/43 4/44/44 15/42/33 14/41/32
s 4
f 16/18/35 15/17/34 4/21/45 7/22/46
f 33/23/47 16/18/35 7/22/46 32/24/48
s off
f 36/81/49 12/82/50 17/83/51 35/84/52
f 12/45/53 16/46/54 18/47/55 17/48/56
f 16/85/57 33/86/58 34/87/59 18/88/60
s 3
f 28/70/28 27/69/27 19/71/61 20/72/62
s 2
f 29/49/22 28/50/21 20/51/63 21/52/64
f 30/53/30 29/49/22 21/52/64 22/54/65
f 31/55/41 30/53/30 22/54/65 23/56/66
s 5
f 23/79/67 24/80/68 32/78/24 31/77/23
s 4
f 25/57/69 33/58/47 32/59/48 24/60/70
f 27/63/26 36/62/25 26/61/71 19/64/72
s off
f 26/61/73 36/62/74 33/58/75 25/57/76
f 33/25/77 36/26/78 35/27/79 34/28/80
f 23/29/81 22/30/82 25/31/83 24/32/84
f 26/33/85 25/31/86 22/30/87 21/34/88
f 19/35/89 26/33/90 21/34/91 20/36/92
g default
v -4.058601 -3.376385 5.390530
v 5.892738 7.085550 5.390530
v -4.058601 -3.376385 -5.159198
v 5.892738 7.085550 -5.159198
v -3.765652 -3.376385 5.390530
v 5.908299 6.793018 5.390530
v -3.765652 -3.376385 -5.159198
v 5.908299 6.793018 -5.159198
vt 0.448892 0.001803
vt 0.448892 0.452453
vt 0.436396 0.452453
vt 0.436396 0.001803
vt 0.001992 0.452453
vt 0.001992 0.001803
vt 0.910399 0.452453
vt 0.910399 0.001803
vt 0.922913 0.001803
vt 0.922913 0.452453
vt 0.997343 0.903344
vt 0.572255 0.456444
vt 0.584769 0.456444
vt 0.998008 0.890848
vt 0.140366 0.903344
vt 0.565455 0.456444
vt 0.566119 0.468940
vt 0.152880 0.903344
vt 0.903193 0.001803
vt 0.903193 0.452453
vt 0.456293 0.452453
vt 0.456293 0.001803
vn 0.724536 -0.689237 0.000000
vn 0.724536 -0.689237 0.000000
vn 0.724536 -0.689237 0.000000
vn 0.724536 -0.689237 0.000000
vn -0.724567 0.689204 0.000000
vn -0.724567 0.689204 0.000000
vn -0.724567 0.689204 0.000000
vn -0.724567 0.689204 0.000000
vn -0.000001 0.000000 1.000000
vn -0.000001 0.000000 1.000000
vn -0.000001 0.000000 1.000000
vn -0.000001 0.000000 1.000000
vn 0.000000 -1.000000 0.000000
vn 0.000000 -1.000000 0.000000
vn 0.000000 -1.000000 0.000000
vn 0.000000 -1.000000 0.000000
vn 0.000000 0.000000 -1.000000
vn 0.000000 0.000000 -1.000000
vn 0.000000 0.000000 -1.000000
vn 0.000000 0.000000 -1.000000
vn 0.998588 0.053121 0.000000
vn 0.998588 0.053121 0.000000
vn 0.998588 0.053121 0.000000
vn 0.998588 0.053121 0.000000
s off
g pCube6 polySurface10
usemtl lambert2SG
f 42/95/93 41/97/94 43/98/95 44/96/96
f 38/111/97 40/112/98 39/113/99 37/114/100
f 38/103/101 37/104/102 41/105/103 42/106/104
f 37/99/105 39/100/106 43/101/107 41/102/108
f 39/107/109 40/108/110 44/109/111 43/110/112
f 40/93/113 38/94/114 42/95/115 44/96/116
