# This file uses centimeters as units for non-parametric coordinates.

mtllib smalltri.mtl
g default
v -1.041398 0.108780 1.081109
v -1.041398 0.108780 -2.118894
v 2.158602 0.108780 1.081109
v -1.041398 1.798327 1.081109
v -1.041398 1.798327 -2.118894
v 2.158602 1.798327 1.081109
v -1.241398 0.108780 1.281109
v -1.241398 0.108780 -2.601733
v 2.641446 0.108780 1.281109
v 2.641446 0.306410 1.281109
v -1.241398 0.306410 1.281109
v -1.241398 0.306410 -2.601736
v 2.158602 0.306411 1.081109
v -1.041398 0.306411 -2.118894
v -1.041398 0.306411 1.081109
v -1.341397 0.108780 1.381109
v -1.341397 0.108781 -2.843155
v -1.341397 0.306410 1.381109
v -1.341397 0.306411 -2.843155
v 2.882866 0.108781 1.381109
v 2.882866 0.306411 1.381109
v -1.241398 1.159650 1.281109
v -1.241398 1.045428 1.281109
v -1.241398 1.045428 -2.601737
v -1.241398 1.159650 -2.601737
v 2.641446 1.045428 1.281109
v 2.641446 1.159650 1.281109
v -1.191398 1.159650 1.231109
v -1.191398 1.045428 1.231109
v 2.520734 1.045428 1.231109
v 2.520734 1.159650 1.231109
v -1.191398 1.159650 -2.481025
v -1.191398 1.045428 -2.481025
v -1.177536 1.798327 1.217247
v -1.241398 1.734466 1.281109
v -1.177536 1.798327 -2.447562
v -1.241398 1.734466 -2.601737
v 2.487270 1.798327 1.217247
v 2.641444 1.734466 1.281109
vt 0.816772 0.001992
vt 0.913049 0.001992
vt 0.913049 0.112223
vt 0.816772 0.112224
vt 0.154628 0.834133
vt 0.081695 0.834133
vt 0.081695 0.001992
vt 0.154628 0.001992
vt 0.197714 0.837841
vt 0.261424 0.837841
vt 0.261424 0.922446
vt 0.197714 0.922446
vt 0.336981 0.001992
vt 0.425476 0.001992
vt 0.425476 0.414191
vt 0.336981 0.414191
vt 0.713351 0.322605
vt 0.711896 0.358225
vt 0.628369 0.358225
vt 0.624856 0.322605
vt 0.624856 0.001992
vt 0.713351 0.001992
vt 0.633736 0.378440
vt 0.633736 0.451373
vt 0.629177 0.455931
vt 0.629177 0.367435
vt 0.706668 0.451373
vt 0.717673 0.455931
vt 0.626898 0.458210
vt 0.626898 0.361933
vt 0.723175 0.458210
vt 0.001851 0.925075
vt 0.074783 0.925075
vt 0.001851 0.998008
vt 0.527201 0.420179
vt 0.527201 0.508674
vt 0.524922 0.514176
vt 0.524922 0.417899
vt 0.615696 0.420179
vt 0.621199 0.417899
vt 0.430727 0.417899
vt 0.519222 0.417899
vt 0.516471 0.419039
vt 0.431866 0.419039
vt 0.430727 0.506395
vt 0.431866 0.503644
vt 0.425027 0.506395
vt 0.336532 0.506395
vt 0.337672 0.505255
vt 0.422276 0.505255
vt 0.336532 0.417899
vt 0.337672 0.420651
vt 0.042183 0.840944
vt 0.042183 0.913877
vt 0.039080 0.921367
vt 0.039080 0.837841
vt 0.115115 0.840944
vt 0.122606 0.837841
vt 0.830851 0.115932
vt 0.927128 0.115932
vt 0.927128 0.226163
vt 0.830851 0.226163
vt 0.161359 0.001992
vt 0.234291 0.001992
vt 0.234291 0.834133
vt 0.161359 0.834133
vt 0.330832 0.502504
vt 0.267123 0.502504
vt 0.267123 0.417899
vt 0.330832 0.417899
vt 0.241022 0.001992
vt 0.329518 0.001992
vt 0.329518 0.414191
vt 0.241022 0.414191
vt 0.530353 0.358225
vt 0.528897 0.322605
vt 0.617393 0.322605
vt 0.613879 0.358225
vt 0.528897 0.001992
vt 0.617393 0.001992
vt 0.728875 0.361933
vt 0.825152 0.361933
vt 0.825152 0.472164
vt 0.728875 0.472165
vt 0.074783 0.834133
vt 0.001851 0.834133
vt 0.001851 0.001992
vt 0.074783 0.001992
vt 0.128306 0.837841
vt 0.192015 0.837841
vt 0.192015 0.922446
vt 0.128306 0.922446
vt 0.432939 0.001992
vt 0.521434 0.001992
vt 0.521434 0.414191
vt 0.432939 0.414191
vt 0.809309 0.322605
vt 0.805796 0.358225
vt 0.722269 0.358225
vt 0.720814 0.322605
vt 0.720814 0.001992
vt 0.809309 0.001992
vn -1.000000 0.000000 0.000000
vn -1.000000 0.000000 0.000000
vn -1.000000 0.000000 0.000000
vn -1.000000 0.000000 0.000000
vn -0.000000 -0.000000 1.000000
vn -0.000000 -0.000000 1.000000
vn -0.000000 -0.000000 1.000000
vn -0.000000 -0.000000 1.000000
vn 0.707107 0.000001 -0.707106
vn 0.707107 0.000001 -0.707107
vn 0.707107 0.000001 -0.707107
vn 0.707107 0.000001 -0.707107
vn 0.000000 -1.000000 -0.000000
vn 0.000000 -1.000000 0.000000
vn -0.000001 -1.000000 0.000001
vn 0.000001 -1.000000 -0.000002
vn 0.000000 -1.000000 0.000000
vn 0.000002 -1.000000 -0.000001
vn -0.707107 0.000000 0.707107
vn -0.707107 0.000000 0.707107
vn -0.707107 0.000000 0.707107
vn -0.707107 0.000000 0.707107
vn 1.000000 0.000000 0.000000
vn 1.000000 0.000000 0.000000
vn 1.000000 0.000000 0.000000
vn 1.000000 0.000000 0.000000
vn -0.000000 0.000000 -1.000000
vn -0.000000 0.000000 -1.000000
vn -0.000000 0.000000 -1.000000
vn -0.000000 0.000000 -1.000000
vn -0.000000 1.000000 0.000000
vn -0.000000 1.000000 0.000000
vn -0.000000 1.000000 0.000000
vn 0.000000 -1.000000 0.000000
vn 0.000000 -1.000000 0.000000
vn 0.000000 -1.000000 0.000000
vn -0.000001 -1.000000 0.000001
vn 0.000001 -1.000000 -0.000002
vn 0.000001 1.000000 -0.000001
vn -0.000001 1.000000 0.000002
vn -0.000001 1.000000 0.000002
vn 0.000001 1.000000 -0.000001
vn 0.000002 -1.000000 -0.000001
vn -0.000002 1.000000 0.000001
vn -0.000002 1.000000 0.000001
vn 0.000000 0.000000 1.000000
vn 0.000000 0.000000 1.000000
vn 0.000000 0.000000 1.000000
vn 0.000000 0.000000 1.000000
vn -1.000000 0.000000 0.000000
vn -1.000000 0.000000 0.000000
vn -1.000000 0.000000 0.000000
vn -1.000000 0.000000 0.000000
vn 0.707107 0.000000 -0.707107
vn 0.707107 0.000000 -0.707107
vn 0.707107 0.000000 -0.707107
vn 0.707107 0.000000 -0.707107
vn 0.000000 0.000000 1.000000
vn 0.000000 0.000000 1.000000
vn 0.000000 0.000000 1.000000
vn 0.000000 0.000000 1.000000
vn -1.000000 0.000000 0.000000
vn -1.000000 0.000000 0.000000
vn -1.000000 0.000000 0.000000
vn -1.000000 0.000000 0.000000
vn 0.707107 -0.000000 -0.707107
vn 0.707107 -0.000000 -0.707107
vn 0.707107 -0.000000 -0.707107
vn 0.707107 -0.000000 -0.707107
vn 0.000000 1.000000 -0.000000
vn 0.000000 1.000000 0.000000
vn 0.000000 1.000000 0.000000
vn 0.000000 1.000000 -0.000000
vn 0.000000 -1.000000 0.000000
vn 0.000000 -1.000000 -0.000000
vn 0.000000 -1.000000 -0.000000
vn 0.000000 -1.000000 0.000000
vn 0.000000 -1.000000 0.000000
vn 0.000000 -1.000000 0.000000
vn 0.000000 1.000000 0.000001
vn 0.000000 1.000000 0.000001
vn 0.000000 0.707107 0.707106
vn 0.000000 0.707107 0.707106
vn 0.000000 0.707107 0.707106
vn 0.000000 0.707107 0.707106
vn -0.707105 0.707108 0.000000
vn -0.707105 0.707108 0.000000
vn -0.707105 0.707108 0.000000
vn -0.707105 0.707108 0.000000
vn 0.500002 0.707104 -0.500002
vn 0.500002 0.707104 -0.500002
vn 0.500002 0.707104 -0.500002
vn 0.500002 0.707104 -0.500002
vn 0.000000 1.000000 -0.000000
vn 0.000000 1.000000 -0.000000
vn 0.000000 1.000000 -0.000000
vn 0.000000 1.000000 -0.000000
vn 0.000000 1.000000 -0.000000
vn 0.000000 1.000000 -0.000000
vn -1.000000 0.000000 0.000000
vn -1.000000 0.000000 0.000000
vn -1.000000 0.000000 0.000000
vn -1.000000 0.000000 0.000000
vn 0.707107 0.000001 -0.707107
vn 0.707107 0.000001 -0.707106
vn 0.707107 0.000001 -0.707107
vn 0.707107 0.000001 -0.707106
vn 0.000000 0.000000 1.000000
vn 0.000000 0.000000 1.000000
vn 0.000000 0.000000 1.000000
vn 0.000000 0.000000 1.000000
s off
g polySurface6 polySurface3 pasted__pCube1 group
usemtl initialShadingGroup
f 17/1/1 16/2/2 18/3/3 19/4/4
f 16/59/5 20/60/6 21/61/7 18/62/8
f 20/81/9 17/82/10 19/83/11 21/84/12
s 1
f 2/23/13 1/24/14 7/25/15 8/26/16
f 1/24/14 3/27/17 9/28/18 7/25/15
f 3/27/17 2/23/13 8/26/16 9/28/18
s off
f 6/85/19 5/86/20 14/87/21 13/88/22
f 5/5/23 4/6/24 15/7/25 14/8/26
f 4/63/27 6/64/28 13/65/29 15/66/30
f 15/32/31 13/33/32 14/34/33
f 2/23/34 3/27/35 1/24/36
s 1
f 8/26/16 7/25/15 16/29/37 17/30/38
s 2
f 11/35/39 12/36/40 19/37/41 18/38/42
s 1
f 7/25/15 9/28/18 20/31/43 16/29/37
s 2
f 10/39/44 11/35/39 18/38/42 21/40/45
s 1
f 9/28/18 8/26/16 17/30/38 20/31/43
s 2
f 12/36/40 10/39/44 21/40/45 19/37/41
s off
f 28/67/46 29/68/47 30/69/48 31/70/49
f 29/9/50 28/10/51 32/11/52 33/12/53
f 33/89/54 32/90/55 31/91/56 30/92/57
f 11/71/58 10/72/59 26/73/60 23/74/61
f 12/13/62 11/14/63 23/15/64 24/16/65
f 10/93/66 12/94/67 24/95/68 26/96/69
s 3
f 23/41/70 26/42/71 30/43/72 29/44/73
s 4
f 27/47/74 22/48/75 28/49/76 31/50/77
f 22/48/75 25/51/78 32/52/79 28/49/76
s 3
f 24/45/80 23/41/70 29/44/73 33/46/81
s 4
f 25/51/78 27/47/74 31/50/77 32/52/79
s 3
f 26/42/71 24/45/80 33/46/81 30/43/72
s off
f 34/75/82 35/76/83 39/77/84 38/78/85
f 35/17/86 34/18/87 36/19/88 37/20/89
f 37/97/90 36/98/91 38/99/92 39/100/93
s 5
f 4/53/94 5/54/95 36/55/96 34/56/97
f 6/57/98 4/53/94 34/56/97 38/58/99
f 5/54/95 6/57/98 38/58/99 36/55/96
s off
f 25/21/100 22/22/101 35/17/102 37/20/103
f 27/101/104 25/102/105 37/97/106 39/100/107
f 22/79/108 27/80/109 39/77/110 35/76/111
