# This file uses centimeters as units for non-parametric coordinates.

mtllib Aries.mtl
g default
v -1.988770 3.102899 -9.343094
v -2.062219 3.084552 -9.355066
v -2.074404 3.038487 -9.320148
v -2.029892 3.038487 -9.363729
v -2.107113 3.142707 -9.311384
v -2.114526 3.066957 -9.341051
v -1.988770 2.974076 -9.343094
v -2.062219 2.992423 -9.355066
v -2.180253 3.038487 -9.291786
v -2.114526 3.010018 -9.341051
v -2.074755 3.084552 -9.401852
v -2.017132 3.102899 -9.448944
v -2.102766 3.038487 -9.425999
v -2.107113 2.934268 -9.311384
v -2.042428 3.038487 -9.410513
v -2.135475 3.142707 -9.417234
v -2.127062 3.066957 -9.387836
v -2.017132 2.974076 -9.448944
v -2.074755 2.992423 -9.401852
v -2.208615 3.038487 -9.397636
v -2.127062 3.010018 -9.387836
v -2.135475 2.934268 -9.417234
vt 0.090653 0.869992
vt 0.090799 0.870890
vt 0.090373 0.871039
vt 0.533822 0.890807
vt 0.533570 0.891594
vt 0.533290 0.890807
vt 0.809810 0.977177
vt 0.809277 0.977888
vt 0.809384 0.976614
vt 0.507550 0.900447
vt 0.506624 0.900810
vt 0.506276 0.900554
vt 0.533570 0.890020
vt 0.100417 0.870890
vt 0.100564 0.869992
vt 0.100844 0.871039
vt 0.266359 0.878938
vt 0.265556 0.878336
vt 0.266849 0.878683
vt 0.258246 0.896877
vt 0.259049 0.896274
vt 0.259540 0.896530
vt 0.091371 0.871043
vt 0.091947 0.870339
vt 0.091666 0.871385
vt 0.803073 0.976612
vt 0.803607 0.977323
vt 0.803181 0.977886
vt 0.556558 0.929195
vt 0.557027 0.929504
vt 0.556838 0.930241
vt 0.514405 0.900813
vt 0.513480 0.900450
vt 0.514753 0.900557
vt 0.796662 0.976613
vt 0.797404 0.977323
vt 0.797062 0.977886
vt 0.506624 0.901381
vt 0.507550 0.901741
vt 0.506276 0.901848
vt 0.556558 0.929195
vt 0.099270 0.870339
vt 0.099846 0.871043
vt 0.099550 0.871385
vt 0.265209 0.879630
vt 0.266206 0.879510
vt 0.266503 0.879976
vt 0.258896 0.895703
vt 0.257899 0.895583
vt 0.259193 0.895236
vt 0.790993 0.977176
vt 0.790251 0.977886
vt 0.790650 0.976613
vt 0.513480 0.901744
vt 0.514405 0.901385
vt 0.514753 0.901851
vt 0.534394 0.890807
vt 0.534864 0.891594
vt 0.091559 0.871785
vt 0.090265 0.871438
vt 0.534864 0.890020
vt 0.099658 0.871785
vt 0.100951 0.871438
vn 0.285546 -0.038511 0.957591
vn 0.343778 0.507822 0.789895
vn 0.288279 0.000001 0.957546
vn 0.699601 0.000003 0.714534
vn 0.329915 0.024188 0.943701
vn -0.251416 0.317095 0.914462
vn 0.285551 0.038517 0.957589
vn 0.343780 -0.507821 0.789895
vn 0.258819 0.000000 0.965926
vn -0.251412 -0.317092 0.914464
vn -0.097232 0.507809 -0.855965
vn -0.231503 -0.038509 -0.972072
vn -0.229109 0.000001 -0.973401
vn 0.329916 -0.024187 0.943701
vn 0.248584 -0.000002 -0.968610
vn -0.186121 0.024189 -0.982229
vn -0.674941 0.317083 -0.666268
vn -0.231506 0.038513 -0.972071
vn -0.097230 -0.507805 -0.855967
vn -0.258819 -0.000002 -0.965926
vn -0.674941 -0.317085 -0.666267
vn -0.186116 -0.024187 -0.982230
vn -0.252138 0.965330 0.067560
vn -0.252138 0.965330 0.067560
vn -0.252138 0.965330 0.067560
vn -0.252138 0.965330 0.067560
vn 0.852140 -0.470876 -0.228327
vn 0.852140 -0.470876 -0.228327
vn 0.852140 -0.470876 -0.228327
vn 0.852140 -0.470876 -0.228327
vn 0.703778 0.684935 -0.188574
vn 0.703778 0.684935 -0.188574
vn 0.703778 0.684935 -0.188574
vn 0.703778 0.684935 -0.188574
vn -0.965905 -0.006834 0.258808
vn -0.965905 -0.006834 0.258808
vn -0.965905 -0.006834 0.258808
vn -0.965905 -0.006834 0.258808
vn 0.852140 0.470877 -0.228327
vn 0.852140 0.470877 -0.228327
vn 0.852140 0.470877 -0.228327
vn 0.852140 0.470877 -0.228327
vn -0.252138 -0.965330 0.067560
vn -0.252138 -0.965330 0.067560
vn -0.252138 -0.965330 0.067560
vn -0.252138 -0.965330 0.067560
vn -0.337917 0.936811 0.090542
vn -0.337917 0.936811 0.090542
vn -0.337917 0.936811 0.090542
vn -0.337917 0.936811 0.090542
vn -0.337917 -0.936810 0.090543
vn -0.337917 -0.936810 0.090543
vn -0.337917 -0.936810 0.090543
vn -0.337917 -0.936810 0.090543
vn 0.703779 -0.684935 -0.188574
vn 0.703779 -0.684935 -0.188574
vn 0.703779 -0.684935 -0.188574
vn 0.703779 -0.684935 -0.188574
vn -0.965904 0.006833 0.258809
vn -0.965904 0.006833 0.258809
vn -0.965905 0.006833 0.258809
vn -0.965904 0.006833 0.258809
s 1
g polySurface348 polySurface288
usemtl initialShadingGroup
f 1/1/1 2/2/2 3/3/3
f 4/4/4 1/5/1 3/6/3
f 2/7/2 5/8/5 3/9/3
f 5/10/5 6/11/6 3/12/3
f 7/13/7 4/4/4 3/6/3
f 8/14/8 7/15/7 3/16/3
f 6/17/6 9/18/9 3/19/3
f 9/20/9 10/21/10 3/22/3
s 2
f 11/23/11 12/24/12 13/25/13
s 1
f 14/26/14 8/27/8 3/28/3
s 2
f 12/29/12 15/30/15 13/31/13
s 1
f 10/32/10 14/33/14 3/34/3
s 2
f 16/35/16 11/36/11 13/37/13
f 17/38/17 16/39/16 13/40/13
f 15/30/15 18/41/18 13/31/13
f 18/42/18 19/43/19 13/44/13
f 20/45/20 17/46/17 13/47/13
f 21/48/21 20/49/20 13/50/13
f 19/51/19 22/52/22 13/53/13
f 22/54/22 21/55/21 13/56/13
s off
f 12/24/23 11/23/24 2/2/25 1/1/26
f 15/57/27 12/58/28 1/5/29 4/4/30
f 11/23/31 16/59/32 5/60/33 2/2/34
f 16/39/35 17/38/36 6/11/37 5/10/38
f 18/61/39 15/57/40 4/4/41 7/13/42
f 19/43/43 18/42/44 7/15/45 8/14/46
f 17/46/47 20/45/48 9/18/49 6/17/50
f 20/49/51 21/48/52 10/21/53 9/20/54
f 22/62/55 19/43/56 8/14/57 14/63/58
f 21/55/59 22/54/60 14/33/61 10/32/62
g default
v -3.065630 4.825079 -9.056675
v -3.136330 4.807419 -9.068197
v -3.148058 4.763079 -9.034588
v -3.105213 4.763079 -9.076536
v -3.179543 4.863397 -9.026152
v -3.186679 4.790483 -9.054707
v -3.065630 4.701078 -9.056675
v -3.136330 4.718739 -9.068197
v -3.249945 4.763079 -9.007288
v -3.186679 4.735675 -9.054707
v -3.148396 4.807419 -9.113232
v -3.092931 4.825079 -9.158562
v -3.175359 4.763079 -9.136475
v -3.179543 4.662760 -9.026152
v -3.117279 4.763079 -9.121569
v -3.206843 4.863397 -9.128038
v -3.198746 4.790483 -9.099741
v -3.092931 4.701078 -9.158562
v -3.148396 4.718739 -9.113232
v -3.277246 4.763079 -9.109175
v -3.198746 4.735675 -9.099741
v -3.206843 4.662760 -9.128038
vt 0.789392 0.940347
vt 0.789533 0.941211
vt 0.789122 0.941354
vt 0.777254 0.957127
vt 0.777011 0.957885
vt 0.776741 0.957127
vt 0.529816 0.916069
vt 0.529302 0.916753
vt 0.529405 0.915527
vt 0.867684 0.961563
vt 0.866793 0.961912
vt 0.866458 0.961666
vt 0.777011 0.956369
vt 0.799128 0.941211
vt 0.799269 0.940347
vt 0.799539 0.941354
vt 0.422213 0.869898
vt 0.421633 0.870671
vt 0.421967 0.869426
vt 0.432217 0.870672
vt 0.431637 0.869899
vt 0.431883 0.869427
vt 0.790083 0.941358
vt 0.790637 0.940680
vt 0.790368 0.941688
vt 0.523118 0.915529
vt 0.523632 0.916213
vt 0.523222 0.916755
vt 0.238479 0.941280
vt 0.238932 0.941578
vt 0.238749 0.942287
vt 0.874553 0.961912
vt 0.873662 0.961563
vt 0.874888 0.961666
vt 0.516735 0.915529
vt 0.517449 0.916213
vt 0.517120 0.916755
vt 0.866793 0.962463
vt 0.867684 0.962808
vt 0.866458 0.962911
vt 0.238479 0.941280
vt 0.798024 0.940680
vt 0.798578 0.941358
vt 0.798294 0.941688
vt 0.422878 0.871005
vt 0.422763 0.870046
vt 0.423212 0.869760
vt 0.431087 0.870046
vt 0.430971 0.871006
vt 0.430638 0.869761
vt 0.511066 0.916071
vt 0.510351 0.916755
vt 0.510736 0.915529
vt 0.873662 0.962808
vt 0.874553 0.962463
vt 0.874888 0.962911
vt 0.777804 0.957127
vt 0.778256 0.957885
vt 0.790264 0.942073
vt 0.789019 0.941739
vt 0.778256 0.956369
vt 0.798397 0.942073
vt 0.799642 0.941739
vn 0.285570 -0.038509 0.957584
vn 0.343783 0.507805 0.789903
vn 0.288285 -0.000001 0.957545
vn 0.699600 -0.000001 0.714535
vn 0.329909 0.024185 0.943703
vn -0.251389 0.317081 0.914474
vn 0.285568 0.038508 0.957585
vn 0.343784 -0.507808 0.789901
vn 0.258818 -0.000002 0.965926
vn -0.251388 -0.317082 0.914474
vn -0.097226 0.507815 -0.855962
vn -0.231517 -0.038509 -0.972068
vn -0.229107 0.000001 -0.973401
vn 0.329906 -0.024184 0.943704
vn 0.248572 0.000004 -0.968613
vn -0.186109 0.024186 -0.982231
vn -0.674939 0.317082 -0.666270
vn -0.231516 0.038516 -0.972068
vn -0.097229 -0.507812 -0.855964
vn -0.258813 -0.000001 -0.965928
vn -0.674937 -0.317085 -0.666271
vn -0.186109 -0.024188 -0.982231
vn -0.252142 0.965329 0.067558
vn -0.252142 0.965329 0.067558
vn -0.252142 0.965329 0.067558
vn -0.252142 0.965329 0.067558
vn 0.852135 -0.470884 -0.228330
vn 0.852135 -0.470884 -0.228330
vn 0.852135 -0.470884 -0.228330
vn 0.852135 -0.470884 -0.228330
vn 0.703784 0.684930 -0.188573
vn 0.703784 0.684930 -0.188573
vn 0.703784 0.684930 -0.188573
vn 0.703784 0.684930 -0.188573
vn -0.965904 -0.006825 0.258810
vn -0.965904 -0.006825 0.258810
vn -0.965904 -0.006825 0.258810
vn -0.965904 -0.006825 0.258810
vn 0.852134 0.470886 -0.228328
vn 0.852134 0.470886 -0.228328
vn 0.852134 0.470886 -0.228328
vn 0.852134 0.470886 -0.228328
vn -0.252141 -0.965329 0.067560
vn -0.252141 -0.965329 0.067560
vn -0.252141 -0.965329 0.067560
vn -0.252141 -0.965329 0.067560
vn -0.337918 0.936810 0.090548
vn -0.337918 0.936810 0.090548
vn -0.337918 0.936810 0.090548
vn -0.337918 0.936810 0.090548
vn -0.337919 -0.936810 0.090547
vn -0.337919 -0.936810 0.090547
vn -0.337919 -0.936809 0.090547
vn -0.337919 -0.936810 0.090547
vn 0.703782 -0.684931 -0.188574
vn 0.703782 -0.684931 -0.188574
vn 0.703782 -0.684931 -0.188574
vn 0.703782 -0.684931 -0.188574
vn -0.965903 0.006828 0.258813
vn -0.965903 0.006828 0.258813
vn -0.965903 0.006828 0.258813
vn -0.965903 0.006828 0.258813
s 1
g polySurface288 polySurface408
usemtl initialShadingGroup
f 23/64/63 24/65/64 25/66/65
f 26/67/66 23/68/63 25/69/65
f 24/70/64 27/71/67 25/72/65
f 27/73/67 28/74/68 25/75/65
f 29/76/69 26/67/66 25/69/65
f 30/77/70 29/78/69 25/79/65
f 28/80/68 31/81/71 25/82/65
f 31/83/71 32/84/72 25/85/65
s 2
f 33/86/73 34/87/74 35/88/75
s 1
f 36/89/76 30/90/70 25/91/65
s 2
f 34/92/74 37/93/77 35/94/75
s 1
f 32/95/72 36/96/76 25/97/65
s 2
f 38/98/78 33/99/73 35/100/75
f 39/101/79 38/102/78 35/103/75
f 37/93/77 40/104/80 35/94/75
f 40/105/80 41/106/81 35/107/75
f 42/108/82 39/109/79 35/110/75
f 43/111/83 42/112/82 35/113/75
f 41/114/81 44/115/84 35/116/75
f 44/117/84 43/118/83 35/119/75
s off
f 34/87/85 33/86/86 24/65/87 23/64/88
f 37/120/89 34/121/90 23/68/91 26/67/92
f 33/86/93 38/122/94 27/123/95 24/65/96
f 38/102/97 39/101/98 28/74/99 27/73/100
f 40/124/101 37/120/102 26/67/103 29/76/104
f 41/106/105 40/105/106 29/78/107 30/77/108
f 39/109/109 42/108/110 31/81/111 28/80/112
f 42/112/113 43/111/114 32/84/115 31/83/116
f 44/125/117 41/106/118 30/77/119 36/126/120
f 43/118/121 44/117/122 36/96/123 32/95/124
g default
v -1.855377 3.276945 -9.395651
v -1.907055 3.264036 -9.404074
v -1.915628 3.231626 -9.379507
v -1.884310 3.231626 -9.410170
v -1.938642 3.304954 -9.373341
v -1.943858 3.251657 -9.394213
v -1.855377 3.186307 -9.395651
v -1.907055 3.199215 -9.404074
v -1.990102 3.231626 -9.359550
v -1.943858 3.211595 -9.394213
v -1.915875 3.264036 -9.436991
v -1.875332 3.276945 -9.470125
v -1.935583 3.231626 -9.453981
v -1.938642 3.158298 -9.373341
v -1.893130 3.231626 -9.443087
v -1.958597 3.304954 -9.447815
v -1.952678 3.251657 -9.427130
v -1.875332 3.186307 -9.470125
v -1.915875 3.199215 -9.436991
v -2.010057 3.231626 -9.434025
v -1.952678 3.211595 -9.427130
v -1.958597 3.158298 -9.447815
vt 0.715557 0.978443
vt 0.715660 0.979074
vt 0.715360 0.979179
vt 0.809204 0.982130
vt 0.809027 0.982684
vt 0.808829 0.982130
vt 0.506652 0.930385
vt 0.506276 0.930885
vt 0.506351 0.929989
vt 0.157467 0.929289
vt 0.156815 0.929545
vt 0.156570 0.929365
vt 0.809027 0.981576
vt 0.709240 0.979077
vt 0.709343 0.978445
vt 0.709540 0.979181
vt 0.312587 0.914491
vt 0.312021 0.914067
vt 0.312932 0.914311
vt 0.319225 0.915223
vt 0.319790 0.914800
vt 0.320135 0.914979
vt 0.716062 0.979182
vt 0.716467 0.978687
vt 0.716270 0.979423
vt 0.513480 0.929989
vt 0.513855 0.930489
vt 0.513555 0.930885
vt 0.897016 0.982642
vt 0.897347 0.982859
vt 0.897214 0.983378
vt 0.150656 0.929545
vt 0.150005 0.929289
vt 0.150901 0.929365
vt 0.520683 0.929989
vt 0.521205 0.930489
vt 0.520965 0.930885
vt 0.156815 0.929947
vt 0.157467 0.930200
vt 0.156570 0.930275
vt 0.897016 0.982642
vt 0.708432 0.978689
vt 0.708837 0.979184
vt 0.708630 0.979425
vt 0.311778 0.914978
vt 0.312479 0.914893
vt 0.312688 0.915222
vt 0.319682 0.914397
vt 0.318981 0.914313
vt 0.319891 0.914069
vt 0.528409 0.930386
vt 0.527887 0.930886
vt 0.528168 0.929990
vt 0.150005 0.930200
vt 0.150656 0.929947
vt 0.150901 0.930275
vt 0.809606 0.982130
vt 0.809937 0.982684
vt 0.716195 0.979704
vt 0.715285 0.979460
vt 0.809937 0.981576
vt 0.708705 0.979706
vt 0.709615 0.979463
vn 0.285556 -0.038531 0.957587
vn 0.343771 0.507805 0.789909
vn 0.288294 0.000000 0.957542
vn 0.699595 -0.000000 0.714539
vn 0.329931 0.024187 0.943695
vn -0.251341 0.317091 0.914484
vn 0.285555 0.038529 0.957588
vn 0.343771 -0.507806 0.789908
vn 0.258849 -0.000002 0.965918
vn -0.251346 -0.317099 0.914480
vn -0.097199 0.507827 -0.855958
vn -0.231550 -0.038448 -0.972063
vn -0.229127 0.000001 -0.973397
vn 0.329933 -0.024182 0.943695
vn 0.248559 0.000003 -0.968617
vn -0.186115 0.024188 -0.982230
vn -0.674965 0.317093 -0.666239
vn -0.231552 0.038452 -0.972062
vn -0.097200 -0.507827 -0.855958
vn -0.258837 0.000001 -0.965921
vn -0.674962 -0.317092 -0.666242
vn -0.186113 -0.024189 -0.982231
vn -0.252136 0.965331 0.067561
vn -0.252136 0.965331 0.067561
vn -0.252136 0.965331 0.067561
vn -0.252136 0.965331 0.067561
vn 0.852136 -0.470881 -0.228331
vn 0.852136 -0.470881 -0.228331
vn 0.852136 -0.470881 -0.228331
vn 0.852136 -0.470881 -0.228331
vn 0.703781 0.684930 -0.188581
vn 0.703782 0.684930 -0.188581
vn 0.703782 0.684930 -0.188581
vn 0.703782 0.684930 -0.188581
vn -0.965902 -0.006825 0.258817
vn -0.965902 -0.006825 0.258817
vn -0.965902 -0.006825 0.258817
vn -0.965902 -0.006825 0.258817
vn 0.852136 0.470881 -0.228331
vn 0.852136 0.470881 -0.228331
vn 0.852136 0.470881 -0.228331
vn 0.852136 0.470881 -0.228331
vn -0.252135 -0.965331 0.067557
vn -0.252135 -0.965331 0.067557
vn -0.252135 -0.965331 0.067557
vn -0.252135 -0.965331 0.067557
vn -0.337913 0.936812 0.090539
vn -0.337913 0.936812 0.090539
vn -0.337913 0.936812 0.090539
vn -0.337913 0.936812 0.090539
vn -0.337914 -0.936812 0.090541
vn -0.337915 -0.936812 0.090541
vn -0.337915 -0.936812 0.090541
vn -0.337914 -0.936812 0.090541
vn 0.703781 -0.684931 -0.188578
vn 0.703781 -0.684931 -0.188578
vn 0.703781 -0.684932 -0.188578
vn 0.703781 -0.684931 -0.188578
vn -0.965903 0.006822 0.258814
vn -0.965903 0.006822 0.258814
vn -0.965903 0.006822 0.258814
vn -0.965903 0.006822 0.258814
s 1
g polySurface288 polySurface352
usemtl initialShadingGroup
f 45/127/125 46/128/126 47/129/127
f 48/130/128 45/131/125 47/132/127
f 46/133/126 49/134/129 47/135/127
f 49/136/129 50/137/130 47/138/127
f 51/139/131 48/130/128 47/132/127
f 52/140/132 51/141/131 47/142/127
f 50/143/130 53/144/133 47/145/127
f 53/146/133 54/147/134 47/148/127
s 2
f 55/149/135 56/150/136 57/151/137
s 1
f 58/152/138 52/153/132 47/154/127
s 2
f 56/155/136 59/156/139 57/157/137
s 1
f 54/158/134 58/159/138 47/160/127
s 2
f 60/161/140 55/162/135 57/163/137
f 61/164/141 60/165/140 57/166/137
f 59/156/139 62/167/142 57/157/137
f 62/168/142 63/169/143 57/170/137
f 64/171/144 61/172/141 57/173/137
f 65/174/145 64/175/144 57/176/137
f 63/177/143 66/178/146 57/179/137
f 66/180/146 65/181/145 57/182/137
s off
f 56/150/147 55/149/148 46/128/149 45/127/150
f 59/183/151 56/184/152 45/131/153 48/130/154
f 55/149/155 60/185/156 49/186/157 46/128/158
f 60/165/159 61/164/160 50/137/161 49/136/162
f 62/187/163 59/183/164 48/130/165 51/139/166
f 63/169/167 62/168/168 51/141/169 52/140/170
f 61/172/171 64/171/172 53/144/173 50/143/174
f 64/175/175 65/174/176 54/147/177 53/146/178
f 66/188/179 63/169/180 52/140/181 58/189/182
f 65/181/183 66/180/184 58/159/185 54/158/186
g default
v -1.799066 3.711569 -9.376829
v -1.894652 3.687693 -9.392410
v -1.910508 3.627745 -9.346970
v -1.852581 3.627745 -9.403683
v -1.953076 3.763375 -9.335564
v -1.962723 3.664795 -9.374170
v -1.799066 3.543921 -9.376829
v -1.894652 3.567797 -9.392410
v -2.048259 3.627745 -9.310059
v -1.962723 3.590695 -9.374170
v -1.910966 3.687693 -9.453295
v -1.835976 3.711569 -9.514580
v -1.947418 3.627745 -9.484720
v -1.953076 3.492115 -9.335564
v -1.868895 3.627745 -9.464567
v -1.989986 3.763375 -9.473314
v -1.979038 3.664795 -9.435055
v -1.835976 3.543921 -9.514580
v -1.910966 3.567797 -9.453295
v -2.085169 3.627745 -9.447809
v -1.979038 3.590695 -9.435055
v -1.989986 3.492115 -9.473314
vt 0.083566 0.858450
vt 0.083757 0.859618
vt 0.083201 0.859812
vt 0.505168 0.868926
vt 0.504840 0.869950
vt 0.504475 0.868926
vt 0.370044 0.858599
vt 0.369350 0.859524
vt 0.369489 0.857867
vt 0.070739 0.864474
vt 0.069535 0.864946
vt 0.069082 0.864614
vt 0.504840 0.867901
vt 0.093559 0.859618
vt 0.093750 0.858450
vt 0.094115 0.859812
vt 0.316876 0.862291
vt 0.315831 0.861507
vt 0.317514 0.861958
vt 0.324835 0.863642
vt 0.325880 0.862858
vt 0.326519 0.863191
vt 0.084501 0.859817
vt 0.085250 0.858901
vt 0.084885 0.860263
vt 0.362986 0.878287
vt 0.363680 0.879212
vt 0.363125 0.879944
vt 0.765607 0.961572
vt 0.766219 0.961975
vt 0.765972 0.962934
vt 0.062960 0.864624
vt 0.061755 0.864152
vt 0.063413 0.864291
vt 0.356351 0.878287
vt 0.357316 0.879212
vt 0.356871 0.879944
vt 0.069535 0.865690
vt 0.070739 0.866158
vt 0.069082 0.866297
vt 0.765607 0.961572
vt 0.092066 0.858901
vt 0.092815 0.859817
vt 0.092431 0.860263
vt 0.315379 0.863191
vt 0.316677 0.863035
vt 0.317063 0.863642
vt 0.325681 0.862114
vt 0.324384 0.861958
vt 0.326068 0.861507
vt 0.350681 0.879026
vt 0.349716 0.879951
vt 0.350236 0.878294
vt 0.061755 0.865835
vt 0.062960 0.865368
vt 0.063413 0.865975
vt 0.505912 0.868926
vt 0.506524 0.869950
vt 0.084745 0.860783
vt 0.083062 0.860332
vt 0.506524 0.867901
vt 0.092571 0.860783
vt 0.094254 0.860332
vn 0.285528 -0.038494 0.957597
vn 0.343794 0.507811 0.789895
vn 0.288284 0.000001 0.957545
vn 0.699580 0.000000 0.714555
vn 0.329937 0.024189 0.943693
vn -0.251401 0.317091 0.914468
vn 0.285526 0.038492 0.957598
vn 0.343801 -0.507811 0.789892
vn 0.258829 -0.000000 0.965923
vn -0.251398 -0.317087 0.914470
vn -0.097214 0.507819 -0.855961
vn -0.231502 -0.038487 -0.972073
vn -0.229112 0.000001 -0.973400
vn 0.329937 -0.024185 0.943693
vn 0.248595 0.000002 -0.968607
vn -0.186134 0.024182 -0.982227
vn -0.674953 0.317088 -0.666254
vn -0.231499 0.038494 -0.972073
vn -0.097206 -0.507819 -0.855962
vn -0.258827 -0.000001 -0.965924
vn -0.674954 -0.317094 -0.666249
vn -0.186126 -0.024183 -0.982228
vn -0.252141 0.965329 0.067563
vn -0.252141 0.965329 0.067563
vn -0.252141 0.965329 0.067563
vn -0.252141 0.965329 0.067563
vn 0.852137 -0.470880 -0.228331
vn 0.852137 -0.470880 -0.228331
vn 0.852137 -0.470880 -0.228331
vn 0.852137 -0.470880 -0.228331
vn 0.703778 0.684934 -0.188578
vn 0.703778 0.684934 -0.188578
vn 0.703778 0.684934 -0.188578
vn 0.703778 0.684934 -0.188578
vn -0.965903 -0.006827 0.258814
vn -0.965903 -0.006827 0.258814
vn -0.965903 -0.006827 0.258814
vn -0.965903 -0.006827 0.258814
vn 0.852137 0.470880 -0.228331
vn 0.852137 0.470880 -0.228331
vn 0.852137 0.470880 -0.228331
vn 0.852137 0.470880 -0.228331
vn -0.252140 -0.965329 0.067562
vn -0.252140 -0.965329 0.067562
vn -0.252140 -0.965329 0.067562
vn -0.252140 -0.965329 0.067562
vn -0.337915 0.936811 0.090546
vn -0.337915 0.936811 0.090546
vn -0.337915 0.936811 0.090546
vn -0.337915 0.936811 0.090546
vn -0.337914 -0.936811 0.090547
vn -0.337914 -0.936811 0.090547
vn -0.337914 -0.936811 0.090547
vn -0.337914 -0.936811 0.090547
vn 0.703778 -0.684934 -0.188578
vn 0.703778 -0.684934 -0.188578
vn 0.703778 -0.684934 -0.188578
vn 0.703778 -0.684934 -0.188578
vn -0.965903 0.006828 0.258813
vn -0.965903 0.006828 0.258813
vn -0.965903 0.006828 0.258813
vn -0.965903 0.006828 0.258813
s 1
g polySurface288 polySurface417
usemtl initialShadingGroup
f 67/190/187 68/191/188 69/192/189
f 70/193/190 67/194/187 69/195/189
f 68/196/188 71/197/191 69/198/189
f 71/199/191 72/200/192 69/201/189
f 73/202/193 70/193/190 69/195/189
f 74/203/194 73/204/193 69/205/189
f 72/206/192 75/207/195 69/208/189
f 75/209/195 76/210/196 69/211/189
s 2
f 77/212/197 78/213/198 79/214/199
s 1
f 80/215/200 74/216/194 69/217/189
s 2
f 78/218/198 81/219/201 79/220/199
s 1
f 76/221/196 80/222/200 69/223/189
s 2
f 82/224/202 77/225/197 79/226/199
f 83/227/203 82/228/202 79/229/199
f 81/219/201 84/230/204 79/220/199
f 84/231/204 85/232/205 79/233/199
f 86/234/206 83/235/203 79/236/199
f 87/237/207 86/238/206 79/239/199
f 85/240/205 88/241/208 79/242/199
f 88/243/208 87/244/207 79/245/199
s off
f 78/213/209 77/212/210 68/191/211 67/190/212
f 81/246/213 78/247/214 67/194/215 70/193/216
f 77/212/217 82/248/218 71/249/219 68/191/220
f 82/228/221 83/227/222 72/200/223 71/199/224
f 84/250/225 81/246/226 70/193/227 73/202/228
f 85/232/229 84/231/230 73/204/231 74/203/232
f 83/235/233 86/234/234 75/207/235 72/206/236
f 86/238/237 87/237/238 76/210/239 75/209/240
f 88/251/241 85/232/242 74/203/243 80/252/244
f 87/244/245 88/243/246 80/222/247 76/221/248
