# This file uses centimeters as units for non-parametric coordinates.

mtllib 3Aries.mtl
g default
v -1.988770 3.102899 -9.343094
v -2.062219 3.084552 -9.355066
v -2.074404 3.038487 -9.320148
v -2.029892 3.038487 -9.363729
v -2.107113 3.142707 -9.311384
v -2.114526 3.066957 -9.341051
v -1.988770 2.974076 -9.343094
v -2.062219 2.992423 -9.355066
v -2.180253 3.038487 -9.291786
v -2.114526 3.010018 -9.341051
v -2.074755 3.084552 -9.401852
v -2.017132 3.102899 -9.448944
v -2.102766 3.038487 -9.425999
v -2.107113 2.934268 -9.311384
v -2.042428 3.038487 -9.410513
v -2.135475 3.142707 -9.417234
v -2.127062 3.066957 -9.387836
v -2.017132 2.974076 -9.448944
v -2.074755 2.992423 -9.401852
v -2.208615 3.038487 -9.397636
v -2.127062 3.010018 -9.387836
v -2.135475 2.934268 -9.417234
vt 0.312148 0.221343
vt 0.325666 0.304277
vt 0.286240 0.318034
vt 0.387712 0.620419
vt 0.364411 0.693148
vt 0.338503 0.620419
vt 0.477520 0.748938
vt 0.428199 0.814603
vt 0.438094 0.696926
vt 0.186904 0.553997
vt 0.101374 0.587493
vt 0.069228 0.563892
vt 0.364411 0.547691
vt 0.221216 0.304277
vt 0.234734 0.221343
vt 0.260642 0.318034
vt 0.753957 0.451684
vt 0.679744 0.396058
vt 0.799261 0.428082
vt 0.825113 0.702922
vt 0.899326 0.647297
vt 0.944630 0.670898
vt 0.378494 0.318432
vt 0.431667 0.253368
vt 0.405758 0.350059
vt 0.483540 0.696926
vt 0.532862 0.762590
vt 0.493436 0.814603
vt 0.318080 0.826133
vt 0.361474 0.854694
vt 0.343988 0.922824
vt 0.087416 0.720685
vt 0.001886 0.687188
vt 0.119562 0.697083
vt 0.538881 0.681748
vt 0.607441 0.747413
vt 0.575814 0.799425
vt 0.101374 0.640321
vt 0.186904 0.673514
vt 0.069228 0.683410
vt 0.318080 0.826133
vt 0.115215 0.253368
vt 0.168388 0.318432
vt 0.141123 0.350059
vt 0.647719 0.515576
vt 0.739802 0.504511
vt 0.767236 0.547601
vt 0.885171 0.594470
vt 0.793088 0.583405
vt 0.912605 0.551380
vt 0.683075 0.753040
vt 0.614514 0.818704
vt 0.651447 0.701027
vt 0.001886 0.806706
vt 0.087416 0.773512
vt 0.119562 0.816602
vt 0.440536 0.620419
vt 0.483930 0.693148
vt 0.395862 0.386992
vt 0.276344 0.354968
vt 0.483930 0.547691
vt 0.151020 0.386992
vt 0.270537 0.354968
vn 0.285546 -0.038511 0.957591
vn 0.343778 0.507822 0.789895
vn 0.288279 0.000001 0.957546
vn 0.699601 0.000003 0.714534
vn 0.329915 0.024188 0.943701
vn -0.251416 0.317095 0.914462
vn 0.285551 0.038517 0.957589
vn 0.343780 -0.507821 0.789895
vn 0.258819 0.000000 0.965926
vn -0.251412 -0.317092 0.914464
vn -0.097232 0.507809 -0.855965
vn -0.231503 -0.038509 -0.972072
vn -0.229109 0.000001 -0.973401
vn 0.329916 -0.024187 0.943701
vn 0.248584 -0.000002 -0.968610
vn -0.186121 0.024189 -0.982229
vn -0.674941 0.317083 -0.666268
vn -0.231506 0.038513 -0.972071
vn -0.097230 -0.507805 -0.855967
vn -0.258819 -0.000002 -0.965926
vn -0.674941 -0.317085 -0.666267
vn -0.186116 -0.024187 -0.982230
vn -0.252138 0.965330 0.067560
vn -0.252138 0.965330 0.067560
vn -0.252138 0.965330 0.067560
vn -0.252138 0.965330 0.067560
vn 0.852140 -0.470876 -0.228327
vn 0.852140 -0.470876 -0.228327
vn 0.852140 -0.470876 -0.228327
vn 0.852140 -0.470876 -0.228327
vn 0.703778 0.684935 -0.188574
vn 0.703778 0.684935 -0.188574
vn 0.703778 0.684935 -0.188574
vn 0.703778 0.684935 -0.188574
vn -0.965905 -0.006834 0.258808
vn -0.965905 -0.006834 0.258808
vn -0.965905 -0.006834 0.258808
vn -0.965905 -0.006834 0.258808
vn 0.852140 0.470877 -0.228327
vn 0.852140 0.470877 -0.228327
vn 0.852140 0.470877 -0.228327
vn 0.852140 0.470877 -0.228327
vn -0.252138 -0.965330 0.067560
vn -0.252138 -0.965330 0.067560
vn -0.252138 -0.965330 0.067560
vn -0.252138 -0.965330 0.067560
vn -0.337917 0.936811 0.090542
vn -0.337917 0.936811 0.090542
vn -0.337917 0.936811 0.090542
vn -0.337917 0.936811 0.090542
vn -0.337917 -0.936810 0.090543
vn -0.337917 -0.936810 0.090543
vn -0.337917 -0.936810 0.090543
vn -0.337917 -0.936810 0.090543
vn 0.703779 -0.684935 -0.188574
vn 0.703779 -0.684935 -0.188574
vn 0.703779 -0.684935 -0.188574
vn 0.703779 -0.684935 -0.188574
vn -0.965904 0.006833 0.258809
vn -0.965904 0.006833 0.258809
vn -0.965905 0.006833 0.258809
vn -0.965904 0.006833 0.258809
s 1
g polySurface496 polySurface417
usemtl initialShadingGroup
f 1/1/1 2/2/2 3/3/3
f 4/4/4 1/5/1 3/6/3
f 2/7/2 5/8/5 3/9/3
f 5/10/5 6/11/6 3/12/3
f 7/13/7 4/4/4 3/6/3
f 8/14/8 7/15/7 3/16/3
f 6/17/6 9/18/9 3/19/3
f 9/20/9 10/21/10 3/22/3
s 2
f 11/23/11 12/24/12 13/25/13
s 1
f 14/26/14 8/27/8 3/28/3
s 2
f 12/29/12 15/30/15 13/31/13
s 1
f 10/32/10 14/33/14 3/34/3
s 2
f 16/35/16 11/36/11 13/37/13
f 17/38/17 16/39/16 13/40/13
f 15/30/15 18/41/18 13/31/13
f 18/42/18 19/43/19 13/44/13
f 20/45/20 17/46/17 13/47/13
f 21/48/21 20/49/20 13/50/13
f 19/51/19 22/52/22 13/53/13
f 22/54/22 21/55/21 13/56/13
s off
f 12/24/23 11/23/24 2/2/25 1/1/26
f 15/57/27 12/58/28 1/5/29 4/4/30
f 11/23/31 16/59/32 5/60/33 2/2/34
f 16/39/35 17/38/36 6/11/37 5/10/38
f 18/61/39 15/57/40 4/4/41 7/13/42
f 19/43/43 18/42/44 7/15/45 8/14/46
f 17/46/47 20/45/48 9/18/49 6/17/50
f 20/49/51 21/48/52 10/21/53 9/20/54
f 22/62/55 19/43/56 8/14/57 14/63/58
f 21/55/59 22/54/60 14/33/61 10/32/62
g default
v -1.855377 3.276945 -9.395651
v -1.907055 3.264036 -9.404074
v -1.915628 3.231626 -9.379507
v -1.884310 3.231626 -9.410170
v -1.938642 3.304954 -9.373341
v -1.943858 3.251657 -9.394213
v -1.855377 3.186307 -9.395651
v -1.907055 3.199215 -9.404074
v -1.990102 3.231626 -9.359550
v -1.943858 3.211595 -9.394213
v -1.915875 3.264036 -9.436991
v -1.875332 3.276945 -9.470125
v -1.935583 3.231626 -9.453981
v -1.938642 3.158298 -9.373341
v -1.893130 3.231626 -9.443087
v -1.958597 3.304954 -9.447815
v -1.952678 3.251657 -9.427130
v -1.875332 3.186307 -9.470125
v -1.915875 3.199215 -9.436991
v -2.010057 3.231626 -9.434025
v -1.952678 3.211595 -9.427130
v -1.958597 3.158298 -9.447815
vt 0.715339 0.706701
vt 0.724849 0.765052
vt 0.697111 0.774731
vt 0.401903 0.877304
vt 0.385510 0.928474
vt 0.367281 0.877304
vt 0.087486 0.856975
vt 0.052784 0.903176
vt 0.059748 0.820380
vt 0.264696 0.826133
vt 0.204516 0.849700
vt 0.181899 0.833096
vt 0.385510 0.826133
vt 0.880945 0.765052
vt 0.890455 0.706701
vt 0.908684 0.774731
vt 0.662586 0.866165
vt 0.610370 0.827027
vt 0.694461 0.849561
vt 0.497940 0.925005
vt 0.550156 0.885868
vt 0.582031 0.902472
vt 0.762017 0.775010
vt 0.799430 0.729232
vt 0.781202 0.797264
vt 0.012276 0.820380
vt 0.046977 0.866580
vt 0.019239 0.903176
vt 0.112753 0.915212
vt 0.143283 0.935308
vt 0.130981 0.983243
vt 0.153473 0.843947
vt 0.093294 0.820380
vt 0.176091 0.827343
vt 0.001885 0.906954
vt 0.050124 0.953155
vt 0.027871 0.989751
vt 0.204516 0.886867
vt 0.264696 0.910224
vt 0.181899 0.917187
vt 0.112753 0.915212
vt 0.806364 0.729232
vt 0.843778 0.775010
vt 0.824593 0.797264
vt 0.587838 0.911118
vt 0.652627 0.903333
vt 0.671929 0.933652
vt 0.540197 0.848700
vt 0.475408 0.840914
vt 0.559499 0.818381
vt 0.105650 0.951807
vt 0.057411 0.998008
vt 0.083397 0.915211
vt 0.093294 0.904471
vt 0.153473 0.881114
vt 0.176091 0.911434
vt 0.439070 0.877304
vt 0.469601 0.928474
vt 0.774239 0.823249
vt 0.690148 0.800717
vt 0.469601 0.826133
vt 0.831556 0.823249
vt 0.915647 0.800717
vn 0.285556 -0.038531 0.957587
vn 0.343771 0.507805 0.789909
vn 0.288294 0.000000 0.957542
vn 0.699595 -0.000000 0.714539
vn 0.329931 0.024187 0.943695
vn -0.251341 0.317091 0.914484
vn 0.285555 0.038529 0.957588
vn 0.343771 -0.507806 0.789908
vn 0.258849 -0.000002 0.965918
vn -0.251346 -0.317099 0.914480
vn -0.097199 0.507827 -0.855958
vn -0.231550 -0.038448 -0.972063
vn -0.229127 0.000001 -0.973397
vn 0.329933 -0.024182 0.943695
vn 0.248559 0.000003 -0.968617
vn -0.186115 0.024188 -0.982230
vn -0.674965 0.317093 -0.666239
vn -0.231552 0.038452 -0.972062
vn -0.097200 -0.507827 -0.855958
vn -0.258837 0.000001 -0.965921
vn -0.674962 -0.317092 -0.666242
vn -0.186113 -0.024189 -0.982231
vn -0.252136 0.965331 0.067561
vn -0.252136 0.965331 0.067561
vn -0.252136 0.965331 0.067561
vn -0.252136 0.965331 0.067561
vn 0.852136 -0.470881 -0.228331
vn 0.852136 -0.470881 -0.228331
vn 0.852136 -0.470881 -0.228331
vn 0.852136 -0.470881 -0.228331
vn 0.703781 0.684930 -0.188581
vn 0.703782 0.684930 -0.188581
vn 0.703782 0.684930 -0.188581
vn 0.703782 0.684930 -0.188581
vn -0.965902 -0.006825 0.258817
vn -0.965902 -0.006825 0.258817
vn -0.965902 -0.006825 0.258817
vn -0.965902 -0.006825 0.258817
vn 0.852136 0.470881 -0.228331
vn 0.852136 0.470881 -0.228331
vn 0.852136 0.470881 -0.228331
vn 0.852136 0.470881 -0.228331
vn -0.252135 -0.965331 0.067557
vn -0.252135 -0.965331 0.067557
vn -0.252135 -0.965331 0.067557
vn -0.252135 -0.965331 0.067557
vn -0.337913 0.936812 0.090539
vn -0.337913 0.936812 0.090539
vn -0.337913 0.936812 0.090539
vn -0.337913 0.936812 0.090539
vn -0.337914 -0.936812 0.090541
vn -0.337915 -0.936812 0.090541
vn -0.337915 -0.936812 0.090541
vn -0.337914 -0.936812 0.090541
vn 0.703781 -0.684931 -0.188578
vn 0.703781 -0.684931 -0.188578
vn 0.703781 -0.684932 -0.188578
vn 0.703781 -0.684931 -0.188578
vn -0.965903 0.006822 0.258814
vn -0.965903 0.006822 0.258814
vn -0.965903 0.006822 0.258814
vn -0.965903 0.006822 0.258814
s 1
g polySurface417 polySurface495
usemtl initialShadingGroup
f 23/64/63 24/65/64 25/66/65
f 26/67/66 23/68/63 25/69/65
f 24/70/64 27/71/67 25/72/65
f 27/73/67 28/74/68 25/75/65
f 29/76/69 26/67/66 25/69/65
f 30/77/70 29/78/69 25/79/65
f 28/80/68 31/81/71 25/82/65
f 31/83/71 32/84/72 25/85/65
s 2
f 33/86/73 34/87/74 35/88/75
s 1
f 36/89/76 30/90/70 25/91/65
s 2
f 34/92/74 37/93/77 35/94/75
s 1
f 32/95/72 36/96/76 25/97/65
s 2
f 38/98/78 33/99/73 35/100/75
f 39/101/79 38/102/78 35/103/75
f 37/93/77 40/104/80 35/94/75
f 40/105/80 41/106/81 35/107/75
f 42/108/82 39/109/79 35/110/75
f 43/111/83 42/112/82 35/113/75
f 41/114/81 44/115/84 35/116/75
f 44/117/84 43/118/83 35/119/75
s off
f 34/87/85 33/86/86 24/65/87 23/64/88
f 37/120/89 34/121/90 23/68/91 26/67/92
f 33/86/93 38/122/94 27/123/95 24/65/96
f 38/102/97 39/101/98 28/74/99 27/73/100
f 40/124/101 37/120/102 26/67/103 29/76/104
f 41/106/105 40/105/106 29/78/107 30/77/108
f 39/109/109 42/108/110 31/81/111 28/80/112
f 42/112/113 43/111/114 32/84/115 31/83/116
f 44/125/117 41/106/118 30/77/119 36/126/120
f 43/118/121 44/117/122 36/96/123 32/95/124
g default
v -1.799066 3.711569 -9.376829
v -1.894652 3.687693 -9.392410
v -1.910508 3.627745 -9.346970
v -1.852581 3.627745 -9.403683
v -1.953076 3.763375 -9.335564
v -1.962723 3.664795 -9.374170
v -1.799066 3.543921 -9.376829
v -1.894652 3.567797 -9.392410
v -2.048259 3.627745 -9.310059
v -1.962723 3.590695 -9.374170
v -1.910966 3.687693 -9.453295
v -1.835976 3.711569 -9.514580
v -1.947418 3.627745 -9.484720
v -1.953076 3.492115 -9.335564
v -1.868895 3.627745 -9.464567
v -1.989986 3.763375 -9.473314
v -1.979038 3.664795 -9.435055
v -1.835976 3.543921 -9.514580
v -1.910966 3.567797 -9.453295
v -2.085169 3.627745 -9.447809
v -1.979038 3.590695 -9.435055
v -1.989986 3.492115 -9.473314
vt 0.048480 0.001992
vt 0.066073 0.109921
vt 0.014764 0.127825
vt 0.819413 0.297633
vt 0.789092 0.392280
vt 0.755376 0.297633
vt 0.379858 0.458459
vt 0.315671 0.543913
vt 0.328550 0.390770
vt 0.749568 0.202985
vt 0.638259 0.246576
vt 0.596425 0.215863
vt 0.789092 0.202985
vt 0.348467 0.109921
vt 0.366060 0.001992
vt 0.399776 0.127825
vt 0.557232 0.074381
vt 0.460651 0.001992
vt 0.616189 0.043668
vt 0.665414 0.199207
vt 0.761994 0.126817
vt 0.820952 0.157530
vt 0.134818 0.128342
vt 0.204017 0.043668
vt 0.170302 0.169501
vt 0.385770 0.390770
vt 0.449957 0.476225
vt 0.398649 0.543913
vt 0.125666 0.687189
vt 0.182136 0.724359
vt 0.159381 0.813021
vt 0.548783 0.246576
vt 0.437474 0.202985
vt 0.590617 0.215863
vt 0.455869 0.375179
vt 0.545092 0.460634
vt 0.503933 0.528322
vt 0.638259 0.315323
vt 0.749568 0.358522
vt 0.596425 0.371401
vt 0.125666 0.687189
vt 0.210523 0.043668
vt 0.279721 0.128342
vt 0.244237 0.169501
vt 0.418975 0.157529
vt 0.538811 0.143128
vt 0.574513 0.199207
vt 0.743574 0.058070
vt 0.623738 0.043669
vt 0.779275 0.001992
vt 0.641017 0.442868
vt 0.551794 0.528322
vt 0.599858 0.375179
vt 0.437474 0.358522
vt 0.548783 0.315323
vt 0.590617 0.371401
vt 0.888160 0.297633
vt 0.944630 0.392280
vt 0.157423 0.217565
vt 0.001885 0.175889
vt 0.944630 0.202985
vt 0.257117 0.217565
vt 0.412654 0.175889
vn 0.285528 -0.038494 0.957597
vn 0.343794 0.507811 0.789895
vn 0.288284 0.000001 0.957545
vn 0.699580 0.000000 0.714555
vn 0.329937 0.024189 0.943693
vn -0.251401 0.317091 0.914468
vn 0.285526 0.038492 0.957598
vn 0.343801 -0.507811 0.789892
vn 0.258829 -0.000000 0.965923
vn -0.251398 -0.317087 0.914470
vn -0.097214 0.507819 -0.855961
vn -0.231502 -0.038487 -0.972073
vn -0.229112 0.000001 -0.973400
vn 0.329937 -0.024185 0.943693
vn 0.248595 0.000002 -0.968607
vn -0.186134 0.024182 -0.982227
vn -0.674953 0.317088 -0.666254
vn -0.231499 0.038494 -0.972073
vn -0.097206 -0.507819 -0.855962
vn -0.258827 -0.000001 -0.965924
vn -0.674954 -0.317094 -0.666249
vn -0.186126 -0.024183 -0.982228
vn -0.252141 0.965329 0.067563
vn -0.252141 0.965329 0.067563
vn -0.252141 0.965329 0.067563
vn -0.252141 0.965329 0.067563
vn 0.852137 -0.470880 -0.228331
vn 0.852137 -0.470880 -0.228331
vn 0.852137 -0.470880 -0.228331
vn 0.852137 -0.470880 -0.228331
vn 0.703778 0.684934 -0.188578
vn 0.703778 0.684934 -0.188578
vn 0.703778 0.684934 -0.188578
vn 0.703778 0.684934 -0.188578
vn -0.965903 -0.006827 0.258814
vn -0.965903 -0.006827 0.258814
vn -0.965903 -0.006827 0.258814
vn -0.965903 -0.006827 0.258814
vn 0.852137 0.470880 -0.228331
vn 0.852137 0.470880 -0.228331
vn 0.852137 0.470880 -0.228331
vn 0.852137 0.470880 -0.228331
vn -0.252140 -0.965329 0.067562
vn -0.252140 -0.965329 0.067562
vn -0.252140 -0.965329 0.067562
vn -0.252140 -0.965329 0.067562
vn -0.337915 0.936811 0.090546
vn -0.337915 0.936811 0.090546
vn -0.337915 0.936811 0.090546
vn -0.337915 0.936811 0.090546
vn -0.337914 -0.936811 0.090547
vn -0.337914 -0.936811 0.090547
vn -0.337914 -0.936811 0.090547
vn -0.337914 -0.936811 0.090547
vn 0.703778 -0.684934 -0.188578
vn 0.703778 -0.684934 -0.188578
vn 0.703778 -0.684934 -0.188578
vn 0.703778 -0.684934 -0.188578
vn -0.965903 0.006828 0.258813
vn -0.965903 0.006828 0.258813
vn -0.965903 0.006828 0.258813
vn -0.965903 0.006828 0.258813
s 1
g polySurface417 polySurface493
usemtl initialShadingGroup
f 45/127/125 46/128/126 47/129/127
f 48/130/128 45/131/125 47/132/127
f 46/133/126 49/134/129 47/135/127
f 49/136/129 50/137/130 47/138/127
f 51/139/131 48/130/128 47/132/127
f 52/140/132 51/141/131 47/142/127
f 50/143/130 53/144/133 47/145/127
f 53/146/133 54/147/134 47/148/127
s 2
f 55/149/135 56/150/136 57/151/137
s 1
f 58/152/138 52/153/132 47/154/127
s 2
f 56/155/136 59/156/139 57/157/137
s 1
f 54/158/134 58/159/138 47/160/127
s 2
f 60/161/140 55/162/135 57/163/137
f 61/164/141 60/165/140 57/166/137
f 59/156/139 62/167/142 57/157/137
f 62/168/142 63/169/143 57/170/137
f 64/171/144 61/172/141 57/173/137
f 65/174/145 64/175/144 57/176/137
f 63/177/143 66/178/146 57/179/137
f 66/180/146 65/181/145 57/182/137
s off
f 56/150/147 55/149/148 46/128/149 45/127/150
f 59/183/151 56/184/152 45/131/153 48/130/154
f 55/149/155 60/185/156 49/186/157 46/128/158
f 60/165/159 61/164/160 50/137/161 49/136/162
f 62/187/163 59/183/164 48/130/165 51/139/166
f 63/169/167 62/168/168 51/141/169 52/140/170
f 61/172/171 64/171/172 53/144/173 50/143/174
f 64/175/175 65/174/176 54/147/177 53/146/178
f 66/188/179 63/169/180 52/140/181 58/189/182
f 65/181/183 66/180/184 58/159/185 54/158/186
g default
v -3.065630 4.825079 -9.056675
v -3.136330 4.807419 -9.068197
v -3.148058 4.763079 -9.034588
v -3.105213 4.763079 -9.076536
v -3.179543 4.863397 -9.026152
v -3.186679 4.790483 -9.054707
v -3.065630 4.701078 -9.056675
v -3.136330 4.718739 -9.068197
v -3.249945 4.763079 -9.007288
v -3.186679 4.735675 -9.054707
v -3.148396 4.807419 -9.113232
v -3.092931 4.825079 -9.158562
v -3.175359 4.763079 -9.136475
v -3.179543 4.662760 -9.026152
v -3.117279 4.763079 -9.121569
v -3.206843 4.863397 -9.128038
v -3.198746 4.790483 -9.099741
v -3.092931 4.701078 -9.158562
v -3.148396 4.718739 -9.113232
v -3.277246 4.763079 -9.109175
v -3.198746 4.735675 -9.099741
v -3.206843 4.662760 -9.128038
vt 0.036350 0.390771
vt 0.049361 0.470600
vt 0.011411 0.483842
vt 0.240078 0.624003
vt 0.217652 0.694009
vt 0.192713 0.624003
vt 0.944630 0.877092
vt 0.897155 0.940299
vt 0.906680 0.827027
vt 0.301659 0.697787
vt 0.219328 0.730029
vt 0.188387 0.707312
vt 0.217652 0.553997
vt 0.260903 0.470600
vt 0.273914 0.390771
vt 0.298853 0.483842
vt 0.694954 0.594988
vt 0.641413 0.666423
vt 0.672238 0.551380
vt 0.635605 0.647143
vt 0.582064 0.575708
vt 0.604780 0.532100
vt 0.100209 0.484224
vt 0.151393 0.421597
vt 0.126454 0.514668
vt 0.843871 0.827027
vt 0.891346 0.890234
vt 0.853397 0.940299
vt 0.270503 0.826133
vt 0.312273 0.853627
vt 0.295442 0.919205
vt 0.390622 0.730029
vt 0.308293 0.697787
vt 0.421565 0.707312
vt 0.772070 0.827027
vt 0.838064 0.890234
vt 0.807620 0.940299
vt 0.219328 0.780878
vt 0.301659 0.812830
vt 0.188387 0.822355
vt 0.270503 0.826133
vt 0.158871 0.421597
vt 0.210055 0.484224
vt 0.183810 0.514668
vt 0.756456 0.697249
vt 0.745804 0.608613
vt 0.787281 0.582206
vt 0.531214 0.589333
vt 0.520562 0.677969
vt 0.489737 0.562926
vt 0.766262 0.877093
vt 0.700269 0.940299
vt 0.735818 0.827027
vt 0.308293 0.812830
vt 0.390622 0.780878
vt 0.421565 0.822355
vt 0.290925 0.624003
vt 0.332695 0.694009
vt 0.116929 0.550218
vt 0.001886 0.519393
vt 0.332695 0.553997
vt 0.193336 0.550218
vt 0.308379 0.519393
vn 0.285570 -0.038509 0.957584
vn 0.343783 0.507805 0.789903
vn 0.288285 -0.000001 0.957545
vn 0.699600 -0.000001 0.714535
vn 0.329909 0.024185 0.943703
vn -0.251389 0.317081 0.914474
vn 0.285568 0.038508 0.957585
vn 0.343784 -0.507808 0.789901
vn 0.258818 -0.000002 0.965926
vn -0.251388 -0.317082 0.914474
vn -0.097226 0.507815 -0.855962
vn -0.231517 -0.038509 -0.972068
vn -0.229107 0.000001 -0.973401
vn 0.329906 -0.024184 0.943704
vn 0.248572 0.000004 -0.968613
vn -0.186109 0.024186 -0.982231
vn -0.674939 0.317082 -0.666270
vn -0.231516 0.038516 -0.972068
vn -0.097229 -0.507812 -0.855964
vn -0.258813 -0.000001 -0.965928
vn -0.674937 -0.317085 -0.666271
vn -0.186109 -0.024188 -0.982231
vn -0.252142 0.965329 0.067558
vn -0.252142 0.965329 0.067558
vn -0.252142 0.965329 0.067558
vn -0.252142 0.965329 0.067558
vn 0.852135 -0.470884 -0.228330
vn 0.852135 -0.470884 -0.228330
vn 0.852135 -0.470884 -0.228330
vn 0.852135 -0.470884 -0.228330
vn 0.703784 0.684930 -0.188573
vn 0.703784 0.684930 -0.188573
vn 0.703784 0.684930 -0.188573
vn 0.703784 0.684930 -0.188573
vn -0.965904 -0.006825 0.258810
vn -0.965904 -0.006825 0.258810
vn -0.965904 -0.006825 0.258810
vn -0.965904 -0.006825 0.258810
vn 0.852134 0.470886 -0.228328
vn 0.852134 0.470886 -0.228328
vn 0.852134 0.470886 -0.228328
vn 0.852134 0.470886 -0.228328
vn -0.252141 -0.965329 0.067560
vn -0.252141 -0.965329 0.067560
vn -0.252141 -0.965329 0.067560
vn -0.252141 -0.965329 0.067560
vn -0.337918 0.936810 0.090548
vn -0.337918 0.936810 0.090548
vn -0.337918 0.936810 0.090548
vn -0.337918 0.936810 0.090548
vn -0.337919 -0.936810 0.090547
vn -0.337919 -0.936810 0.090547
vn -0.337919 -0.936809 0.090547
vn -0.337919 -0.936810 0.090547
vn 0.703782 -0.684931 -0.188574
vn 0.703782 -0.684931 -0.188574
vn 0.703782 -0.684931 -0.188574
vn 0.703782 -0.684931 -0.188574
vn -0.965903 0.006828 0.258813
vn -0.965903 0.006828 0.258813
vn -0.965903 0.006828 0.258813
vn -0.965903 0.006828 0.258813
s 1
g polySurface417 polySurface494
usemtl initialShadingGroup
f 67/190/187 68/191/188 69/192/189
f 70/193/190 67/194/187 69/195/189
f 68/196/188 71/197/191 69/198/189
f 71/199/191 72/200/192 69/201/189
f 73/202/193 70/193/190 69/195/189
f 74/203/194 73/204/193 69/205/189
f 72/206/192 75/207/195 69/208/189
f 75/209/195 76/210/196 69/211/189
s 2
f 77/212/197 78/213/198 79/214/199
s 1
f 80/215/200 74/216/194 69/217/189
s 2
f 78/218/198 81/219/201 79/220/199
s 1
f 76/221/196 80/222/200 69/223/189
s 2
f 82/224/202 77/225/197 79/226/199
f 83/227/203 82/228/202 79/229/199
f 81/219/201 84/230/204 79/220/199
f 84/231/204 85/232/205 79/233/199
f 86/234/206 83/235/203 79/236/199
f 87/237/207 86/238/206 79/239/199
f 85/240/205 88/241/208 79/242/199
f 88/243/208 87/244/207 79/245/199
s off
f 78/213/209 77/212/210 68/191/211 67/190/212
f 81/246/213 78/247/214 67/194/215 70/193/216
f 77/212/217 82/248/218 71/249/219 68/191/220
f 82/228/221 83/227/222 72/200/223 71/199/224
f 84/250/225 81/246/226 70/193/227 73/202/228
f 85/232/229 84/231/230 73/204/231 74/203/232
f 83/235/233 86/234/234 75/207/235 72/206/236
f 86/238/237 87/237/238 76/210/239 75/209/240
f 88/251/241 85/232/242 74/203/243 80/252/244
f 87/244/245 88/243/246 80/222/247 76/221/248
