# This file uses centimeters as units for non-parametric coordinates.

mtllib bigstar.mtl
g Aquarius:default1
v -0.026757 0.121385 0.064025
v -0.026429 0.033158 0.028411
v 0.012683 0.000001 0.063719
v 0.036639 0.053651 0.027923
v -0.027746 0.121385 -0.063604
v -0.026868 0.033158 -0.027999
v -0.114945 0.000001 0.064710
v -0.115936 0.000001 -0.062919
v -0.026429 -0.033158 0.028411
v 0.115937 0.075020 0.062918
v 0.075617 0.000001 0.027620
v 0.036201 0.053651 -0.028488
v -0.026757 -0.121385 0.064025
v 0.036639 -0.053651 0.027923
v 0.011693 0.000001 -0.063909
v 0.115937 -0.075020 0.062918
v 0.114945 0.075020 -0.064710
v -0.026868 -0.033158 -0.027999
v -0.027746 -0.121385 -0.063604
v 0.075181 0.000001 -0.028791
v 0.036201 -0.053651 -0.028488
v 0.114945 -0.075020 -0.064710
vt 0.875787 0.718781
vt 0.738891 0.849895
vt 0.812636 0.614929
vt 0.485527 0.630946
vt 0.622424 0.762060
vt 0.559273 0.865916
vt 0.637545 0.065718
vt 0.876188 0.001775
vt 0.854089 0.185640
vt 0.748613 0.213900
vt 0.940130 0.240416
vt 0.701489 0.304361
vt 0.695423 0.546995
vt 0.806491 0.398812
vt 0.911967 0.427072
vt 0.934066 0.610937
vt 0.759367 0.308352
vt 0.998008 0.372297
vt 0.073483 0.332527
vt 0.100476 0.166933
vt 0.205954 0.138671
vt 0.312126 0.268587
vt 0.021753 0.139465
vt 0.001992 0.065722
vt 0.240633 0.001775
vt 0.260394 0.075520
vt 0.418349 0.167370
vt 0.391357 0.001775
vt 0.629999 0.065715
vt 0.523827 0.195631
vt 0.339626 0.194837
vt 0.578267 0.258782
vt 0.319865 0.268580
vt 0.558506 0.332527
vt 0.236958 0.650707
vt 0.066177 0.716987
vt 0.001992 0.630946
vt 0.066177 0.822464
vt 0.236958 0.889348
vt 0.001992 0.869588
vt 0.414640 0.716987
vt 0.243856 0.650707
vt 0.478826 0.630946
vt 0.243856 0.889348
vt 0.414640 0.822464
vt 0.478826 0.869588
vt 0.251445 0.336519
vt 0.490088 0.336519
vt 0.403443 0.481735
vt 0.297966 0.481735
vt 0.490088 0.626955
vt 0.251445 0.626955
vt 0.199714 0.481735
vt 0.632254 0.481738
vt 0.689288 0.626955
vt 0.496222 0.481738
vt 0.689288 0.336519
vt 0.984324 0.849895
vt 0.883114 0.718781
vt 0.910581 0.614929
vt 0.629750 0.762060
vt 0.730960 0.630946
vt 0.657218 0.865916
vn 0.082142 0.024185 0.996327
vn -0.473163 0.317090 0.821931
vn 0.038373 -0.000001 0.999264
vn 0.134237 0.507816 0.850942
vn 0.082142 0.024185 0.996327
vn 0.038373 -0.000001 0.999264
vn 0.728586 0.684931 -0.005646
vn 0.728586 0.684931 -0.005646
vn 0.728586 0.684931 -0.005645
vn 0.728586 0.684931 -0.005646
vn -0.999947 -0.006827 0.007756
vn -0.999947 -0.006827 0.007756
vn -0.999947 -0.006827 0.007756
vn -0.999947 -0.006827 0.007756
vn -0.473163 0.317090 0.821931
vn 0.007759 0.000000 0.999970
vn 0.038373 -0.000001 0.999264
vn -0.349821 0.936813 0.002716
vn -0.349821 0.936813 0.002716
vn -0.349821 0.936813 0.002716
vn -0.349821 0.936813 0.002716
vn 0.007759 0.000000 0.999970
vn -0.473164 -0.317090 0.821930
vn 0.038373 -0.000001 0.999264
vn 0.035712 -0.038481 0.998621
vn 0.134237 0.507816 0.850942
vn 0.038373 -0.000001 0.999264
vn 0.497558 -0.000004 0.867431
vn 0.035712 -0.038481 0.998621
vn 0.038373 -0.000001 0.999264
vn -0.473164 -0.317090 0.821930
vn 0.082141 -0.024185 0.996327
vn 0.038373 -0.000001 0.999264
vn 0.082141 -0.024185 0.996327
vn 0.134238 -0.507817 0.850942
vn 0.038373 -0.000001 0.999264
vn -0.485840 0.317089 -0.814502
vn 0.066693 0.024177 -0.997481
vn 0.022868 0.000000 -0.999739
vn 0.035722 0.038477 0.998621
vn 0.497558 -0.000004 0.867431
vn 0.038373 -0.000001 0.999264
vn 0.066693 0.024177 -0.997481
vn 0.121027 0.507819 -0.852920
vn 0.022868 0.000000 -0.999739
vn 0.882167 -0.470888 -0.006845
vn 0.882167 -0.470888 -0.006845
vn 0.882167 -0.470888 -0.006845
vn 0.882167 -0.470888 -0.006845
vn 0.134238 -0.507817 0.850942
vn 0.035722 0.038477 0.998621
vn 0.038373 -0.000001 0.999264
vn -0.007761 0.000001 -0.999970
vn -0.485840 0.317089 -0.814502
vn 0.022868 0.000000 -0.999739
vn -0.485844 -0.317089 -0.814500
vn -0.007761 0.000001 -0.999970
vn 0.022868 0.000000 -0.999739
vn 0.121027 0.507819 -0.852920
vn 0.020221 -0.038485 -0.999055
vn 0.022868 0.000000 -0.999739
vn -0.999947 0.006829 0.007755
vn -0.999947 0.006829 0.007755
vn -0.999947 0.006829 0.007755
vn -0.999947 0.006829 0.007755
vn 0.882167 0.470888 -0.006845
vn 0.882167 0.470888 -0.006845
vn 0.882167 0.470888 -0.006845
vn 0.882167 0.470888 -0.006845
vn 0.020221 -0.038485 -0.999055
vn 0.484032 0.000000 -0.875051
vn 0.022868 0.000000 -0.999739
vn 0.066687 -0.024176 -0.997481
vn -0.485844 -0.317089 -0.814500
vn 0.022868 0.000000 -0.999739
vn 0.121030 -0.507822 -0.852918
vn 0.066687 -0.024176 -0.997481
vn 0.022868 0.000000 -0.999739
vn 0.484032 0.000000 -0.875051
vn 0.020229 0.038487 -0.999054
vn 0.022868 0.000000 -0.999739
vn 0.020229 0.038487 -0.999054
vn 0.121030 -0.507822 -0.852918
vn 0.022868 0.000000 -0.999739
vn -0.349823 -0.936812 0.002717
vn -0.349823 -0.936812 0.002717
vn -0.349823 -0.936812 0.002717
vn -0.349823 -0.936812 0.002717
vn -0.261028 0.965329 0.002028
vn -0.261028 0.965329 0.002028
vn -0.261028 0.965329 0.002028
vn -0.261028 0.965329 0.002028
vn 0.728585 -0.684932 -0.005643
vn 0.728585 -0.684932 -0.005643
vn 0.728585 -0.684932 -0.005643
vn 0.728585 -0.684932 -0.005643
vn -0.261031 -0.965328 0.002029
vn -0.261031 -0.965328 0.002029
vn -0.261031 -0.965328 0.002029
vn -0.261031 -0.965328 0.002029
s off
g Aquarius:polySurface288 Aquarius:polySurface351 Aquarius:polySurface1
usemtl initialShadingGroup
f 1/35/1 2/36/2 3/37/3
f 4/1/4 1/2/5 3/3/6
f 5/24/7 1/25/8 4/21/9 12/20/10
f 6/38/11 2/36/12 1/35/13 5/39/14
f 2/9/15 7/8/16 3/11/17
f 8/7/18 7/8/19 2/9/20 6/10/21
f 7/16/22 9/15/23 3/18/24
f 10/22/25 4/21/26 3/26/27
f 11/54/28 10/55/29 3/56/30
f 9/41/31 13/42/32 3/43/33
f 13/4/34 14/5/35 3/6/36
f 6/38/37 5/39/38 15/40/39
f 16/57/40 11/54/41 3/56/42
f 5/58/43 12/59/44 15/60/45
f 17/47/46 10/48/47 11/49/48 20/50/49
f 14/30/50 16/29/51 3/32/52
f 8/7/53 6/10/54 15/12/55
f 18/14/56 8/13/57 15/17/58
f 12/20/59 17/19/60 15/23/61
f 19/44/62 13/42/63 9/41/64 18/45/65
f 20/50/66 11/49/67 16/51/68 22/52/69
f 17/47/70 20/50/71 15/53/72
f 19/44/73 18/45/74 15/46/75
f 21/61/76 19/62/77 15/63/78
f 20/50/79 22/52/80 15/53/81
f 22/28/82 21/27/83 15/31/84
f 8/13/85 18/14/86 9/15/87 7/16/88
f 17/19/89 12/20/90 4/21/91 10/22/92
f 19/33/93 21/27/94 14/30/95 13/34/96
f 21/27/97 22/28/98 16/29/99 14/30/100
