# This file uses centimeters as units for non-parametric coordinates.

mtllib smallstar.mtl
g Aquarius:default1
v -0.021003 0.091830 0.048112
v -0.020333 0.025084 0.021176
v 0.008834 -0.000001 0.048349
v 0.027380 0.040587 0.021558
v -0.020232 0.091830 -0.048441
v -0.019990 0.025084 -0.021499
v -0.087717 -0.000001 0.047577
v -0.086945 -0.000001 -0.048974
v -0.020333 -0.025086 0.021176
v 0.086945 0.056753 0.048974
v 0.056868 -0.000001 0.021794
v 0.027723 0.040587 -0.021118
v -0.021003 -0.091830 0.048112
v 0.027380 -0.040589 0.021558
v 0.009606 -0.000001 -0.048201
v 0.086945 -0.056753 0.048974
v 0.087717 0.056753 -0.047578
v -0.019990 -0.025086 -0.021499
v 0.027723 -0.040589 -0.021118
v -0.020232 -0.091830 -0.048441
v 0.057210 -0.000001 -0.020882
v 0.087717 -0.056753 -0.047578
vt 0.622422 0.734800
vt 0.485527 0.865917
vt 0.559275 0.630947
vt 0.738890 0.614927
vt 0.875785 0.746038
vt 0.812638 0.849893
vt 0.701487 0.304359
vt 0.637544 0.065718
vt 0.821400 0.087816
vt 0.849667 0.193293
vt 0.876182 0.001775
vt 0.940126 0.240413
vt 0.391356 0.001775
vt 0.629999 0.065718
vt 0.523825 0.195634
vt 0.418348 0.167367
vt 0.578266 0.258781
vt 0.558507 0.332528
vt 0.319866 0.268585
vt 0.339628 0.194837
vt 0.934065 0.610935
vt 0.785885 0.499868
vt 0.814152 0.394391
vt 0.998008 0.372293
vt 0.695426 0.546988
vt 0.759370 0.308351
vt 0.073482 0.332528
vt 0.100474 0.166937
vt 0.205951 0.138670
vt 0.312125 0.268586
vt 0.021754 0.139466
vt 0.001992 0.065718
vt 0.240634 0.001775
vt 0.260392 0.075523
vt 0.236964 0.650705
vt 0.066178 0.716987
vt 0.001992 0.630947
vt 0.066178 0.822464
vt 0.236964 0.889347
vt 0.001992 0.869585
vt 0.414637 0.716987
vt 0.243857 0.650705
vt 0.478821 0.630947
vt 0.243857 0.889347
vt 0.414637 0.822464
vt 0.478821 0.869585
vt 0.251449 0.336520
vt 0.490092 0.336520
vt 0.403451 0.481739
vt 0.297970 0.481739
vt 0.490092 0.626954
vt 0.251449 0.626954
vt 0.199721 0.481739
vt 0.632258 0.481736
vt 0.689290 0.626954
vt 0.496227 0.481736
vt 0.689290 0.336520
vt 0.730968 0.865917
vt 0.629749 0.734800
vt 0.657220 0.630947
vt 0.883112 0.746038
vt 0.984331 0.614927
vt 0.910583 0.849893
vn 0.066454 0.024170 0.997497
vn -0.486022 0.317074 0.814399
vn 0.022635 -0.000002 0.999744
vn 0.120828 0.507809 0.852954
vn 0.066454 0.024170 0.997497
vn 0.022635 -0.000002 0.999744
vn 0.728574 0.684942 0.005831
vn 0.728574 0.684942 0.005831
vn 0.728574 0.684942 0.005831
vn 0.728574 0.684942 0.005831
vn -0.999945 -0.006833 -0.008006
vn -0.999945 -0.006833 -0.008006
vn -0.999945 -0.006833 -0.008006
vn -0.999945 -0.006833 -0.008006
vn -0.486022 0.317074 0.814399
vn -0.007993 -0.000000 0.999968
vn 0.022635 -0.000002 0.999744
vn -0.349844 0.936804 -0.002800
vn -0.349844 0.936804 -0.002800
vn -0.349844 0.936804 -0.002800
vn -0.349844 0.936804 -0.002800
vn -0.007993 -0.000000 0.999968
vn -0.486021 -0.317080 0.814398
vn 0.022635 -0.000002 0.999744
vn 0.019965 -0.038467 0.999060
vn 0.120828 0.507809 0.852954
vn 0.022635 -0.000002 0.999744
vn 0.483825 -0.000004 0.875165
vn 0.019965 -0.038467 0.999060
vn 0.022635 -0.000002 0.999744
vn -0.486021 -0.317080 0.814398
vn 0.066453 -0.024175 0.997497
vn 0.022635 -0.000002 0.999744
vn 0.066453 -0.024175 0.997497
vn 0.120829 -0.507809 0.852954
vn 0.022635 -0.000002 0.999744
vn -0.472960 0.317062 -0.822059
vn 0.082397 0.024185 -0.996306
vn 0.038619 -0.000001 -0.999254
vn 0.019967 0.038462 0.999061
vn 0.483825 -0.000004 0.875165
vn 0.022635 -0.000002 0.999744
vn 0.082397 0.024185 -0.996306
vn 0.134428 0.507789 -0.850928
vn 0.038619 -0.000001 -0.999254
vn 0.882172 -0.470875 0.007061
vn 0.882172 -0.470875 0.007061
vn 0.882172 -0.470875 0.007061
vn 0.882172 -0.470875 0.007061
vn 0.120829 -0.507809 0.852954
vn 0.019967 0.038462 0.999061
vn 0.022635 -0.000002 0.999744
vn 0.007989 0.000001 -0.999968
vn -0.472960 0.317062 -0.822059
vn 0.038619 -0.000001 -0.999254
vn -0.472968 -0.317064 -0.822053
vn 0.007989 0.000001 -0.999968
vn 0.038619 -0.000001 -0.999254
vn 0.134428 0.507789 -0.850928
vn 0.035955 -0.038524 -0.998611
vn 0.038619 -0.000001 -0.999254
vn 0.728577 -0.684939 0.005832
vn 0.728577 -0.684939 0.005832
vn 0.728577 -0.684939 0.005832
vn 0.728577 -0.684939 0.005832
vn -0.999945 0.006836 -0.008004
vn -0.999945 0.006836 -0.008004
vn -0.999945 0.006836 -0.008004
vn -0.999945 0.006836 -0.008004
vn 0.882167 0.470883 0.007062
vn 0.882167 0.470883 0.007062
vn 0.882167 0.470883 0.007062
vn 0.882167 0.470883 0.007062
vn 0.035955 -0.038524 -0.998611
vn 0.497743 0.000003 -0.867325
vn 0.038619 -0.000001 -0.999254
vn 0.082397 -0.024192 -0.996306
vn -0.472968 -0.317064 -0.822053
vn 0.038619 -0.000001 -0.999254
vn -0.261018 -0.965332 -0.002090
vn -0.261018 -0.965332 -0.002090
vn -0.261018 -0.965332 -0.002090
vn -0.261018 -0.965332 -0.002090
vn 0.134421 -0.507792 -0.850928
vn 0.082397 -0.024192 -0.996306
vn 0.038619 -0.000001 -0.999254
vn 0.497743 0.000003 -0.867325
vn 0.035942 0.038528 -0.998611
vn 0.038619 -0.000001 -0.999254
vn 0.035942 0.038528 -0.998611
vn 0.134421 -0.507792 -0.850928
vn 0.038619 -0.000001 -0.999254
vn -0.349838 -0.936806 -0.002801
vn -0.349838 -0.936806 -0.002801
vn -0.349838 -0.936806 -0.002801
vn -0.349838 -0.936806 -0.002801
vn -0.261021 0.965331 -0.002089
vn -0.261021 0.965331 -0.002089
vn -0.261021 0.965331 -0.002089
vn -0.261021 0.965331 -0.002089
s off
g Aquarius:polySurface288 Aquarius:polySurface312 polySurface1
usemtl initialShadingGroup
f 1/35/1 2/36/2 3/37/3
f 4/1/4 1/2/5 3/3/6
f 5/32/7 1/33/8 4/29/9 12/28/10
f 6/38/11 2/36/12 1/35/13 5/39/14
f 2/9/15 7/8/16 3/11/17
f 8/7/18 7/8/19 2/9/20 6/10/21
f 7/24/22 9/23/23 3/26/24
f 10/30/25 4/29/26 3/34/27
f 11/54/28 10/55/29 3/56/30
f 9/41/31 13/42/32 3/43/33
f 13/4/34 14/5/35 3/6/36
f 6/38/37 5/39/38 15/40/39
f 16/57/40 11/54/41 3/56/42
f 5/58/43 12/59/44 15/60/45
f 17/47/46 10/48/47 11/49/48 21/50/49
f 14/15/50 16/14/51 3/17/52
f 8/7/53 6/10/54 15/12/55
f 18/22/56 8/21/57 15/25/58
f 12/28/59 17/27/60 15/31/61
f 19/16/62 14/15/63 13/18/64 20/19/65
f 20/44/66 13/42/67 9/41/68 18/45/69
f 21/50/70 11/49/71 16/51/72 22/52/73
f 17/47/74 21/50/75 15/53/76
f 20/44/77 18/45/78 15/46/79
f 22/13/80 16/14/81 14/15/82 19/16/83
f 19/61/84 20/62/85 15/63/86
f 21/50/87 22/52/88 15/53/89
f 22/13/90 19/16/91 15/20/92
f 8/21/93 18/22/94 9/23/95 7/24/96
f 17/27/97 12/28/98 4/29/99 10/30/100
